<svg width="179" height="101" viewBox="0 0 179 101" fill="none" xmlns="http://www.w3.org/2000/svg">
<path d="M39.6572 55.6216H42.6572V70.3316H39.6572V55.6216Z" fill="white"/>
<path d="M44.3972 65.2915C44.3952 64.235 44.7067 63.2015 45.2923 62.3221C45.8779 61.4426 46.7112 60.7566 47.6867 60.3509C48.6623 59.9452 49.7363 59.838 50.7729 60.0429C51.8094 60.2478 52.7618 60.7556 53.5096 61.502C54.2574 62.2485 54.767 63.1999 54.9739 64.2361C55.1807 65.2722 55.0756 66.3464 54.6717 67.3227C54.2678 68.2991 53.5834 69.1337 52.705 69.7209C51.8266 70.3081 50.7938 70.6215 49.7372 70.6215C49.0346 70.6295 48.3374 70.4972 47.6866 70.2323C47.0357 69.9674 46.4443 69.5753 45.947 69.0789C45.4496 68.5825 45.0564 67.9918 44.7902 67.3415C44.5241 66.6911 44.3905 65.9942 44.3972 65.2915ZM52.0572 65.2915C52.0454 64.8354 51.8994 64.3929 51.6374 64.0194C51.3754 63.6458 51.0091 63.3578 50.5843 63.1914C50.1594 63.025 49.695 62.9875 49.2489 63.0837C48.8029 63.1798 48.3952 63.4054 48.0767 63.7321C47.7582 64.0588 47.5431 64.4722 47.4584 64.9205C47.3736 65.3689 47.4229 65.8322 47.6002 66.2527C47.7774 66.6731 48.0746 67.0319 48.4547 67.2843C48.8349 67.5367 49.2809 67.6714 49.7372 67.6715C50.0494 67.6803 50.36 67.6242 50.6494 67.5069C50.9388 67.3896 51.2008 67.2136 51.4188 66.9899C51.6368 66.7663 51.806 66.4999 51.9159 66.2076C52.0258 65.9153 52.0739 65.6034 52.0572 65.2915Z" fill="white"/>
<path d="M67.137 60.2515V69.8315C67.137 73.2215 64.487 74.6515 61.807 74.6515C60.8645 74.7216 59.921 74.5311 59.0797 74.1007C58.2383 73.6703 57.5316 73.0168 57.037 72.2115L59.617 70.7215C59.8217 71.1342 60.1456 71.4759 60.5468 71.7023C60.9479 71.9288 61.4079 72.0295 61.867 71.9916C62.1691 72.0419 62.4787 72.0222 62.772 71.9339C63.0653 71.8457 63.3344 71.6913 63.5586 71.4825C63.7827 71.2738 63.956 71.0164 64.0649 70.7302C64.1739 70.4439 64.2156 70.1365 64.187 69.8315V68.9015C63.8342 69.3355 63.3842 69.6802 62.8735 69.9078C62.3627 70.1354 61.8055 70.2394 61.247 70.2115C59.889 70.2115 58.5868 69.6721 57.6266 68.7119C56.6664 67.7517 56.127 66.4495 56.127 65.0916C56.127 63.7336 56.6664 62.4313 57.6266 61.4712C58.5868 60.511 59.889 59.9715 61.247 59.9715C61.8051 59.946 62.3616 60.0512 62.872 60.2786C63.3824 60.506 63.8327 60.8495 64.187 61.2815V60.2815L67.137 60.2515ZM64.187 65.0916C64.2069 64.6052 64.0809 64.124 63.8252 63.7098C63.5695 63.2956 63.1958 62.9674 62.7521 62.7673C62.3084 62.5672 61.8149 62.5043 61.3352 62.5869C60.8555 62.6694 60.4114 62.8936 60.0601 63.2305C59.7088 63.5674 59.4663 64.0017 59.3638 64.4775C59.2612 64.9534 59.3033 65.449 59.4847 65.9007C59.6661 66.3524 59.9784 66.7396 60.3815 67.0124C60.7847 67.2852 61.2602 67.4311 61.747 67.4315C62.0647 67.454 62.3836 67.4097 62.6831 67.3014C62.9826 67.1931 63.2562 67.0233 63.486 66.8028C63.7159 66.5823 63.8971 66.3162 64.0178 66.0214C64.1385 65.7267 64.1961 65.4099 64.187 65.0916Z" fill="white"/>
<path d="M68.8674 65.2915C68.8654 64.235 69.177 63.2015 69.7625 62.3221C70.3481 61.4426 71.1814 60.7566 72.157 60.3509C73.1325 59.9452 74.2066 59.838 75.2431 60.0429C76.2796 60.2478 77.232 60.7556 77.9798 61.502C78.7276 62.2485 79.2372 63.1999 79.4441 64.2361C79.6509 65.2722 79.5458 66.3464 79.1419 67.3227C78.738 68.2991 78.0536 69.1337 77.1752 69.7209C76.2968 70.3081 75.264 70.6215 74.2074 70.6215C73.5048 70.6295 72.8076 70.4972 72.1568 70.2323C71.5059 69.9674 70.9145 69.5753 70.4172 69.0789C69.9198 68.5825 69.5266 67.9918 69.2605 67.3415C68.9944 66.6911 68.8607 65.9942 68.8674 65.2915ZM76.5274 65.2915C76.5156 64.8354 76.3696 64.3929 76.1076 64.0194C75.8456 63.6458 75.4793 63.3578 75.0545 63.1914C74.6296 63.025 74.1652 62.9875 73.7192 63.0837C73.2731 63.1798 72.8654 63.4054 72.5469 63.7321C72.2284 64.0588 72.0134 64.4722 71.9286 64.9205C71.8438 65.3689 71.8931 65.8322 72.0704 66.2527C72.2476 66.6731 72.5448 67.0319 72.925 67.2843C73.3051 67.5367 73.7512 67.6714 74.2074 67.6715C74.5179 67.6775 74.8263 67.6193 75.1134 67.5008C75.4004 67.3822 75.66 67.2058 75.8758 66.9825C76.0916 66.7591 76.2591 66.4937 76.3677 66.2028C76.4764 65.9119 76.524 65.6017 76.5074 65.2915H76.5274Z" fill="white"/>
<path d="M80.937 57.5515C80.937 57.1916 81.0438 56.8397 81.2437 56.5404C81.4437 56.2411 81.728 56.0078 82.0605 55.8701C82.3931 55.7323 82.759 55.6963 83.1121 55.7665C83.4651 55.8367 83.7894 56.0101 84.0439 56.2646C84.2985 56.5191 84.4718 56.8434 84.542 57.1965C84.6123 57.5495 84.5762 57.9155 84.4385 58.248C84.3007 58.5806 84.0674 58.8648 83.7682 59.0648C83.4689 59.2648 83.117 59.3715 82.757 59.3715C82.2751 59.3689 81.8137 59.1763 81.473 58.8356C81.1322 58.4948 80.9396 58.0334 80.937 57.5515ZM81.247 60.2515H84.247V70.3315H81.247V60.2515Z" fill="white"/>
<path d="M97.3271 65.2915C97.3635 65.9578 97.2677 66.6248 97.0453 67.2539C96.8228 67.883 96.4782 68.462 96.0311 68.9574C95.5841 69.4528 95.0434 69.8548 94.4403 70.1405C93.8372 70.4261 93.1836 70.5896 92.5171 70.6215C91.9575 70.6484 91.3989 70.5522 90.8805 70.3397C90.3622 70.1271 89.8968 69.8035 89.5171 69.3915V74.3915H86.5171V60.2515H89.5171V61.2015C89.8968 60.7896 90.3622 60.4659 90.8805 60.2534C91.3989 60.0409 91.9575 59.9447 92.5171 59.9715C93.1827 60.0035 93.8355 60.1667 94.4379 60.4517C95.0403 60.7367 95.5805 61.1378 96.0274 61.6322C96.4744 62.1265 96.8192 62.7042 97.0423 63.3322C97.2653 63.9602 97.3621 64.626 97.3271 65.2915ZM94.3271 65.2915C94.3152 64.8222 94.1659 64.3666 93.8977 63.9813C93.6295 63.5959 93.2542 63.2977 92.8182 63.1235C92.3822 62.9494 91.9046 62.9069 91.4447 63.0014C90.9849 63.0959 90.5628 63.3233 90.2308 63.6553C89.8988 63.9872 89.6715 64.4093 89.577 64.8692C89.4825 65.3291 89.5249 65.8066 89.6991 66.2426C89.8733 66.6786 90.1715 67.0539 90.5568 67.3222C90.9422 67.5904 91.3977 67.7396 91.8671 67.7515C92.1946 67.7724 92.5229 67.7228 92.8297 67.6063C93.1365 67.4897 93.4148 67.3089 93.646 67.0759C93.8771 66.8428 94.0557 66.563 94.1697 66.2553C94.2837 65.9475 94.3306 65.6189 94.3071 65.2915H94.3271Z" fill="white"/>
<path d="M106.667 67.3115C106.667 69.6315 104.667 70.6215 102.467 70.6215C101.588 70.6993 100.706 70.5124 99.9347 70.0846C99.163 69.6569 98.537 69.008 98.1372 68.2215L100.757 66.7315C100.864 67.0953 101.091 67.4117 101.402 67.6282C101.713 67.8447 102.089 67.9482 102.467 67.9215C103.197 67.9215 103.557 67.6915 103.557 67.2915C103.557 66.1815 98.5572 66.7715 98.5572 63.2915C98.5572 61.0915 100.417 59.9815 102.557 59.9815C103.347 59.9575 104.129 60.1452 104.821 60.5249C105.514 60.9047 106.093 61.4629 106.497 62.1415L103.867 63.5215C103.751 63.2574 103.561 63.0328 103.319 62.8748C103.078 62.7168 102.796 62.6323 102.507 62.6315C101.987 62.6315 101.667 62.8315 101.667 63.2015C101.707 64.3515 106.667 63.5815 106.667 67.3115Z" fill="white"/>
<path d="M117.707 60.2515V70.3315H114.707V69.3915C114.358 69.8092 113.915 70.1384 113.415 70.3521C112.914 70.5659 112.37 70.6582 111.827 70.6215C109.827 70.6215 108.057 69.1715 108.057 66.4415V60.2515H111.057V66.0015C111.031 66.2466 111.059 66.4944 111.141 66.7271C111.222 66.9597 111.354 67.1713 111.527 67.3465C111.701 67.5218 111.911 67.6562 112.143 67.7401C112.374 67.824 112.622 67.8552 112.867 67.8315C113.967 67.8315 114.737 67.1915 114.737 65.7615V60.2515H117.707Z" fill="white"/>
<path d="M135.047 64.1516V70.3316H132.047V64.4116C132.047 63.4116 131.557 62.7516 130.597 62.7516C129.637 62.7516 129.017 63.4616 129.017 64.6516V70.3316H126.017V64.4116C126.017 63.4116 125.537 62.7516 124.567 62.7516C123.597 62.7516 122.997 63.4616 122.997 64.6516V70.3316H119.997V60.2516H122.997V61.1816C123.311 60.7708 123.722 60.445 124.193 60.2337C124.665 60.0223 125.182 59.9322 125.697 59.9716C126.215 59.9464 126.73 60.0557 127.192 60.2888C127.655 60.5219 128.049 60.8708 128.337 61.3016C128.672 60.8512 129.115 60.493 129.626 60.2604C130.136 60.0278 130.698 59.9284 131.257 59.9716C133.537 59.9716 135.047 61.6316 135.047 64.1516Z" fill="white"/>
<path d="M137.607 60.1915C138.844 60.1915 139.847 59.1887 139.847 57.9515C139.847 56.7144 138.844 55.7115 137.607 55.7115C136.37 55.7115 135.367 56.7144 135.367 57.9515C135.367 59.1887 136.37 60.1915 137.607 60.1915Z" fill="white"/>
<path d="M73.6072 47.9915C79.4007 47.9915 84.0972 43.295 84.0972 37.5015C84.0972 31.7081 79.4007 27.0115 73.6072 27.0115C67.8137 27.0115 63.1172 31.7081 63.1172 37.5015C63.1172 43.295 67.8137 47.9915 73.6072 47.9915Z" fill="white"/>
<path d="M97.0574 47.9915C102.851 47.9915 107.547 43.295 107.547 37.5015C107.547 31.7081 102.851 27.0115 97.0574 27.0115C91.2639 27.0115 86.5674 31.7081 86.5674 37.5015C86.5674 43.295 91.2639 47.9915 97.0574 47.9915Z" fill="white"/>
<path d="M60.6472 27.0115H39.6772V47.9815H60.6472V27.0115Z" fill="white"/>
</svg>
