<svg width="179" height="101" viewBox="0 0 179 101" fill="none" xmlns="http://www.w3.org/2000/svg">
<path d="M64.3203 44.9015H67.3203V57.0315H64.3203V44.9015ZM68.5103 52.4515C68.5103 49.4515 70.3503 47.6615 73.1903 47.6615C76.0303 47.6615 77.8703 49.4515 77.8703 52.4515C77.8703 55.4515 76.0703 57.2515 73.1903 57.2515C70.3103 57.2515 68.5103 55.5015 68.5103 52.4515ZM74.8603 52.4515C74.8603 50.8015 74.2103 49.8315 73.1903 49.8315C72.1703 49.8315 71.5303 50.8315 71.5303 52.4515C71.5303 54.0715 72.1603 55.0515 73.1903 55.0515C74.2203 55.0515 74.8603 54.1315 74.8603 52.4615V52.4515ZM79.0003 57.6215H81.8803C82.0174 57.926 82.2491 58.1781 82.541 58.3403C82.8329 58.5025 83.1694 58.566 83.5003 58.5215C84.6403 58.5215 85.2403 57.9015 85.2403 57.0015V55.3215H85.1803C84.9413 55.8364 84.5534 56.2679 84.0668 56.5602C83.5802 56.8525 83.0172 56.9923 82.4503 56.9615C80.2603 56.9615 78.8103 55.2915 78.8103 52.4215C78.8103 49.5515 80.1903 47.7415 82.4903 47.7415C83.0749 47.7186 83.6525 47.8749 84.1458 48.1895C84.6391 48.504 85.0245 48.9618 85.2503 49.5015V47.8315H88.2503V56.9315C88.2503 59.1215 86.3203 60.4815 83.4703 60.4815C80.8203 60.4815 79.1703 59.2915 79.0003 57.6315V57.6215ZM85.2503 52.4415C85.2503 50.9815 84.5803 50.0615 83.5203 50.0615C82.4603 50.0615 81.8103 50.9715 81.8103 52.4415C81.8103 53.9115 82.4503 54.7415 83.5203 54.7415C84.5903 54.7415 85.2503 53.9315 85.2503 52.4515V52.4415ZM89.3803 52.4415C89.3803 49.4415 91.2203 47.6515 94.0603 47.6515C96.9003 47.6515 98.7503 49.4415 98.7503 52.4415C98.7503 55.4415 96.9503 57.2415 94.0603 57.2415C91.1703 57.2415 89.3803 55.5015 89.3803 52.4515V52.4415ZM95.7303 52.4415C95.7303 50.7915 95.0803 49.8215 94.0603 49.8215C93.0403 49.8215 92.4503 50.8315 92.4503 52.4615C92.4503 54.0915 93.0803 55.0615 94.1003 55.0615C95.1203 55.0615 95.7303 54.1315 95.7303 52.4615V52.4415ZM99.8903 45.6515C99.8825 45.3486 99.9647 45.0502 100.127 44.7941C100.289 44.5381 100.523 44.3358 100.8 44.213C101.077 44.0903 101.384 44.0525 101.683 44.1046C101.981 44.1566 102.257 44.2962 102.477 44.5054C102.696 44.7147 102.848 44.9843 102.913 45.2801C102.979 45.5759 102.955 45.8846 102.846 46.1669C102.736 46.4493 102.544 46.6926 102.296 46.8661C102.048 47.0396 101.753 47.1355 101.45 47.1415C101.249 47.1553 101.048 47.1275 100.858 47.0597C100.669 46.9919 100.495 46.8856 100.349 46.7475C100.202 46.6095 100.086 46.4427 100.007 46.2575C99.9282 46.0723 99.8885 45.8728 99.8903 45.6715V45.6515ZM99.8903 47.8515H102.89V57.0315H99.8903V47.8515ZM113.78 52.4415C113.78 55.4415 112.45 57.1515 110.17 57.1515C109.586 57.1891 109.004 57.0462 108.503 56.7421C108.002 56.4381 107.607 55.9876 107.37 55.4515H107.31V59.9715H104.31V47.8315H107.31V49.4715H107.37C107.596 48.9267 107.984 48.4644 108.481 48.1477C108.978 47.831 109.561 47.6752 110.15 47.7015C112.45 47.7415 113.82 49.4615 113.82 52.4615L113.78 52.4415ZM110.78 52.4415C110.78 50.9815 110.11 50.0515 109.06 50.0515C108.01 50.0515 107.34 50.9915 107.33 52.4415C107.32 53.8915 108.01 54.8215 109.06 54.8215C110.11 54.8215 110.78 53.9115 110.78 52.4615V52.4415ZM118.93 47.6415C121.42 47.6415 122.93 48.8215 123 50.7115H120.27C120.27 50.0615 119.73 49.6515 118.9 49.6515C118.07 49.6515 117.7 49.9715 117.7 50.4415C117.7 50.9115 118.03 51.0615 118.7 51.2015L120.62 51.5915C122.45 51.9815 123.23 52.7215 123.23 54.1115C123.23 56.0115 121.5 57.2315 118.95 57.2315C116.4 57.2315 114.73 56.0115 114.6 54.1415H117.49C117.58 54.8215 118.12 55.2215 119 55.2215C119.88 55.2215 120.28 54.9315 120.28 54.4515C120.28 53.9715 120 53.8715 119.28 53.7215L117.55 53.3515C115.76 52.9815 114.82 52.0315 114.82 50.6315C114.84 48.8315 116.45 47.6615 118.93 47.6615V47.6415ZM133.24 57.0115H130.35V55.3015H130.29C130.131 55.8757 129.781 56.3782 129.297 56.7256C128.813 57.0731 128.225 57.2445 127.63 57.2115C127.175 57.2375 126.718 57.1652 126.293 56.9998C125.868 56.8343 125.483 56.5794 125.164 56.2524C124.845 55.9253 124.601 55.5337 124.447 55.104C124.293 54.6743 124.232 54.2165 124.27 53.7615V47.8315H127.27V53.0715C127.27 54.1615 127.83 54.7415 128.76 54.7415C128.978 54.742 129.194 54.6958 129.393 54.6061C129.592 54.5164 129.769 54.3852 129.913 54.2214C130.057 54.0576 130.164 53.8649 130.227 53.6562C130.291 53.4476 130.309 53.2277 130.28 53.0115V47.8315H133.28L133.24 57.0115ZM134.69 47.8315H137.59V49.6015H137.65C137.809 49.035 138.152 48.5373 138.624 48.1862C139.097 47.8352 139.672 47.6507 140.26 47.6615C140.859 47.6136 141.454 47.7928 141.926 48.1633C142.399 48.5339 142.714 49.0688 142.81 49.6615H142.87C143.052 49.0625 143.427 48.5408 143.938 48.1787C144.448 47.8166 145.065 47.6347 145.69 47.6615C146.098 47.6478 146.505 47.7201 146.883 47.8737C147.261 48.0273 147.603 48.2587 147.886 48.553C148.169 48.8472 148.386 49.1977 148.525 49.5816C148.664 49.9656 148.72 50.3744 148.69 50.7815V57.0315H145.69V51.5815C145.69 50.5815 145.24 50.1215 144.4 50.1215C144.213 50.12 144.028 50.1586 143.856 50.2348C143.685 50.311 143.532 50.423 143.408 50.5632C143.284 50.7035 143.192 50.8688 143.137 51.0479C143.082 51.227 143.066 51.4158 143.09 51.6015V57.0315H140.24V51.5415C140.24 50.6215 139.79 50.1215 138.97 50.1215C138.781 50.1216 138.594 50.1618 138.421 50.2396C138.248 50.3173 138.094 50.4308 137.968 50.5725C137.842 50.7143 137.748 50.8811 137.692 51.0619C137.635 51.2427 137.618 51.4335 137.64 51.6215V57.0315H134.64L134.69 47.8315Z" fill="white"/>
<path d="M55.9303 45.4515C55.4214 44.2879 54.7478 43.2035 53.9303 42.2315C52.7218 40.7519 51.2136 39.5449 49.505 38.6901C47.7964 37.8354 45.9261 37.3521 44.0173 37.2722C42.1085 37.1923 40.2044 37.5175 38.4303 38.2265C36.6563 38.9355 35.0525 40.0122 33.7245 41.3857C32.3965 42.7591 31.3745 44.3983 30.7256 46.1952C30.0768 47.9922 29.8158 49.9061 29.96 51.8112C30.1041 53.7162 30.6501 55.5691 31.5619 57.248C32.4737 58.9268 33.7308 60.3935 35.2503 61.5515C36.2253 62.3094 37.3026 62.9255 38.4503 63.3815C40.0593 64.0409 41.7814 64.3806 43.5203 64.3815C47.1097 64.3736 50.5495 62.9428 53.0857 60.4029C55.622 57.8629 57.0477 54.4209 57.0503 50.8315C57.0529 48.9801 56.6716 47.1482 55.9303 45.4515ZM43.5103 40.0215C45.0718 40.0214 46.6145 40.3627 48.0303 41.0215C47.6851 41.1707 47.3221 41.2749 46.9503 41.3315C45.7269 41.5086 44.5936 42.0766 43.7195 42.9507C42.8454 43.8248 42.2774 44.9581 42.1003 46.1815C42.0226 46.8677 41.7105 47.506 41.2168 47.9887C40.7231 48.4715 40.078 48.7692 39.3903 48.8315C38.1669 49.0086 37.0336 49.5766 36.1595 50.4507C35.2854 51.3248 34.7174 52.4581 34.5403 53.6815C34.4803 54.3339 34.202 54.947 33.7503 55.4215C32.9709 53.7748 32.6208 51.9577 32.7326 50.1393C32.8443 48.3208 33.4142 46.5602 34.3893 45.0213C35.3643 43.4823 36.7129 42.2151 38.3094 41.3374C39.9059 40.4597 41.6984 40.0002 43.5203 40.0015L43.5103 40.0215ZM35.2403 57.8315C35.3603 57.7215 35.4803 57.6215 35.6003 57.5015C36.4899 56.639 37.061 55.5004 37.2203 54.2715C37.2849 53.5808 37.5933 52.9356 38.0903 52.4515C38.5685 51.9537 39.2123 51.6479 39.9003 51.5915C41.1237 51.4144 42.257 50.8465 43.1311 49.9724C44.0052 49.0983 44.5732 47.9649 44.7503 46.7415C44.7936 46.0191 45.1036 45.3384 45.6203 44.8315C46.1103 44.3434 46.7602 44.0486 47.4503 44.0015C48.5742 43.8469 49.6224 43.3473 50.4503 42.5715C51.3929 43.3536 52.1916 44.2944 52.8103 45.3515C52.7723 45.4029 52.7287 45.4498 52.6803 45.4915C52.203 45.9937 51.5601 46.3063 50.8703 46.3715C49.6456 46.5455 48.5106 47.1125 47.6359 47.9872C46.7613 48.8618 46.1943 49.9969 46.0203 51.2215C45.9498 51.91 45.6435 52.5529 45.1533 53.0413C44.663 53.5297 44.019 53.8336 43.3303 53.9015C42.1033 54.0773 40.9658 54.6441 40.0866 55.5179C39.2074 56.3916 38.6336 57.5257 38.4503 58.7515C38.3965 59.2403 38.2286 59.7095 37.9603 60.1215C36.9343 59.5124 36.0154 58.7387 35.2403 57.8315ZM43.5103 61.6915C42.4956 61.6926 41.4857 61.5513 40.5103 61.2715C40.844 60.6495 41.0609 59.9717 41.1503 59.2715C41.2204 58.5846 41.5253 57.943 42.0135 57.4547C42.5017 56.9665 43.1434 56.6616 43.8303 56.5915C45.0555 56.4164 46.1911 55.8493 47.0672 54.9751C47.9432 54.1008 48.5127 52.9664 48.6903 51.7415C48.7604 51.0546 49.0653 50.413 49.5535 49.9247C50.0417 49.4365 50.6834 49.1316 51.3703 49.0615C52.2923 48.9416 53.1711 48.5983 53.9303 48.0615C54.3519 49.6594 54.4018 51.3327 54.0763 52.9529C53.7508 54.5731 53.0584 56.0972 52.0524 57.4083C51.0464 58.7194 49.7535 59.7826 48.2727 60.5164C46.792 61.2502 45.1629 61.6351 43.5103 61.6415V61.6915Z" fill="white"/>
</svg>
