<svg width="179" height="101" viewBox="0 0 179 101" fill="none" xmlns="http://www.w3.org/2000/svg">
<path d="M68.7473 58.2215C68.1525 58.2538 67.5642 58.0847 67.0773 57.7415C66.8738 57.5907 66.7101 57.3926 66.6004 57.1644C66.4906 56.9362 66.4381 56.6846 66.4473 56.4315V47.1615C66.4424 47.1223 66.4466 47.0825 66.4594 47.0451C66.4723 47.0077 66.4935 46.9737 66.5215 46.9457C66.5494 46.9178 66.5834 46.8965 66.6208 46.8837C66.6582 46.8708 66.698 46.8667 66.7373 46.8715H68.4173C68.6073 46.8715 68.6973 46.9715 68.6973 47.1615V55.7115C68.6973 56.0915 68.8673 56.2815 69.2173 56.2815C69.3656 56.2877 69.5141 56.2708 69.6573 56.2315C69.8573 56.2315 69.9673 56.2915 69.9773 56.4715L70.1273 57.7215C70.1345 57.758 70.1338 57.7955 70.1253 57.8317C70.1167 57.8679 70.1006 57.9018 70.0778 57.9311C70.0551 57.9605 70.0263 57.9847 69.9934 58.002C69.9606 58.0193 69.9244 58.0294 69.8873 58.0315C69.5193 58.1531 69.1348 58.2172 68.7473 58.2215Z" fill="white"/>
<path d="M78.1973 57.1515C77.3531 57.849 76.2923 58.2306 75.1973 58.2306C74.1022 58.2306 73.0414 57.849 72.1973 57.1515C71.4553 56.4025 71.0391 55.3908 71.0391 54.3365C71.0391 53.2822 71.4553 52.2706 72.1973 51.5215C73.0431 50.8277 74.1033 50.4484 75.1973 50.4484C76.2913 50.4484 77.3515 50.8277 78.1973 51.5215C78.9221 52.2775 79.3268 53.2842 79.3268 54.3315C79.3268 55.3788 78.9221 56.3856 78.1973 57.1415V57.1515ZM73.7773 55.8315C74.169 56.1864 74.6787 56.3829 75.2073 56.3829C75.7358 56.3829 76.2455 56.1864 76.6373 55.8315C76.9918 55.4239 77.1871 54.9018 77.1871 54.3615C77.1871 53.8213 76.9918 53.2992 76.6373 52.8915C76.2455 52.5367 75.7358 52.3401 75.2073 52.3401C74.6787 52.3401 74.169 52.5367 73.7773 52.8915C73.4227 53.2992 73.2274 53.8213 73.2274 54.3615C73.2274 54.9018 73.4227 55.4239 73.7773 55.8315Z" fill="white"/>
<path d="M88.5774 50.7015C88.7674 50.7015 88.8574 50.8015 88.8574 50.9915V58.1615C88.8749 58.6455 88.7843 59.1272 88.5923 59.5718C88.4003 60.0163 88.1117 60.4125 87.7474 60.7315C86.9388 61.421 85.899 61.7783 84.8374 61.7315C83.8786 61.7652 82.9325 61.5034 82.1274 60.9815C81.7836 60.7558 81.4899 60.4617 81.2646 60.1177C81.0392 59.7736 80.887 59.3869 80.8174 58.9815C80.8174 58.7815 80.8174 58.6915 81.0874 58.6915H82.7674C82.8387 58.694 82.9078 58.717 82.9664 58.7578C83.025 58.7986 83.0705 58.8555 83.0974 58.9215C83.2064 59.2253 83.4236 59.4781 83.7074 59.6315C84.0533 59.81 84.4383 59.8994 84.8274 59.8915C85.0622 59.9044 85.2972 59.8703 85.5187 59.7914C85.7402 59.7124 85.9437 59.5901 86.1174 59.4315C86.2761 59.2657 86.3995 59.0695 86.4803 58.8546C86.5611 58.6398 86.5975 58.4108 86.5874 58.1815V57.5515C85.9859 57.994 85.2538 58.2227 84.5074 58.2015C83.985 58.2205 83.4642 58.1338 82.9761 57.9465C82.4881 57.7592 82.043 57.4752 81.6674 57.1115C80.9465 56.3657 80.5435 55.3689 80.5435 54.3315C80.5435 53.2942 80.9465 52.2974 81.6674 51.5515C82.0448 51.1911 82.4905 50.9099 82.9782 50.7244C83.466 50.5389 83.9859 50.4529 84.5074 50.4715C85.2754 50.4513 86.0272 50.6948 86.6374 51.1615V51.0015C86.6328 50.9632 86.6368 50.9244 86.6491 50.8878C86.6614 50.8512 86.6817 50.8178 86.7085 50.79C86.7353 50.7623 86.768 50.7408 86.8041 50.7272C86.8403 50.7137 86.879 50.7083 86.9174 50.7115L88.5774 50.7015ZM84.6974 56.4215C84.955 56.4295 85.2113 56.3808 85.448 56.2789C85.6847 56.1769 85.8962 56.0242 86.0674 55.8315C86.3999 55.4022 86.5803 54.8746 86.5803 54.3315C86.5803 53.7885 86.3999 53.2609 86.0674 52.8315C85.8968 52.6415 85.6866 52.4911 85.4517 52.3909C85.2167 52.2907 84.9627 52.2431 84.7074 52.2515C84.4468 52.2433 84.1876 52.2919 83.9476 52.3937C83.7076 52.4956 83.4925 52.6484 83.3174 52.8415C82.9491 53.2522 82.7554 53.7903 82.7774 54.3415C82.7594 54.8873 82.9487 55.4197 83.3074 55.8315C83.483 56.0242 83.6981 56.1766 83.938 56.2784C84.1778 56.3802 84.4369 56.4291 84.6974 56.4215Z" fill="white"/>
<path d="M97.4869 57.1515C96.6411 57.8454 95.581 58.2246 94.4869 58.2246C93.3929 58.2246 92.3328 57.8454 91.4869 57.1515C90.7614 56.394 90.3564 55.3855 90.3564 54.3365C90.3564 53.2876 90.7614 52.2791 91.4869 51.5215C92.3336 50.8295 93.3934 50.4514 94.4869 50.4514C95.5805 50.4514 96.6403 50.8295 97.4869 51.5215C98.2118 52.2775 98.6165 53.2843 98.6165 54.3315C98.6165 55.3788 98.2118 56.3856 97.4869 57.1415V57.1515ZM93.0569 55.8315C93.2487 56.0139 93.4746 56.1564 93.7218 56.2509C93.969 56.3453 94.2325 56.3897 94.4969 56.3815C94.7597 56.3884 95.0213 56.3433 95.2667 56.2489C95.5121 56.1545 95.7364 56.0127 95.9269 55.8315C96.2757 55.4212 96.4672 54.9001 96.4672 54.3615C96.4672 53.823 96.2757 53.3019 95.9269 52.8915C95.7364 52.7104 95.5121 52.5686 95.2667 52.4742C95.0213 52.3798 94.7597 52.3347 94.4969 52.3415C94.2325 52.3334 93.969 52.3778 93.7218 52.4722C93.4746 52.5667 93.2487 52.7092 93.0569 52.8915C92.7082 53.3019 92.5167 53.823 92.5167 54.3615C92.5167 54.9001 92.7082 55.4212 93.0569 55.8315Z" fill="white"/>
<path d="M102.227 49.0015C101.963 49.2329 101.623 49.3605 101.272 49.3605C100.921 49.3605 100.581 49.2329 100.317 49.0015C100.197 48.8884 100.102 48.752 100.036 48.6007C99.9712 48.4494 99.9375 48.2863 99.9375 48.1215C99.9375 47.9567 99.9712 47.7937 100.036 47.6424C100.102 47.491 100.197 47.3546 100.317 47.2415C100.584 47.016 100.922 46.8922 101.272 46.8922C101.622 46.8922 101.96 47.016 102.227 47.2415C102.347 47.3546 102.442 47.491 102.508 47.6424C102.573 47.7937 102.607 47.9567 102.607 48.1215C102.607 48.2863 102.573 48.4494 102.508 48.6007C102.442 48.752 102.347 48.8884 102.227 49.0015ZM102.437 58.2215C101.843 58.2507 101.255 58.0819 100.767 57.7415C100.567 57.5885 100.406 57.3897 100.298 57.1618C100.19 56.9339 100.138 56.6835 100.147 56.4315V50.9915C100.142 50.9523 100.146 50.9125 100.159 50.8751C100.172 50.8377 100.193 50.8037 100.221 50.7757C100.249 50.7478 100.283 50.7265 100.321 50.7137C100.358 50.7008 100.398 50.6967 100.437 50.7015H102.117C102.307 50.7015 102.397 50.8015 102.397 50.9915V55.7115C102.397 56.0915 102.567 56.2815 102.907 56.2815C103.059 56.287 103.21 56.2701 103.357 56.2315C103.557 56.2315 103.667 56.2915 103.677 56.4715L103.827 57.7215C103.834 57.758 103.834 57.7956 103.825 57.8317C103.816 57.8679 103.8 57.9018 103.778 57.9311C103.755 57.9605 103.726 57.9847 103.693 58.002C103.66 58.0193 103.624 58.0294 103.587 58.0315C103.216 58.1538 102.828 58.2179 102.437 58.2215Z" fill="white"/>
<path d="M110.007 50.4616C110.532 50.4408 111.056 50.5257 111.547 50.7113C112.038 50.8968 112.487 51.1791 112.867 51.5416C113.574 52.3005 113.968 53.2992 113.968 54.3366C113.968 55.3739 113.574 56.3726 112.867 57.1316C112.489 57.4972 112.041 57.7823 111.549 57.9697C111.057 58.157 110.533 58.2427 110.007 58.2216C109.258 58.2382 108.525 58.01 107.917 57.5716V61.1816C107.917 61.3715 107.817 61.4616 107.627 61.4616H105.947C105.909 61.4687 105.869 61.4664 105.832 61.4549C105.795 61.4434 105.761 61.4229 105.734 61.3953C105.706 61.3678 105.685 61.3339 105.674 61.2966C105.662 61.2594 105.66 61.2199 105.667 61.1816V52.9816C105.679 52.9013 105.672 52.8195 105.646 52.7425C105.621 52.6656 105.578 52.5957 105.521 52.5383C105.463 52.481 105.393 52.4379 105.316 52.4124C105.239 52.3869 105.158 52.3798 105.077 52.3916H104.747C104.527 52.3916 104.417 52.3116 104.417 52.1516V50.9716C104.412 50.8985 104.432 50.8259 104.474 50.7659C104.516 50.7058 104.577 50.662 104.647 50.6416C104.993 50.5158 105.359 50.4548 105.727 50.4616C106.094 50.4291 106.463 50.5069 106.785 50.685C107.108 50.8632 107.369 51.1336 107.537 51.4616C107.859 51.1357 108.245 50.879 108.669 50.707C109.094 50.5351 109.549 50.4516 110.007 50.4616ZM108.447 55.8316C108.626 56.0179 108.84 56.1662 109.077 56.2675C109.314 56.3688 109.569 56.4211 109.827 56.4211C110.085 56.4211 110.34 56.3688 110.578 56.2675C110.815 56.1662 111.029 56.0179 111.207 55.8316C111.583 55.4126 111.78 54.8637 111.757 54.3016C111.783 53.7389 111.586 53.1888 111.207 52.7716C111.029 52.5852 110.815 52.4369 110.578 52.3356C110.34 52.2343 110.085 52.182 109.827 52.182C109.569 52.182 109.314 52.2343 109.077 52.3356C108.84 52.4369 108.626 52.5852 108.447 52.7716C108.083 53.1961 107.894 53.7429 107.917 54.3016C107.897 54.8598 108.086 55.4055 108.447 55.8316Z" fill="white"/>
<path d="M118.687 58.2215C117.789 58.2584 116.899 58.0437 116.117 57.6015C115.803 57.4125 115.536 57.1553 115.335 56.8488C115.134 56.5424 115.005 56.1947 114.957 55.8315C114.957 55.6315 115.027 55.5315 115.247 55.5315H116.717C116.787 55.5343 116.855 55.5563 116.913 55.5951C116.971 55.6339 117.018 55.688 117.047 55.7515C117.257 56.2915 117.807 56.5615 118.687 56.5615C118.994 56.5756 119.3 56.5138 119.577 56.3815C119.673 56.3383 119.755 56.2699 119.815 56.1836C119.875 56.0973 119.91 55.9964 119.917 55.8915C119.917 55.6315 119.757 55.4515 119.437 55.3315C119.057 55.2052 118.665 55.1214 118.267 55.0815C117.796 55.0282 117.328 54.9447 116.867 54.8315C116.419 54.7301 116.011 54.4967 115.697 54.1615C115.512 53.9337 115.376 53.6702 115.297 53.3875C115.218 53.1048 115.198 52.8088 115.238 52.5181C115.279 52.2273 115.378 51.948 115.531 51.6974C115.684 51.4468 115.887 51.2304 116.127 51.0615C116.848 50.6024 117.694 50.3787 118.547 50.4215C119.373 50.3936 120.191 50.598 120.907 51.0115C121.196 51.175 121.444 51.4007 121.634 51.6723C121.825 51.9439 121.952 52.2545 122.007 52.5815C122.007 52.7815 121.917 52.8815 121.737 52.8815H120.257C120.195 52.8852 120.133 52.87 120.079 52.8379C120.026 52.8058 119.983 52.7583 119.957 52.7015C119.858 52.4647 119.672 52.2749 119.437 52.1715C119.172 52.0329 118.876 51.964 118.577 51.9715C118.284 51.9556 117.991 52.0141 117.727 52.1415C117.634 52.1775 117.554 52.2405 117.497 52.3225C117.44 52.4045 117.408 52.5017 117.407 52.6015C117.413 52.7383 117.463 52.8694 117.55 52.9756C117.636 53.0818 117.754 53.1575 117.887 53.1915C118.271 53.3363 118.67 53.4369 119.077 53.4915C119.545 53.5531 120.009 53.6399 120.467 53.7515C120.915 53.853 121.323 54.0863 121.637 54.4215C121.805 54.6062 121.935 54.8224 122.019 55.0575C122.103 55.2927 122.14 55.5421 122.127 55.7915C122.136 56.1372 122.055 56.4792 121.892 56.7842C121.729 57.0892 121.489 57.3467 121.197 57.5315C120.45 58.0112 119.574 58.2519 118.687 58.2215Z" fill="white"/>
<path d="M132.697 57.7215C132.703 57.757 132.701 57.7933 132.693 57.8283C132.684 57.8632 132.669 57.896 132.647 57.9249C132.626 57.9538 132.599 57.9781 132.568 57.9964C132.537 58.0147 132.503 58.0267 132.467 58.0315C132.102 58.1507 131.721 58.2148 131.337 58.2215C130.957 58.2609 130.573 58.2015 130.223 58.0491C129.873 57.8967 129.567 57.6564 129.337 57.3515C128.631 57.9588 127.717 58.2704 126.787 58.2215C126.355 58.2414 125.924 58.1708 125.521 58.014C125.118 57.8573 124.752 57.618 124.447 57.3115C124.144 56.9904 123.909 56.6114 123.756 56.1973C123.603 55.7832 123.536 55.3425 123.557 54.9015V50.9915C123.557 50.8015 123.647 50.7015 123.837 50.7015H125.517C125.707 50.7015 125.797 50.8015 125.797 50.9915V54.6015C125.779 55.0513 125.933 55.4911 126.227 55.8315C126.374 55.9875 126.553 56.1101 126.751 56.1912C126.95 56.2723 127.163 56.3099 127.377 56.3015C127.596 56.3111 127.815 56.2772 128.021 56.2017C128.227 56.1261 128.416 56.0105 128.577 55.8615C128.729 55.7045 128.848 55.5179 128.925 55.3132C129.003 55.1085 129.037 54.8901 129.027 54.6715V50.9915C129.027 50.8015 129.117 50.7015 129.307 50.7015H131.007C131.197 50.7015 131.287 50.8015 131.287 50.9915V55.7015C131.287 56.0915 131.457 56.2815 131.787 56.2815C131.942 56.2875 132.097 56.2707 132.247 56.2315C132.285 56.2209 132.325 56.219 132.363 56.226C132.402 56.2329 132.438 56.2485 132.47 56.2716C132.502 56.2947 132.528 56.3247 132.547 56.3593C132.565 56.3939 132.576 56.4323 132.577 56.4715L132.697 57.7215Z" fill="white"/>
<path d="M148.587 57.7215C148.596 57.7574 148.597 57.7947 148.59 57.8309C148.583 57.8671 148.567 57.9012 148.545 57.9308C148.523 57.9605 148.495 57.9849 148.463 58.0023C148.43 58.0197 148.394 58.0297 148.357 58.0315C147.986 58.1524 147.598 58.2165 147.207 58.2215C146.613 58.2522 146.025 58.0833 145.537 57.7415C145.326 57.5952 145.155 57.399 145.038 57.1705C144.921 56.942 144.863 56.6882 144.867 56.4315V54.0815C144.888 53.6331 144.738 53.1934 144.447 52.8515C144.307 52.6953 144.134 52.572 143.94 52.4908C143.746 52.4095 143.537 52.3722 143.327 52.3815C143.138 52.3744 142.95 52.4103 142.777 52.4865C142.603 52.5627 142.45 52.6773 142.327 52.8215C142.063 53.1566 141.928 53.5754 141.947 54.0015V57.6915C141.947 57.8815 141.857 57.9815 141.667 57.9815H139.977C139.938 57.9864 139.898 57.9823 139.861 57.9694C139.823 57.9565 139.789 57.9353 139.761 57.9074C139.733 57.8794 139.712 57.8454 139.699 57.808C139.687 57.7706 139.682 57.7308 139.687 57.6915V54.0815C139.709 53.638 139.571 53.2015 139.297 52.8515C139.175 52.7046 139.022 52.5862 138.85 52.505C138.677 52.4238 138.488 52.3816 138.297 52.3815C138.093 52.3733 137.89 52.4083 137.7 52.4841C137.511 52.5599 137.339 52.6749 137.197 52.8215C136.911 53.1459 136.764 53.5697 136.787 54.0015V57.6915C136.792 57.7308 136.788 57.7706 136.775 57.808C136.762 57.8454 136.741 57.8794 136.713 57.9074C136.685 57.9353 136.651 57.9565 136.614 57.9694C136.576 57.9823 136.536 57.9864 136.497 57.9815H134.867C134.677 57.9815 134.587 57.8815 134.587 57.6915V52.9815C134.599 52.9013 134.592 52.8195 134.566 52.7425C134.541 52.6656 134.498 52.5957 134.44 52.5383C134.383 52.481 134.313 52.4379 134.236 52.4124C134.159 52.3869 134.077 52.3798 133.997 52.3915H133.667C133.447 52.3915 133.337 52.3115 133.337 52.1515V50.9715C133.332 50.8985 133.352 50.8259 133.394 50.7659C133.436 50.7058 133.497 50.662 133.567 50.6415C133.913 50.5158 134.279 50.4548 134.647 50.4615C135 50.4315 135.355 50.5019 135.67 50.6646C135.985 50.8274 136.247 51.076 136.427 51.3815C136.765 51.0618 137.164 50.815 137.601 50.6568C138.038 50.4985 138.503 50.432 138.967 50.4615C139.418 50.4396 139.867 50.5241 140.279 50.7082C140.691 50.8924 141.053 51.171 141.337 51.5215C141.668 51.1619 142.075 50.8802 142.528 50.6969C142.981 50.5135 143.469 50.4332 143.957 50.4615C144.394 50.4411 144.83 50.5114 145.238 50.6681C145.646 50.8247 146.017 51.0642 146.327 51.3715C146.631 51.692 146.867 52.0709 147.02 52.4852C147.173 52.8995 147.24 53.3405 147.217 53.7815V55.7115C147.217 56.0915 147.387 56.2815 147.707 56.2815C147.862 56.2888 148.017 56.2719 148.167 56.2315C148.374 56.2315 148.484 56.3115 148.497 56.4715L148.587 57.7215Z" fill="white"/>
<path d="M31.327 49.4015C32.0648 46.4362 33.7734 43.8029 36.1809 41.9211C38.5884 40.0392 41.5563 39.0168 44.612 39.0168C47.6677 39.0168 50.6356 40.0392 53.0431 41.9211C55.4506 43.8029 57.1592 46.4362 57.897 49.4015H56.697C54.6727 49.3717 52.6899 49.9767 51.027 51.1315C50.931 51.201 50.8308 51.2645 50.727 51.3215H50.587C50.4832 51.2645 50.383 51.201 50.287 51.1315C48.6094 50.0034 46.6336 49.4009 44.612 49.4009C42.5904 49.4009 40.6146 50.0034 38.937 51.1315C38.841 51.201 38.7408 51.2645 38.637 51.3215H38.497C38.3932 51.2645 38.293 51.201 38.197 51.1315C36.5341 49.9767 34.5513 49.3717 32.527 49.4015H31.327ZM54.537 55.6715C55.153 55.1918 55.9165 54.9408 56.697 54.9615H58.307V51.7515H56.697C55.3222 51.7349 53.9789 52.1628 52.867 52.9715C52.2413 53.4328 51.4844 53.6817 50.707 53.6817C49.9296 53.6817 49.1727 53.4328 48.547 52.9715C47.4069 52.1779 46.0511 51.7525 44.662 51.7525C43.2729 51.7525 41.9171 52.1779 40.777 52.9715C40.1513 53.4328 39.3944 53.6817 38.617 53.6817C37.8396 53.6817 37.0827 53.4328 36.457 52.9715C35.3314 52.1525 33.9688 51.724 32.577 51.7515H30.917V54.9615H32.527C33.3075 54.9408 34.071 55.1918 34.687 55.6715C35.825 56.4657 37.1793 56.8915 38.567 56.8915C39.9547 56.8915 41.309 56.4657 42.447 55.6715C43.0638 55.1933 43.8267 54.9425 44.607 54.9615C45.3877 54.9392 46.1518 55.1903 46.767 55.6715C47.9071 56.4652 49.2629 56.8906 50.652 56.8906C52.0411 56.8906 53.3969 56.4652 54.537 55.6715ZM54.537 61.4115C55.153 60.9318 55.9165 60.6808 56.697 60.7015H58.307V57.4915H56.697C55.3222 57.4749 53.9789 57.9028 52.867 58.7115C52.2413 59.1728 51.4844 59.4217 50.707 59.4217C49.9296 59.4217 49.1727 59.1728 48.547 58.7115C47.4069 57.9179 46.0511 57.4925 44.662 57.4925C43.2729 57.4925 41.9171 57.9179 40.777 58.7115C40.1513 59.1728 39.3944 59.4217 38.617 59.4217C37.8396 59.4217 37.0827 59.1728 36.457 58.7115C35.3314 57.8925 33.9688 57.464 32.577 57.4915H30.917V60.7015H32.527C33.3075 60.6808 34.071 60.9318 34.687 61.4115C35.825 62.2057 37.1793 62.6315 38.567 62.6315C39.9547 62.6315 41.309 62.2057 42.447 61.4115C43.0638 60.9333 43.8267 60.6825 44.607 60.7015C45.3877 60.6792 46.1518 60.9303 46.767 61.4115C47.9071 62.2052 49.2629 62.6306 50.652 62.6306C52.0411 62.6306 53.3969 62.2052 54.537 61.4115Z" fill="white"/>
</svg>
