<svg width="179" height="101" viewBox="0 0 179 101" fill="none" xmlns="http://www.w3.org/2000/svg">
<path d="M54.2399 46.5415C54.5999 46.5415 54.7199 46.6715 54.7199 47.0215V54.9415H58.7899C59.1399 54.9415 59.2699 55.0715 59.2699 55.4215V56.1215C59.2699 56.4715 59.1399 56.6015 58.7899 56.6015H53.4299C53.0799 56.6015 52.9399 56.4715 52.9399 56.1215V47.0215C52.9399 46.6715 53.0799 46.5415 53.4299 46.5415H54.2399Z" fill="white"/>
<path d="M62.8198 50.0315C62.8198 47.7215 64.2798 46.3315 66.8198 46.3315C69.3598 46.3315 70.8198 47.7215 70.8198 50.0315V53.1115C70.8198 55.4215 69.3498 56.8115 66.8198 56.8115C64.2898 56.8115 62.8198 55.4215 62.8198 53.1115V50.0315ZM69.1398 50.0315C69.1398 48.7315 68.3298 48.0315 66.8698 48.0315C65.4098 48.0315 64.6098 48.7415 64.6098 50.0315V53.1315C64.6098 54.4415 65.4098 55.1315 66.8698 55.1315C68.3298 55.1315 69.1398 54.4115 69.1398 53.1315V50.0315Z" fill="white"/>
<path d="M82.7299 51.0915C83.1199 51.0915 83.2099 51.2215 83.2099 51.5715V53.4715C83.2205 53.9191 83.1308 54.3633 82.9474 54.7717C82.764 55.18 82.4915 55.5422 82.1499 55.8315C81.3016 56.507 80.232 56.8422 79.1499 56.7715C76.5599 56.7715 75.1499 55.3815 75.1499 53.0715V49.9715C75.1499 47.6915 76.6099 46.2915 79.1499 46.2915C81.1499 46.2915 82.4499 47.0815 82.9999 48.6615C83.0307 48.7209 83.0472 48.7866 83.0481 48.8535C83.049 48.9203 83.0343 48.9865 83.0052 49.0467C82.9761 49.1069 82.9333 49.1594 82.8803 49.2002C82.8273 49.241 82.7655 49.2688 82.6999 49.2815L81.9199 49.5515C81.5799 49.6715 81.4399 49.6015 81.3199 49.2515C81.1543 48.8244 80.8509 48.4647 80.4579 48.2292C80.0649 47.9938 79.6047 47.8961 79.1499 47.9515C77.6799 47.9515 76.8799 48.6615 76.8799 49.9515V53.1315C76.8799 54.4415 77.6899 55.1315 79.1499 55.1315C80.6099 55.1315 81.5099 54.4615 81.5099 53.4815V52.7415H79.3399C78.9799 52.7415 78.8499 52.6015 78.8499 52.2515V51.5715C78.8499 51.2215 78.9799 51.0915 79.3399 51.0915H82.7299Z" fill="white"/>
<path d="M87.3398 50.0315C87.3398 47.7215 88.7998 46.3315 91.3398 46.3315C93.8798 46.3315 95.3398 47.7215 95.3398 50.0315V53.1115C95.3398 55.4215 93.8698 56.8115 91.3398 56.8115C88.8098 56.8115 87.3398 55.4215 87.3398 53.1115V50.0315ZM93.6498 50.0315C93.6498 48.7315 92.8398 48.0315 91.3898 48.0315C89.9398 48.0315 89.1198 48.7415 89.1198 50.0315V53.1315C89.1198 54.4415 89.9298 55.1315 91.3898 55.1315C92.8498 55.1315 93.6498 54.4115 93.6498 53.1315V50.0315Z" fill="white"/>
<path d="M100.05 46.8315C100.05 46.6115 100.12 46.5415 100.34 46.5415H100.8C101.02 46.5415 101.07 46.6115 101.07 46.8315V56.3115C101.07 56.5315 101.07 56.6015 100.8 56.6015H100.34C100.12 56.6015 100.05 56.5315 100.05 56.3115V46.8315Z" fill="white"/>
<path d="M110.18 46.5415C111.012 46.5415 111.811 46.8724 112.4 47.4612C112.989 48.0501 113.32 48.8488 113.32 49.6815C113.32 50.5143 112.989 51.313 112.4 51.9019C111.811 52.4907 111.012 52.8215 110.18 52.8215H107.18V56.3115C107.18 56.5315 107.13 56.6015 106.92 56.6015H106.45C106.24 56.6015 106.16 56.5315 106.16 56.3115V46.8315C106.16 46.6115 106.24 46.5415 106.45 46.5415H110.18ZM110.09 51.8315C110.376 51.8315 110.659 51.7751 110.924 51.6656C111.188 51.556 111.429 51.3955 111.631 51.193C111.834 50.9906 111.994 50.7503 112.104 50.4858C112.213 50.2213 112.27 49.9378 112.27 49.6515C112.27 49.3653 112.213 49.0818 112.104 48.8173C111.994 48.5528 111.834 48.3125 111.631 48.11C111.429 47.9076 111.188 47.747 110.924 47.6375C110.659 47.5279 110.376 47.4715 110.09 47.4715H107.09V51.8315H110.09Z" fill="white"/>
<path d="M121.13 46.3415C121.902 46.2563 122.681 46.4224 123.351 46.8152C124.021 47.2079 124.547 47.8063 124.85 48.5215C124.93 48.6815 124.85 48.8115 124.69 48.8915L124.25 49.0915C124.07 49.1615 124 49.1515 123.89 48.9615C123.663 48.4307 123.274 47.9857 122.778 47.6909C122.282 47.3961 121.705 47.2667 121.13 47.3215C119.44 47.3215 118.52 47.9915 118.52 49.1915C118.51 49.5583 118.633 49.9162 118.867 50.1992C119.1 50.4823 119.428 50.6713 119.79 50.7315C120.328 50.9069 120.886 51.0144 121.45 51.0515C122.133 51.088 122.807 51.2262 123.45 51.4615C123.943 51.6174 124.367 51.9381 124.651 52.3696C124.935 52.8012 125.062 53.3174 125.01 53.8315C125.01 55.7015 123.65 56.8315 121.15 56.8315C120.33 56.9253 119.503 56.7353 118.806 56.2932C118.109 55.851 117.584 55.1834 117.32 54.4015C117.302 54.3659 117.293 54.3268 117.292 54.287C117.291 54.2473 117.299 54.2078 117.316 54.1715C117.332 54.1352 117.356 54.1029 117.386 54.077C117.416 54.0511 117.452 54.0321 117.49 54.0215L117.93 53.8615C117.965 53.8474 118.002 53.8406 118.039 53.8416C118.077 53.8426 118.114 53.8514 118.147 53.8673C118.181 53.8833 118.211 53.9062 118.236 53.9344C118.261 53.9627 118.279 53.9958 118.29 54.0315C118.514 54.5965 118.912 55.0755 119.426 55.3991C119.94 55.7228 120.544 55.8742 121.15 55.8315C123.04 55.8315 123.97 55.1715 123.97 53.8315C123.988 53.4793 123.88 53.1322 123.665 52.8521C123.451 52.5719 123.145 52.3768 122.8 52.3015C122.283 52.1472 121.749 52.0532 121.21 52.0215L120.13 51.8815C119.792 51.8098 119.458 51.7197 119.13 51.6115C118.806 51.5136 118.504 51.354 118.24 51.1415C117.975 50.9013 117.766 50.6057 117.627 50.2756C117.489 49.9455 117.425 49.5891 117.44 49.2315C117.51 47.4815 118.82 46.3415 121.13 46.3415Z" fill="white"/>
<path d="M130.4 53.1815C130.442 53.8887 130.753 54.553 131.269 55.0387C131.784 55.5244 132.466 55.7949 133.175 55.7949C133.883 55.7949 134.565 55.5244 135.081 55.0387C135.596 54.553 135.907 53.8887 135.95 53.1815V46.8315C135.95 46.6115 136.02 46.5415 136.24 46.5415H136.7C136.92 46.5415 136.99 46.6115 136.99 46.8315V53.1715C136.99 55.4415 135.65 56.8115 133.18 56.8115C130.71 56.8115 129.37 55.4415 129.37 53.1715V46.8315C129.37 46.6115 129.44 46.5415 129.65 46.5415H130.12C130.33 46.5415 130.4 46.6115 130.4 46.8315V53.1815Z" fill="white"/>
<path d="M150.79 46.5416C151.01 46.5416 151.08 46.6116 151.08 46.8316V56.3116C151.08 56.5316 151.01 56.6016 150.79 56.6016H150.37C150.16 56.6016 150.09 56.5316 150.09 56.3116V50.5416C150.09 49.702 150.147 48.8634 150.26 48.0316H150.2C149.888 48.7923 149.523 49.5306 149.11 50.2416L146.96 54.0316C146.934 54.0973 146.888 54.1535 146.829 54.1928C146.77 54.2321 146.701 54.2526 146.63 54.2516H146.35C146.278 54.2519 146.208 54.2313 146.147 54.1922C146.087 54.1531 146.039 54.0973 146.01 54.0316L143.83 50.2016C143.443 49.5008 143.109 48.7721 142.83 48.0216H142.77C142.872 48.8611 142.926 49.7058 142.93 50.5516V56.3116C142.93 56.5316 142.86 56.6016 142.64 56.6016H142.25C142.03 56.6016 141.96 56.5316 141.96 56.3116V46.8316C141.96 46.6116 142.03 46.5416 142.25 46.5416H142.61C142.692 46.5339 142.775 46.5519 142.846 46.5931C142.918 46.6342 142.975 46.6966 143.01 46.7716L146.51 52.9916L149.99 46.8316C150.1 46.6216 150.16 46.5916 150.38 46.5916L150.79 46.5416Z" fill="white"/>
<path d="M36.4497 54.3816V61.6116C36.4497 61.8887 36.3396 62.1545 36.1437 62.3505C35.9477 62.5465 35.6819 62.6566 35.4047 62.6566C35.1276 62.6566 34.8618 62.5465 34.6658 62.3505C34.4698 62.1545 34.3597 61.8887 34.3597 61.6116V54.3916C34.6507 54.604 34.9996 54.7226 35.3597 54.7316C35.7524 54.7428 36.137 54.6193 36.4497 54.3816ZM45.3497 52.2916C45.0845 52.2916 44.8302 52.3969 44.6426 52.5844C44.4551 52.772 44.3497 53.0263 44.3497 53.2916V54.5516C44.3497 54.8287 44.4598 55.0945 44.6558 55.2905C44.8518 55.4865 45.1176 55.5966 45.3947 55.5966C45.6719 55.5966 45.9377 55.4865 46.1337 55.2905C46.3296 55.0945 46.4397 54.8287 46.4397 54.5516V53.3416C46.4475 53.1982 46.4243 53.0548 46.3717 52.9212C46.3191 52.7875 46.2384 52.6668 46.135 52.5672C46.0315 52.4675 45.9079 52.3914 45.7724 52.3438C45.6369 52.2962 45.4927 52.2784 45.3497 52.2916ZM32.0897 57.1216C31.7299 57.1108 31.3816 56.9923 31.0897 56.7816V64.0316C31.0897 64.31 31.2004 64.5771 31.3973 64.774C31.5942 64.9709 31.8612 65.0816 32.1397 65.0816C32.4182 65.0816 32.6853 64.9709 32.8822 64.774C33.0791 64.5771 33.1897 64.31 33.1897 64.0316V56.8316C32.8632 57.0426 32.4779 57.1442 32.0897 57.1216ZM42.0897 50.1216C41.9543 50.1148 41.8188 50.1356 41.6917 50.1828C41.5645 50.23 41.4483 50.3026 41.3501 50.3962C41.2519 50.4897 41.1737 50.6023 41.1203 50.727C41.067 50.8517 41.0396 50.9859 41.0397 51.1216V56.6916C41.0397 56.97 41.1504 57.2371 41.3473 57.434C41.5442 57.6309 41.8113 57.7416 42.0897 57.7416C42.3682 57.7416 42.6353 57.6309 42.8322 57.434C43.0291 57.2371 43.1397 56.97 43.1397 56.6916V51.1916C43.1477 51.0472 43.1243 50.9029 43.0711 50.7685C43.018 50.6341 42.9363 50.5128 42.8317 50.413C42.7272 50.3132 42.6022 50.2373 42.4655 50.1904C42.3288 50.1436 42.1835 50.1269 42.0397 50.1416L42.0897 50.1216ZM38.7697 52.2616C38.3931 52.259 38.0264 52.1402 37.7197 51.9216V59.1916C37.7197 59.47 37.8304 59.7371 38.0273 59.934C38.2242 60.1309 38.4912 60.2416 38.7697 60.2416C39.0482 60.2416 39.3153 60.1309 39.5122 59.934C39.7091 59.7371 39.8197 59.47 39.8197 59.1916V51.9316C39.5025 52.1679 39.1152 52.2911 38.7197 52.2816L38.7697 52.2616ZM29.8197 57.8316V37.5216C29.8171 37.274 29.7169 37.0375 29.5409 36.8633C29.3649 36.6892 29.1273 36.5915 28.8797 36.5916H28.6597C28.4121 36.5915 28.1746 36.6892 27.9986 36.8633C27.8226 37.0375 27.7224 37.274 27.7197 37.5216V57.8316C27.7197 58.0809 27.8188 58.32 27.995 58.4962C28.1713 58.6725 28.4104 58.7716 28.6597 58.7716H28.8797C29.129 58.7716 29.3681 58.6725 29.5444 58.4962C29.7207 58.32 29.8197 58.0809 29.8197 57.8316ZM32.1997 56.3516H31.9797C31.7304 56.3516 31.4913 56.2525 31.315 56.0762C31.1388 55.8999 31.0397 55.6609 31.0397 55.4116V39.9416C31.0424 39.694 31.1426 39.4575 31.3186 39.2833C31.4946 39.1092 31.7321 39.0115 31.9797 39.0116H32.1997C32.4473 39.0115 32.6849 39.1092 32.8609 39.2833C33.0369 39.4575 33.1371 39.694 33.1397 39.9416V55.4316C33.1397 55.6809 33.0407 55.9199 32.8644 56.0962C32.6881 56.2725 32.449 56.3716 32.1997 56.3716V56.3516ZM35.5097 53.9716H35.2797C35.0331 53.9716 34.7965 53.8736 34.6221 53.6992C34.4477 53.5248 34.3497 53.2882 34.3497 53.0416V42.3416C34.3484 42.2186 34.3715 42.0966 34.4176 41.9826C34.4638 41.8686 34.5321 41.7649 34.6186 41.6775C34.705 41.5901 34.808 41.5207 34.9215 41.4733C35.035 41.4259 35.1568 41.4015 35.2797 41.4016H35.5097C35.7573 41.4042 35.9938 41.5044 36.168 41.6804C36.3421 41.8564 36.4397 42.094 36.4397 42.3416V53.0416C36.4397 53.2882 36.3417 53.5248 36.1673 53.6992C35.9929 53.8736 35.7564 53.9716 35.5097 53.9716ZM38.8197 51.5216H38.6097C38.3621 51.5216 38.1246 51.4239 37.9486 51.2498C37.7726 51.0757 37.6724 50.8391 37.6697 50.5916V44.8316C37.6615 44.7032 37.6797 44.5744 37.7233 44.4534C37.7668 44.3323 37.8348 44.2215 37.9229 44.1277C38.011 44.034 38.1174 43.9593 38.2356 43.9084C38.3537 43.8574 38.4811 43.8313 38.6097 43.8316H38.8297C39.079 43.8316 39.3181 43.9306 39.4944 44.1069C39.6707 44.2832 39.7697 44.5222 39.7697 44.7716V50.5716C39.771 50.6958 39.7477 50.8191 39.7011 50.9343C39.6544 51.0496 39.5854 51.1544 39.498 51.2427C39.4105 51.3311 39.3065 51.4012 39.1918 51.4491C39.0771 51.4969 38.954 51.5216 38.8297 51.5216H38.8197ZM42.1397 49.3716H41.9197C41.6704 49.3716 41.4313 49.2725 41.255 49.0962C41.0788 48.9199 40.9797 48.6809 40.9797 48.4316V46.9416C40.9824 46.694 41.0826 46.4575 41.2586 46.2833C41.4346 46.1092 41.6721 46.0115 41.9197 46.0116H42.1397C42.3873 46.0115 42.6249 46.1092 42.8009 46.2833C42.9769 46.4575 43.0771 46.694 43.0797 46.9416V48.4316C43.0797 48.6791 42.9821 48.9167 42.808 49.0927C42.6338 49.2687 42.3973 49.3689 42.1497 49.3716H42.1397Z" fill="white"/>
</svg>
