<svg width="179" height="101" viewBox="0 0 179 101" fill="none" xmlns="http://www.w3.org/2000/svg">
<path d="M42.1026 49.2026C41.7236 49.5838 41.4334 50.044 41.2526 50.5503C41.0718 51.0566 41.0049 51.5965 41.0566 52.1316L41.0386 52.1136C41.0918 52.7434 41.0069 53.3773 40.7898 53.9709C40.5727 54.5646 40.2286 55.1037 39.7817 55.5506C39.3347 55.9976 38.7956 56.3416 38.202 56.5587C37.6083 56.7758 36.9745 56.8607 36.3446 56.8076L36.3626 56.8256C35.6092 56.7554 34.8525 56.9194 34.1956 57.2951C33.5388 57.6708 33.0139 58.2399 32.6923 58.9249C32.3708 59.6098 32.2683 60.3773 32.399 61.1226C32.5296 61.8679 32.8869 62.5548 33.4222 63.0896C33.9575 63.6245 34.6447 63.9811 35.3901 64.1111C36.1356 64.241 36.903 64.1379 37.5876 63.8158C38.2723 63.4936 38.841 62.9681 39.2161 62.3109C39.5911 61.6538 39.7544 60.8969 39.6836 60.1436L39.7026 60.1616C39.6494 59.5317 39.7344 58.8978 39.9515 58.3042C40.1686 57.7106 40.5126 57.1714 40.9595 56.7245C41.4065 56.2775 41.9456 55.9335 42.5393 55.7164C43.1329 55.4993 43.7668 55.4144 44.3966 55.4676L44.3776 55.4496C44.9931 55.5049 45.6125 55.404 46.1786 55.1562C46.7447 54.9084 47.239 54.5217 47.6158 54.032C47.9927 53.5422 48.2398 52.9653 48.3343 52.3546C48.4287 51.744 48.3675 51.1193 48.1563 50.5386C47.9451 49.9579 47.5908 49.4399 47.1261 49.0326C46.6613 48.6253 46.1013 48.3419 45.4979 48.2087C44.8945 48.0754 44.2673 48.0967 43.6743 48.2704C43.0813 48.4441 42.5417 48.7648 42.1056 49.2026H42.1026Z" fill="white"/>
<path d="M34.7257 54.4675L34.7067 54.4495C35.2421 54.5035 35.7827 54.4378 36.2895 54.2572C36.7963 54.0766 37.2567 53.7856 37.6373 53.4053C38.0179 53.025 38.3092 52.5649 38.4902 52.0582C38.6712 51.5515 38.7373 51.0109 38.6837 50.4755L38.7027 50.4935C38.6496 49.8637 38.7345 49.2298 38.9516 48.6362C39.1687 48.0425 39.5127 47.5034 39.9597 47.0565C40.4066 46.6095 40.9457 46.2655 41.5394 46.0484C42.133 45.8313 42.7669 45.7464 43.3967 45.7995L43.3777 45.7815C44.1312 45.8523 44.8882 45.6889 45.5454 45.3136C46.2026 44.9384 46.728 44.3695 47.0501 43.6846C47.3721 42.9998 47.475 42.2322 47.3448 41.4867C47.2145 40.7412 46.8575 40.0541 46.3224 39.5189C45.7872 38.9838 45.1 38.6267 44.3545 38.4965C43.609 38.3663 42.8415 38.4692 42.1566 38.7912C41.4718 39.1132 40.9029 39.6387 40.5276 40.2959C40.1524 40.9531 39.989 41.7101 40.0597 42.4635L40.0417 42.4445C40.0951 43.0744 40.0103 43.7084 39.7933 44.3021C39.5762 44.8958 39.2322 45.435 38.7852 45.882C38.3382 46.329 37.799 46.673 37.2053 46.89C36.6116 47.1071 35.9776 47.1919 35.3477 47.1385L35.3657 47.1575C34.8304 47.1036 34.2898 47.1693 33.783 47.3499C33.2761 47.5305 32.8158 47.8215 32.4352 48.2018C32.0546 48.5821 31.7633 49.0422 31.5823 49.5489C31.4013 50.0556 31.3352 50.5962 31.3887 51.1315L31.3707 51.1135C31.4237 51.7434 31.3387 52.3771 31.1215 52.9707C30.9044 53.5643 30.5603 54.1033 30.1134 54.5502C29.6665 54.9971 29.1275 55.3412 28.5339 55.5583C27.9403 55.7755 27.3066 55.8605 26.6767 55.8075L26.6947 55.8255C25.9413 55.7548 25.1843 55.9182 24.5271 56.2934C23.8699 56.6687 23.3444 57.2376 23.0224 57.9224C22.7004 58.6073 22.5975 59.3748 22.7277 60.1203C22.8579 60.8658 23.215 61.553 23.7501 62.0882C24.2853 62.6233 24.9724 62.9803 25.7179 63.1106C26.4635 63.2408 27.231 63.1379 27.9159 62.8159C28.6007 62.4938 29.1696 61.9684 29.5448 61.3112C29.9201 60.654 30.0835 59.897 30.0127 59.1435L30.0317 59.1615C29.9786 58.5317 30.0635 57.8978 30.2806 57.3042C30.4977 56.7105 30.8417 56.1714 31.2887 55.7245C31.7356 55.2775 32.2747 54.9335 32.8684 54.7164C33.462 54.4993 34.0959 54.4144 34.7257 54.4675Z" fill="white"/>
<path d="M28.0238 52.4605C28.4028 52.0793 28.693 51.6191 28.8737 51.1128C29.0543 50.6065 29.1209 50.0666 29.0688 49.5315L29.0878 49.5495C29.0346 48.9195 29.1196 48.2855 29.3368 47.6917C29.554 47.0979 29.8982 46.5586 30.3454 46.1117C30.7926 45.6647 31.3319 45.3207 31.9258 45.1037C32.5197 44.8868 33.1538 44.8021 33.7838 44.8555L33.7648 44.8375C34.518 44.9081 35.2747 44.7446 35.9316 44.3694C36.5885 43.9942 37.1137 43.4254 37.4355 42.7408C37.7573 42.0561 37.8601 41.2889 37.7299 40.5436C37.5997 39.7984 37.2427 39.1115 36.7078 38.5765C36.1729 38.0416 35.4859 37.6847 34.7407 37.5545C33.9955 37.4242 33.2282 37.527 32.5436 37.8489C31.8589 38.1707 31.2902 38.6959 30.915 39.3528C30.5397 40.0097 30.3762 40.7663 30.4468 41.5195L30.4288 41.5015C30.482 42.1314 30.397 42.7653 30.1799 43.3589C29.9629 43.9525 29.6188 44.4917 29.1719 44.9386C28.7249 45.3856 28.1858 45.7296 27.5922 45.9467C26.9985 46.1638 26.3647 46.2487 25.7348 46.1955L25.7528 46.2135C25.1374 46.1584 24.518 46.2594 23.952 46.5073C23.386 46.7552 22.8918 47.142 22.5151 47.6318C22.1383 48.1216 21.8914 48.6985 21.797 49.3092C21.7026 49.9198 21.7639 50.5444 21.9752 51.1251C22.1864 51.7057 22.5409 52.2237 23.0056 52.6309C23.4703 53.0381 24.0303 53.3214 24.6337 53.4546C25.2371 53.5878 25.8643 53.5665 26.4573 53.3927C27.0502 53.219 27.5897 52.8983 28.0258 52.4605H28.0238Z" fill="white"/>
<path d="M59.0005 42.4865H61.9705V56.9395H59.0005V42.4865Z" fill="white"/>
<path d="M63.6525 51.9905C63.6483 50.9519 63.9525 49.9354 64.5265 49.0698C65.1006 48.2041 65.9186 47.5283 66.8769 47.128C67.8353 46.7276 68.891 46.6207 69.9102 46.8208C70.9294 47.0209 71.8663 47.519 72.6022 48.2519C73.3381 48.9849 73.8399 49.9198 74.0441 50.9381C74.2482 51.9565 74.1456 53.0126 73.7491 53.9726C73.3526 54.9326 72.68 55.7533 71.8167 56.3308C70.9534 56.9083 69.9381 57.2165 68.8995 57.2165C68.21 57.2244 67.5259 57.0947 66.8872 56.8352C66.2484 56.5756 65.6678 56.1913 65.1792 55.7047C64.6907 55.2181 64.3041 54.639 64.0419 54.0013C63.7798 53.3636 63.6474 52.68 63.6525 51.9905ZM71.1765 51.9905C71.1641 51.5428 71.02 51.1087 70.7622 50.7425C70.5045 50.3762 70.1445 50.0941 69.7272 49.9313C69.31 49.7685 68.854 49.7324 68.4163 49.8273C67.9787 49.9223 67.5787 50.1442 67.2664 50.4652C66.9541 50.7863 66.7434 51.1922 66.6606 51.6324C66.5778 52.0725 66.6266 52.5273 66.8009 52.9399C66.9751 53.3525 67.2672 53.7045 67.6404 53.9521C68.0137 54.1996 68.4516 54.3316 68.8995 54.3315C69.2062 54.3397 69.5113 54.2843 69.7955 54.1687C70.0797 54.0531 70.3369 53.8798 70.5509 53.6599C70.7648 53.4399 70.9308 53.1781 71.0385 52.8907C71.1462 52.6034 71.1932 52.2969 71.1765 51.9905Z" fill="white"/>
<path d="M85.9835 47.0405V56.4405C85.9835 59.7666 83.3895 61.1725 80.7565 61.1725C79.8295 61.2419 78.9012 61.0547 78.0735 60.6313C77.2459 60.208 76.5508 59.5649 76.0645 58.7726L78.5985 57.3076C78.8029 57.7206 79.1286 58.0613 79.5319 58.2841C79.9353 58.507 80.3971 58.6013 80.8555 58.5545C81.1485 58.5951 81.4469 58.5693 81.7286 58.4791C82.0102 58.3888 82.268 58.2363 82.4828 58.0329C82.6976 57.8296 82.8639 57.5805 82.9695 57.3042C83.075 57.0278 83.1171 56.7313 83.0925 56.4365V55.5315C82.7447 55.9571 82.3021 56.2952 81.8 56.5187C81.2979 56.7422 80.7505 56.8449 80.2015 56.8185C78.8953 56.7774 77.6564 56.2295 76.747 55.291C75.8376 54.3525 75.3291 53.0969 75.3291 51.79C75.3291 50.4832 75.8376 49.2276 76.747 48.2891C77.6564 47.3506 78.8953 46.8027 80.2015 46.7615C80.7505 46.7352 81.2979 46.8379 81.8 47.0614C82.3021 47.2849 82.7447 47.623 83.0925 48.0485V47.0385L85.9835 47.0405ZM83.0935 51.7915C83.1135 51.3129 82.9897 50.8392 82.7382 50.4315C82.4867 50.0238 82.1189 49.7007 81.6822 49.5037C81.2455 49.3068 80.7599 49.2451 80.2878 49.3265C79.8157 49.4079 79.3788 49.6287 79.0332 49.9605C78.6877 50.2923 78.4494 50.72 78.3489 51.1884C78.2485 51.6568 78.2905 52.1445 78.4697 52.5889C78.6488 53.0332 78.9568 53.4137 79.354 53.6815C79.7512 53.9493 80.2195 54.0921 80.6985 54.0915C81.0106 54.1133 81.3237 54.0695 81.6178 53.9629C81.9119 53.8563 82.1804 53.6893 82.406 53.4726C82.6316 53.256 82.8094 52.9944 82.9278 52.7049C83.0462 52.4154 83.1027 52.1042 83.0935 51.7915Z" fill="white"/>
<path d="M87.6657 51.9905C87.6615 50.9519 87.9657 49.9354 88.5397 49.0698C89.1137 48.2041 89.9317 47.5283 90.8901 47.128C91.8485 46.7276 92.9042 46.6207 93.9234 46.8208C94.9426 47.0209 95.8795 47.519 96.6154 48.2519C97.3513 48.9849 97.8531 49.9198 98.0573 50.9381C98.2614 51.9565 98.1588 53.0126 97.7622 53.9726C97.3657 54.9326 96.6932 55.7533 95.8299 56.3308C94.9666 56.9083 93.9513 57.2165 92.9127 57.2165C92.2232 57.2244 91.5391 57.0947 90.9003 56.8352C90.2616 56.5756 89.6809 56.1913 89.1924 55.7047C88.7039 55.2181 88.3173 54.639 88.0551 54.0013C87.793 53.3636 87.6606 52.68 87.6657 51.9905ZM95.1897 51.9905C95.1773 51.5428 95.0332 51.1087 94.7754 50.7425C94.5177 50.3762 94.1577 50.0941 93.7404 49.9313C93.3232 49.7685 92.8672 49.7324 92.4295 49.8273C91.9918 49.9223 91.5919 50.1442 91.2796 50.4652C90.9673 50.7863 90.7566 51.1922 90.6738 51.6324C90.591 52.0725 90.6398 52.5273 90.8141 52.9399C90.9883 53.3525 91.2803 53.7045 91.6536 53.9521C92.0269 54.1996 92.4648 54.3316 92.9127 54.3315C93.2194 54.3397 93.5245 54.2843 93.8087 54.1687C94.0929 54.0531 94.3501 53.8798 94.5641 53.6599C94.778 53.4399 94.944 53.1781 95.0517 52.8907C95.1594 52.6034 95.2064 52.2969 95.1897 51.9905Z" fill="white"/>
<path d="M99.5444 44.3875C99.5444 44.0351 99.6489 43.6906 99.8448 43.3975C100.041 43.1045 100.319 42.8761 100.644 42.7412C100.97 42.6063 101.328 42.571 101.674 42.6398C102.02 42.7085 102.337 42.8783 102.586 43.1275C102.836 43.3767 103.005 43.6942 103.074 44.0399C103.143 44.3856 103.108 44.7439 102.973 45.0695C102.838 45.3951 102.61 45.6734 102.316 45.8692C102.023 46.065 101.679 46.1695 101.326 46.1695C100.855 46.1648 100.405 45.9756 100.072 45.6424C99.7384 45.3092 99.5491 44.8587 99.5444 44.3875ZM99.8444 47.0405H102.815V56.9405H99.8404L99.8444 47.0405Z" fill="white"/>
<path d="M115.64 51.9905C115.674 52.6448 115.579 53.2994 115.359 53.9167C115.14 54.534 114.8 55.1018 114.36 55.5875C113.921 56.0732 113.389 56.4671 112.797 56.7467C112.204 57.0263 111.562 57.1859 110.908 57.2165C110.357 57.2466 109.807 57.1538 109.297 56.9448C108.787 56.7359 108.33 56.4161 107.959 56.0085V60.8995H104.989V47.0405H107.959V47.9705C108.33 47.5633 108.787 47.2438 109.297 47.035C109.807 46.8263 110.357 46.7335 110.908 46.7635C111.562 46.794 112.204 46.9536 112.797 47.2332C113.39 47.5128 113.921 47.9068 114.361 48.3926C114.801 48.8784 115.14 49.4464 115.36 50.0639C115.579 50.6814 115.674 51.3362 115.64 51.9905ZM112.67 51.9905C112.658 51.5272 112.51 51.0776 112.244 50.698C111.978 50.3184 111.606 50.0256 111.175 49.8563C110.744 49.687 110.272 49.6488 109.819 49.7463C109.366 49.8439 108.951 50.0729 108.628 50.4047C108.304 50.7365 108.086 51.1564 108 51.6118C107.913 52.0672 107.964 52.5379 108.144 52.9649C108.324 53.392 108.626 53.7565 109.012 54.0127C109.398 54.2689 109.851 54.4056 110.315 54.4055C110.633 54.4197 110.951 54.3664 111.247 54.2493C111.543 54.1321 111.811 53.9536 112.033 53.7256C112.256 53.4976 112.427 53.2251 112.537 52.9261C112.647 52.6271 112.692 52.3083 112.67 51.9905Z" fill="white"/>
<path d="M124.805 53.9696C124.805 56.2466 122.826 57.2165 120.688 57.2165C119.824 57.2948 118.956 57.1121 118.197 56.6921C117.439 56.2721 116.823 55.6341 116.431 54.8605L119.004 53.3955C119.108 53.7531 119.331 54.0641 119.637 54.2767C119.943 54.4893 120.312 54.5905 120.684 54.5635C121.396 54.5635 121.753 54.3455 121.753 53.9505C121.753 52.8605 116.882 53.4356 116.882 50.0106C116.882 47.8516 118.704 46.7635 120.763 46.7635C121.537 46.7391 122.303 46.9226 122.982 47.2952C123.661 47.6677 124.228 48.2155 124.623 48.8815L122.089 50.2476C121.978 49.9882 121.793 49.7674 121.557 49.6125C121.321 49.4576 121.045 49.3755 120.763 49.3765C120.248 49.3765 119.931 49.5765 119.931 49.9305C119.935 51.0595 124.805 50.3066 124.805 53.9696Z" fill="white"/>
<path d="M135.654 47.0405V56.9405H132.684V56.0095C132.341 56.4203 131.906 56.744 131.414 56.954C130.922 57.164 130.387 57.2543 129.854 57.2175C127.854 57.2175 126.154 55.7925 126.154 53.1175V47.0405H129.124V52.6825C129.099 52.9183 129.126 53.1567 129.202 53.381C129.279 53.6054 129.404 53.8104 129.568 53.9817C129.731 54.153 129.931 54.2866 130.151 54.3731C130.372 54.4596 130.609 54.4969 130.846 54.4825C131.935 54.4825 132.687 53.8495 132.687 52.4435V47.0435L135.654 47.0405Z" fill="white"/>
<path d="M152.683 50.8616V56.9396H149.713V51.1186C149.713 50.1286 149.238 49.4956 148.288 49.4956C147.298 49.4956 146.743 50.1886 146.743 51.3566V56.9396H143.774V51.1186C143.774 50.1286 143.299 49.4956 142.348 49.4956C141.358 49.4956 140.804 50.1886 140.804 51.3566V56.9396H137.834V47.0396H140.804V47.9496C141.112 47.5458 141.516 47.2257 141.98 47.0183C142.443 46.811 142.951 46.7231 143.457 46.7626C143.966 46.7377 144.472 46.8449 144.926 47.0738C145.381 47.3027 145.768 47.6454 146.05 48.0686C146.38 47.6259 146.816 47.2739 147.318 47.0455C147.82 46.8171 148.372 46.7197 148.921 46.7626C151.194 46.7636 152.683 48.3866 152.683 50.8616Z" fill="white"/>
<path d="M155.196 46.9795C156.413 46.9795 157.4 45.9928 157.4 44.7755C157.4 43.5583 156.413 42.5715 155.196 42.5715C153.978 42.5715 152.992 43.5583 152.992 44.7755C152.992 45.9928 153.978 46.9795 155.196 46.9795Z" fill="white"/>
</svg>
