<svg width="179" height="101" viewBox="0 0 179 101" fill="none" xmlns="http://www.w3.org/2000/svg">
<path d="M11.1104 30.8785V66.3315H169.688V30.8785H11.1104ZM167.688 64.3315H86.6883V32.8785H167.688V64.3315Z" fill="white"/>
<path d="M19.5396 54.5445V42.7575H23.6075V51.4055H30.7836V54.5445H19.5396Z" fill="black"/>
<path d="M46.8215 48.5686C46.8215 52.3216 44.4795 54.7246 38.9085 54.7246C33.8485 54.7246 30.9805 52.6525 30.9805 48.5686C30.9805 44.9496 33.7145 42.4875 38.9085 42.4875C44.1835 42.4875 46.8215 44.7546 46.8215 48.5686ZM42.7375 48.6136C42.7375 46.9136 42.0315 45.5506 38.8935 45.5506C36.0255 45.5506 35.0935 46.7666 35.0935 48.6136C35.0935 50.4906 35.9485 51.7066 38.9065 51.7066C41.8835 51.7066 42.7375 50.4156 42.7375 48.6136Z" fill="black"/>
<path d="M59.4054 54.5445L59.3004 53.4025C57.9396 54.3738 56.2832 54.8412 54.6154 54.7245C52.1084 54.7245 50.0204 53.9735 48.8494 52.4575C48.0771 51.3508 47.687 50.0222 47.7384 48.6735C47.6945 47.3532 48.098 46.0568 48.8834 44.9945C50.0684 43.5235 52.2164 42.5475 55.4144 42.5475C59.0934 42.5475 61.2554 43.6735 62.1854 45.5655C62.3851 46.0111 62.5023 46.4892 62.5314 46.9765H58.6394C58.5413 46.6804 58.3589 46.4193 58.1144 46.2255C57.3391 45.7116 56.4134 45.4738 55.4864 45.5505C54.9427 45.4846 54.3912 45.5349 53.8683 45.698C53.3455 45.861 52.8632 46.1332 52.4534 46.4965C51.988 47.1335 51.7695 47.9177 51.8384 48.7035C51.7845 49.4533 51.9853 50.1992 52.4084 50.8205C52.822 51.2058 53.3135 51.4977 53.8498 51.6764C54.386 51.8552 54.9544 51.9166 55.5164 51.8565C56.6328 51.9473 57.741 51.603 58.6094 50.8955C58.796 50.6623 58.9245 50.3881 58.9844 50.0955H54.7964V47.5625H62.6334V54.5445H59.4054Z" fill="black"/>
<path d="M79.6154 48.5686C79.6154 52.3216 77.2724 54.7246 71.7024 54.7246C66.6424 54.7246 63.7744 52.6525 63.7744 48.5686C63.7744 44.9496 66.5084 42.4875 71.7024 42.4875C76.9734 42.4875 79.6154 44.7546 79.6154 48.5686ZM75.5314 48.6136C75.5314 46.9136 74.8254 45.5506 71.6874 45.5506C68.8194 45.5506 67.8874 46.7666 67.8874 48.6136C67.8874 50.4906 68.7434 51.7066 71.7004 51.7066C74.6764 51.7066 75.5314 50.4156 75.5314 48.6136Z" fill="black"/>
<path d="M93.5405 54.4996V42.7126H96.4405V54.4996H93.5405Z" fill="white"/>
<path d="M111.333 49.5745C110.598 50.5355 109.333 50.9745 107.55 50.9855C107.174 50.9855 102.189 50.9705 102.189 50.9705V54.4995H99.3506V42.7125H107.551C108.208 42.643 108.872 42.7127 109.501 42.9171C110.129 43.1214 110.708 43.4558 111.199 43.8985C111.846 44.7427 112.161 45.7953 112.085 46.8565C112.151 47.8217 111.885 48.7806 111.333 49.5745ZM109.006 45.7315C108.706 45.2815 108.059 45.0315 106.964 45.0315H102.174V48.6195H106.933C108.104 48.6195 108.721 48.3795 109.006 47.9135C109.175 47.5852 109.248 47.2156 109.216 46.8475C109.241 46.4638 109.169 46.0799 109.006 45.7315Z" fill="white"/>
<path d="M120.448 54.6795C115.102 54.6795 113.466 52.6795 113.466 50.7005H116.499C116.499 51.6765 117.835 52.4125 120.583 52.4125C123.315 52.4125 124.036 51.9315 124.036 51.1505C124.036 50.2795 123.496 50.0095 120.958 49.7245C120.458 49.6795 119.097 49.5145 118.586 49.4395C114.986 49.0335 113.6 47.9675 113.6 46.0605C113.6 44.0485 115.628 42.5325 120.027 42.5325C124.802 42.5325 126.634 44.4095 126.634 46.3615H123.634C123.634 45.3705 122.508 44.7995 119.85 44.7995C117.117 44.7995 116.532 45.1745 116.532 45.9105C116.532 46.6765 117.132 46.9165 120.032 47.2615C120.693 47.3525 122.164 47.5175 122.569 47.5615C125.633 47.8765 127.014 48.9875 127.014 50.9545C127.009 53.2975 124.907 54.6795 120.448 54.6795Z" fill="white"/>
<path d="M135.554 54.6646C131.636 54.6646 129.083 53.1176 129.083 49.8646V42.7126H131.95V49.9046C131.95 51.3916 133.167 52.3816 135.674 52.3816C137.941 52.3816 139.293 51.4516 139.293 49.9046V42.7126H142.131V50.1316C142.131 53.0886 139.758 54.6646 135.554 54.6646Z" fill="white"/>
<path d="M157.671 54.4996V46.6316L153.992 54.4996H151.2L147.626 46.6316V54.4996H144.926V42.7126H148.584L152.638 51.6916L156.782 42.7126H160.382V54.4996H157.671Z" fill="white"/>
</svg>
