<svg width="179" height="101" viewBox="0 0 179 101" fill="none" xmlns="http://www.w3.org/2000/svg">
<path d="M89.5621 56.2055H84.4421V42.5175H89.5621V56.2055ZM84.9421 55.7055H89.0621V43.0175H84.9421V55.7055ZM96.6861 56.2055H91.6691V42.5175H102.151C103.653 42.3959 105.148 42.8175 106.365 43.7055C106.889 44.1848 107.295 44.7787 107.552 45.4408C107.808 46.1029 107.908 46.8154 107.844 47.5225C107.919 48.7445 107.53 49.9497 106.755 50.8975C105.838 51.9495 104.312 52.4915 102.22 52.5105C101.693 52.5245 97.7441 52.5105 96.6891 52.5105L96.6861 56.2055ZM92.1661 55.7055H96.1861V52.0055H96.4371C96.4881 52.0055 101.615 52.0215 102.208 52.0055C104.157 51.9885 105.558 51.5055 106.377 50.5625C107.067 49.705 107.41 48.6197 107.337 47.5215C107.399 46.8879 107.313 46.2486 107.088 45.6533C106.862 45.0579 106.503 44.5225 106.037 44.0885C104.909 43.2786 103.528 42.8985 102.144 43.0165H92.1691L92.1661 55.7055ZM101.089 49.4355H96.1521V45.7095H101.122C101.474 45.6608 101.833 45.702 102.165 45.8291C102.498 45.9562 102.792 46.1651 103.022 46.4365C103.231 46.7835 103.329 47.1855 103.304 47.5895C103.323 47.9646 103.242 48.338 103.069 48.6715C102.832 48.9574 102.525 49.1775 102.179 49.3106C101.832 49.4437 101.457 49.4853 101.089 49.4315V49.4355ZM96.6521 48.9355H101.089C101.909 48.9355 102.417 48.7645 102.642 48.4125C102.766 48.1567 102.822 47.8733 102.805 47.5895C102.827 47.2916 102.762 46.9937 102.619 46.7315L102.613 46.7225C102.375 46.3725 101.902 46.2095 101.122 46.2095H96.6521V48.9355ZM116.969 56.4075C112.479 56.4075 109.799 55.2925 108.778 52.9995C108.611 52.5566 108.498 52.0954 108.44 51.6255L108.396 51.3375H113.738L113.773 51.5475C113.814 51.7608 113.905 51.9614 114.037 52.1335C114.248 52.3885 114.952 52.8165 117.288 52.8165C120.096 52.8165 120.096 52.3235 120.096 52.0585C120.096 51.6115 119.771 51.4585 117.481 51.2145L117.046 51.1735C116.184 51.0925 115.094 50.9895 114.596 50.9465C110.396 50.5665 108.521 49.2615 108.521 46.7165C108.521 44.0435 111.712 42.3165 116.651 42.3165C120.68 42.3165 123.276 43.3785 124.365 45.4755C124.624 45.9633 124.797 46.4915 124.878 47.0375L124.913 47.3185H119.565L119.543 47.0925C119.522 46.9159 119.447 46.7502 119.327 46.6185C119.127 46.3505 118.495 45.9075 116.533 45.9075C114.124 45.9075 113.792 46.2155 113.792 46.5475C113.792 46.9905 114.553 47.1475 116.992 47.4085C118.009 47.4915 119.644 47.6595 120.204 47.7275C123.725 48.1095 125.296 49.3825 125.296 51.8565C125.297 53.9315 123.852 56.4075 116.969 56.4075ZM108.98 51.8375C109.03 52.1673 109.116 52.4906 109.237 52.8015C110.167 54.8905 112.697 55.9075 116.969 55.9075C120.541 55.9075 124.8 55.2075 124.8 51.8565C124.8 49.6635 123.41 48.5775 120.151 48.2245C119.591 48.1565 117.966 47.9895 116.951 47.9055C114.351 47.6235 113.294 47.4735 113.294 46.5475C113.294 45.5895 114.433 45.4075 116.535 45.4075C118.196 45.4075 119.269 45.7075 119.724 46.3125C119.848 46.4616 119.942 46.6335 120 46.8185H124.334C124.247 46.4318 124.109 46.0582 123.924 45.7075C122.924 43.7885 120.481 42.8165 116.653 42.8165C112.018 42.8165 109.023 44.3475 109.023 46.7165C109.023 48.9765 110.704 50.0925 114.642 50.4485C115.142 50.4915 116.231 50.5945 117.095 50.6765L117.533 50.7175C119.66 50.9415 120.598 51.0815 120.598 52.0585C120.598 53.1105 119.385 53.3165 117.29 53.3165C115.352 53.3165 114.128 53.0255 113.655 52.4525C113.509 52.2698 113.399 52.0611 113.331 51.8375H108.98ZM134.796 56.3905C129.576 56.3905 126.696 54.2795 126.696 50.4455V42.5175H131.748V50.4455C131.748 51.7605 132.925 52.5145 134.976 52.5145C136.936 52.5145 138.153 51.7275 138.153 50.4625V42.5175H143.153V50.8655C143.158 54.3765 140.109 56.3905 134.793 56.3905H134.796ZM127.196 43.0175V50.4455C127.196 55.1835 131.954 55.8905 134.796 55.8905C137.734 55.8905 142.661 55.2375 142.661 50.8655V43.0175H138.661V50.4625C138.661 52.0125 137.217 53.0145 134.984 53.0145C132.65 53.0145 131.256 52.0545 131.256 50.4455V43.0175H127.196ZM164.341 56.2055H159.573V50.0255L156.869 56.2055H152.71L150.034 50.0375V56.2055H145.249V42.5175H151.543L154.813 50.0645L158.241 42.5175H164.347L164.341 56.2055ZM160.073 55.7055H163.841V43.0175H158.559L154.797 51.2965L151.211 43.0175H145.745V55.7055H149.53V47.6315L153.03 55.7085H156.53L160.067 47.6435L160.073 55.7055ZM19.9231 42.7675H15.3691V55.9555H27.9531V52.4445H19.9231V42.7675ZM37.1451 42.4675C31.3321 42.4675 28.2751 45.2225 28.2751 49.2675C28.2751 53.8375 31.4841 56.1555 37.1451 56.1555C43.3771 56.1555 45.9981 53.4675 45.9981 49.2675C45.9981 45.0025 43.0411 42.4655 37.1451 42.4655V42.4675ZM37.1281 45.8945C37.5239 45.8927 37.9193 45.9157 38.3121 45.9635L33.2211 51.0545C32.9802 50.5096 32.8627 49.9182 32.8771 49.3225C32.8771 47.2535 33.9191 45.8925 37.1281 45.8925V45.8945ZM37.1451 52.7825C36.7639 52.7842 36.3828 52.7628 36.0041 52.7185L41.1041 47.6185C41.3361 48.1544 41.4471 48.7349 41.4291 49.3185C41.4291 51.3315 40.4691 52.7805 37.1451 52.7805V52.7825ZM55.0211 50.9825H59.7081C59.6392 51.3078 59.4954 51.6125 59.2881 51.8725C58.3165 52.6642 57.0763 53.0494 55.8271 52.9475C55.1984 53.0148 54.5625 52.9461 53.9626 52.7462C53.3627 52.5462 52.8128 52.2196 52.3501 51.7885C51.8763 51.0934 51.6511 50.2586 51.7111 49.4195C51.6345 48.5403 51.8793 47.663 52.4001 46.9505C53.0551 46.2105 54.1641 45.8915 55.7941 45.8915C56.8313 45.8057 57.8671 46.072 58.7341 46.6475C59.0074 46.8646 59.2117 47.1564 59.3221 47.4875H63.6691C63.6375 46.942 63.5064 46.4069 63.2821 45.9085C62.2411 43.7915 59.8211 42.5315 55.7061 42.5315C52.1271 42.5315 49.7251 43.6235 48.3981 45.2705C47.5217 46.4599 47.0718 47.91 47.1211 49.3865C47.0645 50.8965 47.5027 52.3836 48.3691 53.6215C49.6801 55.3215 52.0151 56.1575 54.8211 56.1575C56.6867 56.2876 58.5394 55.7651 60.0621 54.6795L60.1801 55.9555H63.7911V48.1435H55.0211V50.9825ZM74.0401 42.4645C68.2281 42.4645 65.1701 45.2195 65.1701 49.2645C65.1701 53.8345 68.3781 56.1525 74.0401 56.1525C80.2731 56.1525 82.8941 53.4645 82.8941 49.2645C82.8941 45.0025 79.9371 42.4655 74.0401 42.4655V42.4645ZM74.0241 45.8915C74.4094 45.8904 74.7945 45.9124 75.1771 45.9575L70.1061 51.0315C69.8728 50.4927 69.7591 49.9096 69.7731 49.3225C69.7691 47.2535 70.8151 45.8925 74.0241 45.8925V45.8915ZM74.0401 52.7795C73.6488 52.7812 73.2577 52.7585 72.8691 52.7115L77.9861 47.5935C78.2268 48.1366 78.342 48.7268 78.3231 49.3205C78.3251 51.3315 77.3691 52.7805 74.0401 52.7805V52.7795Z" fill="white"/>
</svg>
