<svg width="108" height="24" viewBox="0 0 108 24" fill="none" xmlns="http://www.w3.org/2000/svg">
<g clip-path="url(#clip0)">
<path d="M3.75879 7.05532L8.55879 20.9513H14.5588L17.8708 11.0633L21.3508 20.9513H27.1348L32.1268 7.03132H27.5428L24.0148 17.9993L20.3668 7.03132H15.6628L11.9668 17.9993L8.43879 7.03132C8.48679 7.19932 8.48679 7.24732 8.31879 7.24732C7.98279 7.24732 6.99879 7.05532 4.28679 7.05532H3.75879ZM32.1579 14.2313C32.1579 18.8153 36.6699 21.3353 41.2539 21.3353C45.7899 21.3353 50.2299 18.8633 50.2299 14.2313C50.2299 9.55132 45.9099 7.07932 41.3979 7.07932C36.7899 7.07932 32.1579 9.69532 32.1579 14.2313ZM41.2059 9.62332C44.0859 9.62332 45.6219 11.6393 45.6219 14.2313C45.6219 16.8713 43.8219 18.9833 41.2059 18.9833C38.5899 18.9833 36.7659 16.8713 36.7659 14.2313C36.7659 11.9033 38.3019 9.62332 41.2059 9.62332ZM56.9927 2.25532H52.5767V20.9513H56.9927V2.25532ZM59.3454 14.4233C59.3454 18.0473 63.0654 21.1673 68.0574 21.1673C70.7214 21.1673 73.4334 20.3033 75.0654 18.0953V20.9513H79.5054V2.23132H75.0654V10.9673C73.6974 9.38332 70.4334 7.87132 67.7694 7.87132C63.0654 7.87132 59.3454 10.2953 59.3454 14.4233ZM63.8094 14.4233C63.8094 11.8313 65.7294 10.2713 68.9694 10.2713C72.6414 10.2713 75.0654 12.6473 75.0654 14.6393C75.0654 16.1993 72.7374 18.6953 69.4974 18.6953C66.3774 18.6953 63.8094 17.3513 63.8094 14.4233ZM87.246 20.9513V8.95132H82.806V20.9513H87.246ZM87.246 6.93532V2.27932H82.806V6.93532H87.246ZM98.8723 21.2633C102.52 21.2633 105.592 19.8953 106.792 17.7593L103.336 17.1833C102.232 18.3833 100.552 19.0073 98.8243 19.0073C96.3283 19.0073 94.6003 17.4713 94.5283 15.6233C96.0643 15.6233 106.336 15.5753 107.68 15.5753C107.776 15.2153 107.824 14.8073 107.824 14.4233C107.8 9.67132 103.552 7.43932 98.9923 7.43932C94.0243 7.43932 89.7763 10.1513 89.7763 14.3753C89.7763 18.5753 93.9043 21.2633 98.8723 21.2633ZM98.8243 9.83932C101.368 9.83932 103.144 11.4953 103.144 13.8713L94.4563 13.8953C94.4323 11.9033 96.0163 9.83932 98.8243 9.83932Z" fill="white"/>
</g>
<g clip-path="url(#clip1)">
<path d="M0.758789 7.05532L5.55879 20.9513H11.5588L14.8708 11.0633L18.3508 20.9513H24.1348L29.1268 7.03132H24.5428L21.0148 17.9993L17.3668 7.03132H12.6628L8.96679 17.9993L5.43879 7.03132C5.48679 7.19932 5.48679 7.24732 5.31879 7.24732C4.98279 7.24732 3.99879 7.05532 1.28679 7.05532H0.758789ZM29.1579 14.2313C29.1579 18.8153 33.6699 21.3353 38.2539 21.3353C42.7899 21.3353 47.2299 18.8633 47.2299 14.2313C47.2299 9.55132 42.9099 7.07932 38.3979 7.07932C33.7899 7.07932 29.1579 9.69532 29.1579 14.2313ZM38.2059 9.62332C41.0859 9.62332 42.6219 11.6393 42.6219 14.2313C42.6219 16.8713 40.8219 18.9833 38.2059 18.9833C35.5899 18.9833 33.7659 16.8713 33.7659 14.2313C33.7659 11.9033 35.3019 9.62332 38.2059 9.62332ZM53.9927 2.25532H49.5767V20.9513H53.9927V2.25532ZM56.3454 14.4233C56.3454 18.0473 60.0654 21.1673 65.0574 21.1673C67.7214 21.1673 70.4334 20.3033 72.0654 18.0953V20.9513H76.5054V2.23132H72.0654V10.9673C70.6974 9.38332 67.4334 7.87132 64.7694 7.87132C60.0654 7.87132 56.3454 10.2953 56.3454 14.4233ZM60.8094 14.4233C60.8094 11.8313 62.7294 10.2713 65.9694 10.2713C69.6414 10.2713 72.0654 12.6473 72.0654 14.6393C72.0654 16.1993 69.7374 18.6953 66.4974 18.6953C63.3774 18.6953 60.8094 17.3513 60.8094 14.4233ZM84.246 20.9513V8.95132H79.806V20.9513H84.246ZM84.246 6.93532V2.27932H79.806V6.93532H84.246ZM95.8723 21.2633C99.5203 21.2633 102.592 19.8953 103.792 17.7593L100.336 17.1833C99.2323 18.3833 97.5523 19.0073 95.8243 19.0073C93.3283 19.0073 91.6003 17.4713 91.5283 15.6233C93.0643 15.6233 103.336 15.5753 104.68 15.5753C104.776 15.2153 104.824 14.8073 104.824 14.4233C104.8 9.67132 100.552 7.43932 95.9923 7.43932C91.0243 7.43932 86.7763 10.1513 86.7763 14.3753C86.7763 18.5753 90.9043 21.2633 95.8723 21.2633ZM95.8243 9.83932C98.3683 9.83932 100.144 11.4953 100.144 13.8713L91.4563 13.8953C91.4323 11.9033 93.0163 9.83932 95.8243 9.83932Z" fill="white"/>
</g>
<path d="M38.3867 7.08423H41.8985L41.7744 9.64236H38.7506L38.3867 7.08423Z" fill="white"/>
<path d="M38.7402 18.9587H41.9381L41.801 21.3164H38.7402V18.9587Z" fill="white"/>
<defs>
<clipPath id="clip0">
<rect width="66" height="23" fill="white" transform="translate(41.7588 0.231323)"/>
</clipPath>
<clipPath id="clip1">
<rect width="38" height="23" fill="white" transform="translate(0.758789 0.231323)"/>
</clipPath>
</defs>
</svg>
