<svg width="21" height="21" viewBox="0 0 21 21" fill="none" xmlns="http://www.w3.org/2000/svg">
<g clip-path="url(#clip0)">
<path d="M20.9268 4.08977C20.183 4.41602 19.3905 4.63227 18.5643 4.73727C19.4143 4.22977 20.0631 3.43227 20.3681 2.47102C19.5756 2.94352 18.7005 3.27727 17.768 3.46352C17.0155 2.66227 15.943 2.16602 14.773 2.16602C12.503 2.16602 10.6755 4.00852 10.6755 6.26727C10.6755 6.59227 10.703 6.90477 10.7705 7.20227C7.36176 7.03602 4.34551 5.40227 2.31926 2.91352C1.96551 3.52727 1.75801 4.22977 1.75801 4.98602C1.75801 6.40602 2.48926 7.66477 3.57926 8.39352C2.92051 8.38102 2.27426 8.18977 1.72676 7.88852C1.72676 7.90102 1.72676 7.91727 1.72676 7.93352C1.72676 9.92602 3.14801 11.581 5.01176 11.9622C4.67801 12.0535 4.31426 12.0972 3.93676 12.0972C3.67426 12.0972 3.40926 12.0822 3.16051 12.0272C3.69176 13.651 5.19926 14.8447 6.99176 14.8835C5.59676 15.9747 3.82551 16.6322 1.90801 16.6322C1.57176 16.6322 1.24926 16.6172 0.926758 16.576C2.74301 17.7472 4.89551 18.416 7.21676 18.416C14.7618 18.416 18.8868 12.166 18.8868 6.74852C18.8868 6.56727 18.8805 6.39227 18.8718 6.21852C19.6855 5.64102 20.3693 4.91977 20.9268 4.08977Z" fill="white"/>
</g>
<defs>
<clipPath id="clip0">
<rect width="20" height="20" fill="white" transform="translate(0.926758 0.291016)"/>
</clipPath>
</defs>
</svg>
