<svg width="21" height="21" viewBox="0 0 21 21" fill="none" xmlns="http://www.w3.org/2000/svg">
<g clip-path="url(#clip0)">
<path d="M14.6768 0.291016H7.17676C3.72551 0.291016 0.926758 3.08977 0.926758 6.54102V14.041C0.926758 17.4922 3.72551 20.291 7.17676 20.291H14.6768C18.128 20.291 20.9268 17.4922 20.9268 14.041V6.54102C20.9268 3.08977 18.128 0.291016 14.6768 0.291016ZM19.0518 14.041C19.0518 16.4535 17.0893 18.416 14.6768 18.416H7.17676C4.76426 18.416 2.80176 16.4535 2.80176 14.041V6.54102C2.80176 4.12852 4.76426 2.16602 7.17676 2.16602H14.6768C17.0893 2.16602 19.0518 4.12852 19.0518 6.54102V14.041Z" fill="white"/>
<path d="M10.9268 5.29102C8.16551 5.29102 5.92676 7.52977 5.92676 10.291C5.92676 13.0523 8.16551 15.291 10.9268 15.291C13.6881 15.291 15.9268 13.0523 15.9268 10.291C15.9268 7.52977 13.6881 5.29102 10.9268 5.29102ZM10.9268 13.416C9.20426 13.416 7.80176 12.0135 7.80176 10.291C7.80176 8.56727 9.20426 7.16602 10.9268 7.16602C12.6493 7.16602 14.0518 8.56727 14.0518 10.291C14.0518 12.0135 12.6493 13.416 10.9268 13.416Z" fill="white"/>
<path d="M16.3019 5.582C16.6699 5.582 16.9682 5.28371 16.9682 4.91576C16.9682 4.5478 16.6699 4.24951 16.3019 4.24951C15.934 4.24951 15.6357 4.5478 15.6357 4.91576C15.6357 5.28371 15.934 5.582 16.3019 5.582Z" fill="white"/>
</g>
<defs>
<clipPath id="clip0">
<rect width="20" height="20" fill="white" transform="translate(0.926758 0.291016)"/>
</clipPath>
</defs>
</svg>
