<svg width="196" height="33" viewBox="0 0 196 33" fill="none" xmlns="http://www.w3.org/2000/svg">
<path fill-rule="evenodd" clip-rule="evenodd" d="M17.5761 4.39642C17.9626 6.55499 16.526 8.61813 14.3674 9.00456C12.9216 9.26339 11.5796 9.92927 10.499 10.924C9.41833 11.9188 8.64387 13.2012 8.2665 14.6207C7.88913 16.0402 7.9245 17.5379 8.36846 18.938C8.81242 20.3381 9.64655 21.5825 10.7729 22.5251C11.8993 23.4678 13.2713 24.0695 14.7277 24.2598C16.1841 24.4501 17.6646 24.221 18.9953 23.5994C20.3261 22.9778 21.452 21.9895 22.2407 20.7505C23.0295 19.5114 23.4485 18.0731 23.4485 16.6043C23.4485 14.4114 25.2262 12.6337 27.4191 12.6337C29.612 12.6337 31.3897 14.4114 31.3897 16.6043C31.3897 19.5839 30.5397 22.5016 28.9396 25.0151C27.3395 27.5285 25.0557 29.5334 22.3561 30.7944C19.6565 32.0553 16.6533 32.5201 13.6989 32.1341C10.7444 31.7481 7.96138 30.5273 5.67641 28.6151C3.39144 26.7028 1.69935 24.1785 0.798744 21.3383C-0.101862 18.4981 -0.173614 15.4599 0.591912 12.5804C1.35744 9.70087 2.92847 7.09946 5.12062 5.08148C7.31277 3.06351 10.0351 1.71272 12.968 1.18767C15.1266 0.801236 17.1897 2.23784 17.5761 4.39642Z" fill="url(#paint0_linear_3_93004)"/>
<path fill-rule="evenodd" clip-rule="evenodd" d="M18.4445 9.37751C16.5882 8.67966 14.5344 8.72292 12.7091 9.49833C10.6908 10.3557 8.35956 9.41461 7.50216 7.39629C6.64476 5.37796 7.58588 3.04672 9.60421 2.18932C13.307 0.616347 17.4731 0.528582 21.2389 1.94422C25.0046 3.35986 28.0812 6.17032 29.8309 9.793C31.5805 13.4157 31.869 17.5727 30.6365 21.4023C29.404 25.2319 26.7451 28.4404 23.211 30.3627C21.2846 31.4104 18.8736 30.6982 17.8258 28.7718C16.7781 26.8454 17.4903 24.4344 19.4167 23.3866C21.1589 22.439 22.4696 20.8574 23.0772 18.9695C23.6847 17.0817 23.5425 15.0324 22.68 13.2466C21.8175 11.4608 20.3009 10.0754 18.4445 9.37751Z" fill="url(#paint1_linear_3_93004)"/>
<path d="M52.4432 26.6617H45.2649V6.41221H52.5025C54.5393 6.41221 56.2927 6.8176 57.7626 7.62837C59.2325 8.43255 60.363 9.58938 61.154 11.0989C61.9516 12.6084 62.3504 14.4145 62.3504 16.5172C62.3504 18.6265 61.9516 20.4392 61.154 21.9553C60.363 23.4714 59.226 24.6348 57.7428 25.4456C56.2663 26.2564 54.4997 26.6617 52.4432 26.6617ZM49.5461 22.9935H52.2652C53.5308 22.9935 54.5953 22.7694 55.4588 22.3211C56.3289 21.8663 56.9815 21.1643 57.4165 20.2151C57.8582 19.2593 58.079 18.0267 58.079 16.5172C58.079 15.0209 57.8582 13.7981 57.4165 12.849C56.9815 11.8998 56.3322 11.201 55.4687 10.7528C54.6052 10.3046 53.5407 10.0805 52.2751 10.0805H49.5461V22.9935ZM69.7734 26.9485C68.8044 26.9485 67.9409 26.7804 67.1829 26.4442C66.4249 26.1015 65.825 25.5972 65.3834 24.9314C64.9483 24.2591 64.7308 23.422 64.7308 22.42C64.7308 21.5763 64.8857 20.8677 65.1955 20.2942C65.5053 19.7207 65.9272 19.2593 66.4611 18.91C66.995 18.5606 67.6015 18.2969 68.2804 18.119C68.9659 17.941 69.6844 17.8158 70.4359 17.7432C71.3191 17.651 72.031 17.5653 72.5716 17.4862C73.1121 17.4005 73.5043 17.2752 73.7482 17.1105C73.9921 16.9457 74.114 16.7018 74.114 16.3788V16.3195C74.114 15.6932 73.9163 15.2088 73.5208 14.866C73.1319 14.5232 72.5782 14.3518 71.8597 14.3518C71.1016 14.3518 70.4985 14.5199 70.0503 14.8561C69.602 15.1857 69.3054 15.601 69.1604 16.1019L65.2647 15.7855C65.4625 14.8627 65.8514 14.0651 66.4314 13.3928C67.0115 12.7138 67.7597 12.1931 68.6759 11.8305C69.5987 11.4614 70.6666 11.2768 71.8794 11.2768C72.7232 11.2768 73.5306 11.3757 74.3019 11.5735C75.0797 11.7712 75.7685 12.0777 76.3683 12.493C76.9748 12.9083 77.4527 13.4422 77.802 14.0948C78.1514 14.7408 78.3261 15.5153 78.3261 16.4183V26.6617H74.3315V24.5557H74.2129C73.969 25.0303 73.6427 25.4489 73.234 25.8114C72.8253 26.1674 72.3343 26.4475 71.7608 26.6519C71.1873 26.8496 70.5249 26.9485 69.7734 26.9485ZM70.9797 24.0416C71.5993 24.0416 72.1464 23.9196 72.621 23.6757C73.0956 23.4252 73.468 23.0891 73.7383 22.6672C74.0085 22.2453 74.1437 21.7674 74.1437 21.2335V19.6219C74.0118 19.7076 73.8306 19.7867 73.5999 19.8592C73.3757 19.9251 73.122 19.9877 72.8385 20.047C72.5551 20.0998 72.2716 20.1492 71.9882 20.1953C71.7048 20.2349 71.4477 20.2711 71.217 20.3041C70.7226 20.3766 70.2909 20.492 69.9217 20.6502C69.5526 20.8084 69.2659 21.0226 69.0615 21.2928C68.8572 21.5565 68.755 21.8861 68.755 22.2816C68.755 22.8551 68.9626 23.2934 69.3779 23.5966C69.7998 23.8933 70.3337 24.0416 70.9797 24.0416ZM81.5939 26.6617V11.4746H85.6774V14.1244H85.8356C86.1124 13.1818 86.5772 12.4699 87.2297 11.9887C87.8823 11.501 88.6338 11.2571 89.4841 11.2571C89.695 11.2571 89.9224 11.2703 90.1663 11.2966C90.4102 11.323 90.6244 11.3592 90.809 11.4054V15.1428C90.6112 15.0835 90.3377 15.0308 89.9883 14.9846C89.639 14.9385 89.3193 14.9154 89.0293 14.9154C88.4096 14.9154 87.8559 15.0506 87.3682 15.3208C86.887 15.5845 86.5047 15.9536 86.2212 16.4282C85.9444 16.9028 85.8059 17.4499 85.8059 18.0695V26.6617H81.5939ZM96.8033 22.2915L96.8132 17.239H97.4262L102.291 11.4746H107.126L100.59 19.1077H99.5915L96.8033 22.2915ZM92.9867 26.6617V6.41221H97.1988V26.6617H92.9867ZM102.479 26.6617L98.0095 20.047L100.818 17.0709L107.413 26.6617H102.479ZM117.27 11.4746V14.6386H108.124V11.4746H117.27ZM110.201 7.83601H114.413V21.9949C114.413 22.3838 114.472 22.687 114.591 22.9045C114.709 23.1154 114.874 23.2638 115.085 23.3494C115.303 23.4351 115.553 23.478 115.837 23.478C116.034 23.478 116.232 23.4615 116.43 23.4285C116.628 23.389 116.779 23.3593 116.885 23.3396L117.547 26.4739C117.336 26.5398 117.04 26.6156 116.657 26.7013C116.275 26.7936 115.81 26.8496 115.263 26.8694C114.248 26.9089 113.358 26.7738 112.594 26.464C111.836 26.1542 111.246 25.673 110.824 25.0204C110.402 24.3679 110.194 23.5439 110.201 22.5486V7.83601ZM126.772 26.9584C125.21 26.9584 123.865 26.642 122.738 26.0092C121.618 25.3698 120.754 24.4667 120.148 23.3C119.541 22.1267 119.238 20.7392 119.238 19.1374C119.238 17.5752 119.541 16.2041 120.148 15.0242C120.754 13.8443 121.608 12.9248 122.708 12.2656C123.816 11.6064 125.114 11.2768 126.604 11.2768C127.606 11.2768 128.539 11.4383 129.402 11.7613C130.272 12.0777 131.03 12.5556 131.676 13.195C132.329 13.8344 132.836 14.6386 133.199 15.6076C133.562 16.5699 133.743 17.6971 133.743 18.9891V20.1459H120.919V17.5356H129.778C129.778 16.9292 129.646 16.392 129.382 15.924C129.119 15.4559 128.753 15.0901 128.285 14.8264C127.824 14.5562 127.286 14.4211 126.673 14.4211C126.034 14.4211 125.467 14.5694 124.973 14.866C124.485 15.156 124.103 15.5482 123.826 16.0426C123.549 16.5304 123.407 17.0742 123.401 17.674V20.1558C123.401 20.9072 123.539 21.5565 123.816 22.1036C124.099 22.6507 124.498 23.0726 125.012 23.3692C125.526 23.6658 126.136 23.8142 126.841 23.8142C127.309 23.8142 127.738 23.7482 128.127 23.6164C128.516 23.4846 128.849 23.2868 129.125 23.0232C129.402 22.7595 129.613 22.4365 129.758 22.0542L133.654 22.3113C133.456 23.2473 133.051 24.0646 132.438 24.7633C131.831 25.4555 131.047 25.996 130.084 26.3849C129.129 26.7672 128.025 26.9584 126.772 26.9584ZM143.353 26.9584C141.798 26.9584 140.46 26.6288 139.339 25.9696C138.225 25.3039 137.368 24.381 136.768 23.2011C136.175 22.0212 135.879 20.6633 135.879 19.1275C135.879 17.5719 136.178 16.2074 136.778 15.0341C137.385 13.8542 138.245 12.9346 139.359 12.2755C140.473 11.6097 141.798 11.2768 143.334 11.2768C144.659 11.2768 145.819 11.5174 146.814 11.9986C147.809 12.4798 148.597 13.1555 149.177 14.0256C149.757 14.8957 150.077 15.9174 150.136 17.0907H146.162C146.049 16.3326 145.753 15.7229 145.272 15.2615C144.797 14.7935 144.174 14.5595 143.403 14.5595C142.75 14.5595 142.18 14.7375 141.692 15.0934C141.211 15.4428 140.835 15.9536 140.565 16.626C140.295 17.2983 140.16 18.1124 140.16 19.0682C140.16 20.0371 140.292 20.8611 140.555 21.54C140.826 22.219 141.205 22.7364 141.692 23.0924C142.18 23.4483 142.75 23.6263 143.403 23.6263C143.884 23.6263 144.316 23.5274 144.698 23.3297C145.087 23.1319 145.407 22.8452 145.657 22.4695C145.914 22.0871 146.082 21.629 146.162 21.0951H150.136C150.07 22.2552 149.754 23.2769 149.187 24.1602C148.627 25.0369 147.852 25.7224 146.864 26.2168C145.875 26.7112 144.705 26.9584 143.353 26.9584ZM157.045 17.8817V26.6617H152.833V6.41221H156.926V14.1541H157.104C157.447 13.2576 158.001 12.5556 158.766 12.0481C159.53 11.5339 160.489 11.2768 161.643 11.2768C162.697 11.2768 163.617 11.5076 164.401 11.969C165.192 12.4238 165.805 13.0797 166.24 13.9366C166.682 14.7869 166.9 15.8053 166.893 16.9918V26.6617H162.681V17.7432C162.688 16.8072 162.45 16.0789 161.969 15.5581C161.494 15.0374 160.829 14.777 159.972 14.777C159.398 14.777 158.891 14.899 158.449 15.1428C158.014 15.3867 157.671 15.7427 157.421 16.2107C157.177 16.6721 157.052 17.2291 157.045 17.8817ZM180.745 6.41221L184.829 13.3137H184.987L189.09 6.41221H193.925L187.746 16.537L194.064 26.6617H189.14L184.987 19.7504H184.829L180.676 26.6617H175.772L182.11 16.537L175.891 6.41221H180.745Z" fill="white"/>
<defs>
<linearGradient id="paint0_linear_3_93004" x1="9.28694" y1="1.12485" x2="15.7279" y2="32.2661" gradientUnits="userSpaceOnUse">
<stop stop-color="#8D58FF"/>
<stop offset="1" stop-color="#4AB3FF"/>
</linearGradient>
<linearGradient id="paint1_linear_3_93004" x1="11.6588" y1="-0.212015" x2="25.653" y2="29.5184" gradientUnits="userSpaceOnUse">
<stop stop-color="#FFC454"/>
<stop offset="1" stop-color="#FC49D8"/>
</linearGradient>
</defs>
</svg>
