<svg width="124" height="26" viewBox="0 0 124 26" fill="none" xmlns="http://www.w3.org/2000/svg">
<path d="M7.89138 24.6605H3.2562V12.9821H0.0986328V9.17983H3.25608V6.47426C3.25608 3.26815 4.65262 0.96875 9.27525 0.96875C10.2529 0.96875 11.7879 1.16792 11.7879 1.16792V4.69852H10.1757C8.533 4.69852 7.89162 5.20353 7.89162 6.5997V9.17983H11.7264L11.3849 12.9821H7.8915L7.89138 24.6605ZM18.5269 8.87598C18.4594 8.87598 18.3899 8.87847 18.3211 8.88021C14.0231 8.88021 12.0566 12.1477 12.0566 16.7861C12.0566 22.6291 14.6074 24.9677 18.3547 24.9677C20.4986 24.9677 21.9072 24.0556 22.7634 22.3536V24.6621H27.1721V9.18145H22.7634V11.5622C22.0643 10.0305 20.6164 8.89413 18.5269 8.87598ZM19.6479 12.534C21.4531 12.534 22.5366 13.8066 22.5366 15.9712L22.5407 18.1821C22.5407 19.6411 21.6458 21.348 19.6479 21.348C16.5763 21.348 16.6584 17.9959 16.6584 16.8794C16.6584 13.1239 18.2949 12.534 19.6479 12.534ZM28.9526 16.9226C28.9526 15.0414 28.8635 8.88605 36.7982 8.88605C39.9833 8.88605 41.3133 9.90962 41.3133 9.90962L40.2444 13.2606C40.2444 13.2606 38.9161 12.5213 37.1853 12.5213C34.9685 12.5213 33.554 13.8202 33.554 16.1054L33.5565 17.744C33.5565 19.9398 34.9213 21.4056 37.1899 21.4056C38.7666 21.4056 40.2199 20.6594 40.2199 20.6594L41.2861 23.9404C41.2861 23.9404 40.0701 24.9704 36.8205 24.9704C29.2654 24.9704 28.9527 19.4479 28.9527 16.9226H28.9526ZM67.1632 8.88021C71.4613 8.88021 73.4588 12.1477 73.4588 16.7861C73.4588 22.6291 70.9079 24.9677 67.1606 24.9677C65.0167 24.9677 63.4318 24.0558 62.5756 22.3536V24.6621L58.2224 24.6604V1.43945L62.8444 1.03203V11.3524C63.5115 9.54684 65.7038 8.88021 67.1633 8.88021H67.1632ZM65.8674 12.534C64.0622 12.534 62.8444 13.8066 62.8444 15.9712L62.8401 18.1821C62.8374 19.6411 63.6835 21.348 65.8674 21.348C68.939 21.348 68.857 17.9959 68.857 16.8794C68.857 13.1239 67.2205 12.534 65.8674 12.534ZM49.3329 8.89301C44.458 8.89301 41.8843 11.5793 41.8843 16.3532V17.2401C41.8843 23.4361 45.4985 25.0313 49.8074 25.0313C53.9955 25.0313 55.8912 23.8474 55.8912 23.8474L55.0263 20.6945C55.0263 20.6945 52.7964 21.6534 50.3615 21.6534C47.8373 21.6534 46.7518 21.0032 46.4735 18.5515H56.2608V16.0221C56.2608 10.8437 53.3723 8.89289 49.3328 8.89289L49.3329 8.89301ZM49.4504 12.0501C51.1378 12.0501 52.2313 13.096 52.1713 15.5214H46.482C46.5807 12.9687 47.7598 12.0503 49.4504 12.0503V12.0501ZM82.6749 8.87175C77.6687 8.87175 75.0332 11.723 75.0332 16.8327C75.0332 23.8434 79.5762 24.9719 82.6833 24.9719C87.2317 24.9719 90.2578 22.497 90.2578 16.8963C90.2578 11.0671 86.8553 8.87175 82.6749 8.87175V8.87175ZM82.6119 12.5467C84.8132 12.5467 85.6855 14.2118 85.6855 16.1071V17.7367C85.6855 20.0327 84.4649 21.3608 82.6035 21.3608C80.8627 21.3608 79.6392 20.1185 79.6392 17.7367V16.1071C79.6392 13.5669 81.0951 12.5467 82.6119 12.5467V12.5467ZM99.4656 8.87175C94.4595 8.87175 91.824 11.723 91.824 16.8327C91.824 23.8434 96.367 24.9719 99.474 24.9719C104.022 24.9719 107.049 22.497 107.049 16.8963C107.049 11.0671 103.646 8.87175 99.4656 8.87175V8.87175ZM99.4027 12.5467C101.604 12.5467 102.476 14.2118 102.476 16.1071V17.7367C102.476 20.0327 101.256 21.3608 99.3943 21.3608C97.6534 21.3608 96.43 20.1185 96.43 17.7367V16.1071C96.43 13.5669 97.8858 12.5467 99.4027 12.5467V12.5467ZM108.795 24.6605V1.43945L113.431 1.03203V16.5962L118.029 9.17983H122.925L118.127 16.861L123.11 24.6605H118.2L113.431 17.0873V24.6605H108.795Z" fill="#9EA8C6"/>
</svg>
