<svg width="114" height="26" viewBox="0 0 114 26" fill="none" xmlns="http://www.w3.org/2000/svg">
<path d="M19.382 25.6142L11.9596 25.477C9.55633 25.4292 7.14716 25.5247 4.79113 25.0294C1.20689 24.2894 0.952983 20.6609 0.687266 17.6173C0.321166 13.3383 0.462882 8.98172 1.15375 4.73855C1.54347 2.35737 3.07872 0.937008 5.45247 0.781843C13.4653 0.220861 21.5313 0.286508 29.5265 0.549095C30.3709 0.572967 31.2212 0.70426 32.0538 0.853457C36.1635 1.58154 36.2639 5.69341 36.5296 9.15479C36.7953 12.652 36.6831 16.1671 36.1753 19.6404C35.7679 22.5169 34.9885 24.9279 31.6995 25.1607C27.5779 25.465 23.5508 25.7097 19.4174 25.6321C19.4174 25.6142 19.3938 25.6142 19.382 25.6142V25.6142ZM15.0183 18.3334C18.1242 16.5311 21.1711 14.7586 24.2594 12.9683C21.1475 11.166 18.1065 9.39351 15.0183 7.60314V18.3334Z" fill="#9EA8C6"/>
<path d="M96.0646 22.3438C95.9228 22.9287 95.7988 23.3882 95.6748 23.8776H92.7697V1.22925H96.159V9.58438C96.3362 9.35759 96.4247 9.26211 96.5015 9.16065C97.0802 8.35498 97.8301 7.8298 98.7985 7.62689C100.34 7.32252 101.656 8.00884 102.123 9.50679C102.424 10.4378 102.619 11.4344 102.643 12.4072C102.69 14.9078 102.654 17.4024 102.566 19.903C102.53 20.6669 102.3 21.4487 102.011 22.1648C101.06 24.5281 97.9541 24.8862 96.4129 22.8392C96.3185 22.7139 96.2299 22.5766 96.0646 22.3438V22.3438ZM96.2299 16.1133V20.2551C96.2299 20.9294 96.5842 21.3412 97.2514 21.4964C97.9069 21.6516 98.4383 21.3949 98.704 20.7802C98.8162 20.5236 98.9284 20.2551 98.9343 19.9865C98.9992 17.4561 99.0583 14.9257 99.076 12.3893C99.076 11.9178 98.9638 11.4285 98.8221 10.9689C98.5564 10.1394 97.8242 9.89471 97.1038 10.3781C96.5606 10.7481 96.2299 11.2733 96.2299 11.9716V16.1133ZM87.0184 7.94916H90.5672V23.8895H87.7978C87.6974 23.2868 87.597 22.6661 87.4789 21.938C87.29 22.2185 87.1778 22.3976 87.0597 22.5766C86.1385 23.9194 84.8336 24.3789 83.2924 24.1342C81.9756 23.9194 81.1844 22.8929 81.0072 21.2099C80.9541 20.7086 80.9305 20.2014 80.9305 19.7C80.9187 15.9701 80.9305 12.2282 80.9305 8.49821V7.93722H84.5206V8.58773C84.5206 12.1924 84.5088 15.791 84.5324 19.3957C84.5324 19.9089 84.5856 20.4401 84.6741 20.9533C84.7745 21.4785 85.1524 21.6695 85.6602 21.6337C86.481 21.568 87.0479 20.9533 87.0479 20.1297V8.65338C87.0184 8.42063 87.0184 8.20578 87.0184 7.94916V7.94916ZM62.5842 7.93722H66.1507V8.6116C66.1507 12.1983 66.1389 15.7791 66.1625 19.3539C66.1625 19.8672 66.2097 20.3983 66.316 20.8996C66.4518 21.4904 66.7943 21.6814 67.3789 21.6038C68.1879 21.4904 68.678 20.9235 68.6839 20.0939V8.67725V7.96109H72.2327V23.8895H69.4751C69.3747 23.2987 69.2743 22.69 69.1444 21.9201C68.9673 22.1887 68.8669 22.3439 68.7665 22.505C67.8454 23.8716 66.5522 24.373 64.9756 24.1283C63.712 23.9373 62.9385 22.9944 62.7023 21.4487C62.6373 20.9653 62.5901 20.4878 62.5901 20.0044C62.5783 16.1312 62.5783 12.2401 62.5783 8.36691L62.5842 7.93722ZM60.7537 16.4475C60.7419 16.9846 60.7064 17.5217 60.6769 18.0589C60.5411 19.6702 60.4761 21.9559 59.1889 23.1316C58.3681 23.8716 57.3289 24.1402 56.2542 24.176C55.7759 24.1879 55.2917 24.1879 54.8134 24.1223C52.5519 23.7762 51.5008 22.7676 51.1229 20.2551C50.6919 17.3546 50.6564 14.4065 51.1701 11.5061C51.7016 8.50418 53.5321 7.44188 56.3782 7.63882C59.0354 7.8298 60.2222 9.59034 60.5352 12.0969C60.7064 13.5352 60.7891 14.9913 60.7537 16.4475V16.4475ZM57.1399 15.8985C57.1399 14.8779 57.1635 13.8515 57.1281 12.8309C57.1045 12.2401 57.0277 11.6433 56.9037 11.0585C56.762 10.3841 56.3369 10.0618 55.8054 10.0737C55.2858 10.0857 54.9197 10.408 54.7308 11.0346C54.6658 11.2673 54.5949 11.5061 54.5949 11.7388C54.5949 13.3382 54.5831 14.9436 54.5713 16.543C54.5595 18.035 54.3706 19.5986 54.837 21.0249C54.9788 21.4606 55.3449 21.6993 55.8231 21.6993C56.2896 21.6993 56.5967 21.4666 56.7679 21.0488C56.9037 20.7265 57.0218 20.3744 57.0218 20.0283C57.0632 18.6557 57.1399 17.2771 57.1399 15.8985ZM45.9148 12.8966C46.2278 11.3509 46.523 9.841 46.8478 8.32514C47.2552 6.39749 47.7099 4.46984 48.1114 2.53623C48.2118 2.06476 48.4008 1.95137 48.8436 1.96331C49.7943 1.99911 50.7627 1.97524 51.7783 1.97524C51.4477 3.20464 51.1229 4.37436 50.804 5.52617C49.7943 9.14275 48.7846 12.7713 47.7867 16.3998C47.7099 16.6803 47.6745 16.9846 47.6745 17.283C47.6627 19.2644 47.6745 21.2398 47.6745 23.2211V23.8657H44.2083C44.1965 23.6866 44.1729 23.5076 44.1729 23.3286C44.1729 22.2066 44.0843 21.0786 44.1847 19.9686C44.4386 17.3009 43.6002 14.8481 42.9211 12.3654C42.0236 9.08307 41.1142 5.78876 40.2167 2.50639C40.1694 2.35122 40.1517 2.18412 40.1045 1.99315H43.6415C44.3855 5.61569 45.1354 9.23824 45.9148 12.8966ZM113.732 17.0562H107.756C107.821 18.2677 107.845 19.4196 107.969 20.5594C108.057 21.3532 108.488 21.6933 109.167 21.6993C109.876 21.7112 110.289 21.3532 110.455 20.5654C110.508 20.3088 110.543 20.0522 110.567 19.7896C110.59 19.5568 110.602 19.3062 110.62 18.972C111.63 19.0257 112.616 19.0853 113.59 19.1271C114.157 20.828 113.135 23.0123 111.417 23.6866C110.065 24.2238 108.677 24.2238 107.296 23.812C106.274 23.5076 105.512 22.8511 105.17 21.8425C104.851 20.8996 104.55 19.9149 104.485 18.9302C104.308 16.5012 104.243 14.0484 104.609 11.6135C104.674 11.2077 104.786 10.8197 104.91 10.4259C105.406 8.80258 106.487 7.80593 108.158 7.63882C109.067 7.54931 110.006 7.58511 110.903 7.74028C112.356 7.9969 113.13 9.05323 113.466 10.4378C113.62 11.0883 113.732 11.7567 113.755 12.4192C113.761 13.941 113.732 15.4509 113.732 17.0562ZM110.337 14.9615C110.337 13.7619 110.348 12.634 110.325 11.5001C110.325 11.2315 110.224 10.951 110.124 10.6944C109.923 10.1931 109.504 10.0558 109.002 10.0558C108.5 10.0558 108.181 10.3125 108.057 10.772C107.679 12.1506 107.803 13.559 107.815 14.9734C108.719 14.9615 109.539 14.9615 110.337 14.9615V14.9615Z" fill="#9EA8C6"/>
<path d="M74.9723 4.89975H71.459V2.02319H81.9459V4.88184H78.4562V23.8659H74.9782L74.9723 4.89975Z" fill="#9EA8C6"/>
</svg>
