<svg width="101" height="34" viewBox="0 0 101 34" fill="none" xmlns="http://www.w3.org/2000/svg">
<path d="M12.5986 0.422607H13.4923C16.5949 0.490776 19.6469 1.75189 21.8389 3.98441C21.0296 4.81948 20.2033 5.62046 19.4108 6.45553C18.1799 5.33074 16.696 4.46159 15.0773 4.15484C12.6829 3.64357 10.103 4.10371 8.09645 5.48412C5.9044 6.93271 4.42055 9.38677 4.10017 12.0113C3.74607 14.6017 4.47113 17.3284 6.14047 19.3394C7.74235 21.2992 10.1873 22.5263 12.7166 22.6115C15.0773 22.7478 17.5391 22.015 19.2591 20.3449C20.608 19.169 21.2319 17.3795 21.4342 15.6412C18.6352 15.6412 15.8361 15.6583 13.037 15.6412V12.1306H24.8235C25.4305 15.8969 24.5537 20.1404 21.7209 22.833C19.8324 24.7417 17.2188 25.8665 14.5546 26.0881C11.9747 26.3437 9.31051 25.8495 7.01729 24.5884C4.26879 23.1057 2.07674 20.6005 0.997575 17.6522C-0.0141409 14.9425 -0.0310028 11.8749 0.913266 9.14818C1.77322 6.66003 3.42569 4.46159 5.5503 2.9278C7.59059 1.41105 10.0693 0.575987 12.5986 0.422607Z" fill="#9EA8C6"/>
<path d="M80.2153 1.30884H83.8238V25.645C82.6266 25.645 81.4125 25.662 80.2153 25.6279C80.2322 17.5329 80.2153 9.42088 80.2153 1.30884V1.30884Z" fill="#9EA8C6"/>
<path d="M32.8493 9.7448C35.075 9.31875 37.4863 9.79593 39.3243 11.1422C40.9936 12.3352 42.1571 14.2098 42.5112 16.2549C42.9664 18.6237 42.3931 21.2141 40.8756 23.0887C39.2399 25.1849 36.5589 26.3096 33.9453 26.1392C31.5509 26.0029 29.2239 24.7929 27.8075 22.816C26.2057 20.6346 25.8178 17.6353 26.6946 15.079C27.5715 12.3352 30.0502 10.239 32.8493 9.7448V9.7448ZM33.3551 12.9828C32.4446 13.2214 31.6015 13.7497 30.9944 14.4995C29.3588 16.4764 29.46 19.6973 31.2642 21.5379C32.2928 22.5945 33.8441 23.0887 35.2774 22.799C36.6095 22.5604 37.773 21.6572 38.4137 20.4642C39.5266 18.4362 39.2062 15.6413 37.5032 14.0564C36.4071 13.0339 34.8052 12.6079 33.3551 12.9828Z" fill="#9EA8C6"/>
<path d="M50.7216 9.74472C53.2678 9.25049 56.05 9.96626 57.9554 11.7727C61.058 14.5847 61.3953 19.8507 58.7479 23.0887C57.1461 25.1338 54.5493 26.2586 51.9863 26.1393C49.5413 26.0711 47.1301 24.8441 45.6799 22.8161C44.0443 20.5835 43.6902 17.5159 44.6176 14.9085C45.545 12.2499 47.9731 10.2219 50.7216 9.74472V9.74472ZM51.2275 12.9827C50.317 13.2213 49.4739 13.7496 48.8668 14.4824C47.2481 16.4252 47.3155 19.5951 49.0523 21.4527C50.0809 22.5604 51.6828 23.1058 53.1666 22.799C54.4819 22.5434 55.6622 21.6572 56.303 20.4642C57.399 18.4192 57.0786 15.6243 55.3587 14.0393C54.2627 13.0168 52.6608 12.6078 51.2275 12.9827Z" fill="#9EA8C6"/>
<path d="M65.8824 10.7332C67.8215 9.50617 70.4014 9.16533 72.4923 10.2219C73.1499 10.5117 73.6895 11.0059 74.2122 11.5001C74.2291 11.04 74.2122 10.5628 74.2291 10.0856C75.3588 10.1026 76.4886 10.0856 77.6352 10.1026V25.1338C77.6183 27.4004 77.045 29.8033 75.4263 31.4564C73.6558 33.2799 70.941 33.8423 68.496 33.4674C65.8824 33.0754 63.606 31.1496 62.5943 28.7126C63.606 28.2184 64.6684 27.8264 65.7138 27.3663C66.304 28.7638 67.5012 29.9567 69.0019 30.2294C70.5026 30.502 72.2394 30.1271 73.2174 28.866C74.2628 27.5708 74.2628 25.7984 74.2122 24.2135C73.4366 24.9804 72.5429 25.6621 71.4637 25.9177C69.1199 26.5824 66.54 25.7643 64.7358 24.1624C62.9147 22.5604 61.8355 20.0893 61.9367 17.6353C61.9873 14.8574 63.5386 12.1818 65.8824 10.7332V10.7332ZM69.3728 12.9146C68.3443 13.085 67.3831 13.6644 66.7255 14.4654C65.1405 16.3741 65.1405 19.4247 66.7424 21.2993C67.6529 22.407 69.1199 23.0206 70.5363 22.8672C71.8684 22.7308 73.0993 21.8787 73.757 20.7028C74.8698 18.7089 74.6844 15.9992 73.1836 14.2609C72.2562 13.1873 70.7724 12.659 69.3728 12.9146V12.9146Z" fill="#9EA8C6"/>
<path d="M88.1545 11.6024C90.178 9.69365 93.2974 9.04605 95.8942 10.0515C98.356 10.9889 99.9242 13.3577 100.717 15.7947C97.0576 17.3285 93.4154 18.8453 89.7564 20.3791C90.2623 21.3505 91.0379 22.2367 92.0834 22.5945C93.5503 23.1228 95.304 22.9354 96.5349 21.9469C97.0239 21.572 97.4117 21.0778 97.7827 20.6006C98.7101 21.2312 99.6375 21.8447 100.565 22.4752C99.2497 24.4692 97.0408 25.8666 94.6632 26.0882C92.0328 26.412 89.2337 25.3894 87.5306 23.3103C84.7315 20.0382 85.0013 14.5507 88.1545 11.6024V11.6024ZM89.9587 14.7552C89.3854 15.5902 89.1494 16.6128 89.1662 17.6182C91.6112 16.5957 94.0562 15.5732 96.5012 14.5336C96.0965 13.5793 95.1185 12.9998 94.1237 12.8464C92.5218 12.5567 90.8524 13.4259 89.9587 14.7552V14.7552Z" fill="#9EA8C6"/>
</svg>
