<svg width="128" height="32" viewBox="0 0 128 32" fill="none" xmlns="http://www.w3.org/2000/svg">
<path d="M13.7824 0.667788C12.1389 0.853938 9.67369 1.62718 8.27107 2.40042C4.50239 4.44807 1.95217 7.64127 0.677052 11.8941C0.42203 12.7246 0.124503 14.9871 0.138671 16.0467C0.138671 16.9774 0.42203 19.2542 0.592045 19.7983C0.677052 20.0561 0.861236 20.6718 1.01708 21.1443C1.27211 21.9462 2.50472 24.4664 2.71723 24.6382C2.75974 24.6812 2.98643 24.9676 3.19894 25.2969C3.72316 26.0845 5.09745 27.4878 6.13171 28.2897C6.92511 28.9054 9.16365 30.2084 9.447 30.2228C9.51784 30.2228 9.53201 29.6786 9.48951 28.9627C9.39033 27.3732 9.68786 25.211 10.3254 23.0058C10.4388 22.6335 10.5238 22.1467 10.5238 21.9319C10.5238 21.7171 10.5804 21.488 10.6513 21.4164C10.7221 21.3305 10.8496 20.9152 10.9205 20.4857C11.0055 20.0561 11.1472 19.3974 11.2463 19.0251C11.388 18.4666 11.3738 18.2518 11.1755 17.6504C10.8921 16.734 10.878 15.2448 11.1613 14.5288C11.8272 12.8248 12.5639 12.1805 13.8107 12.1805C15.3125 12.1805 16.0351 13.326 15.7517 15.2448C15.6242 16.1183 15.27 17.4929 15.0433 17.9225C14.9867 18.0514 14.8875 18.4094 14.845 18.7101C14.7883 19.0251 14.675 19.469 14.6041 19.7124C14.4058 20.2709 14.7883 21.3591 15.2984 21.7744C15.7801 22.161 16.786 22.2756 17.7069 22.0608C18.3586 21.9176 18.6278 21.7457 19.3079 21.0871C20.1155 20.2852 20.7247 19.3544 20.7247 18.9105C20.7247 18.7817 20.7955 18.6098 20.8805 18.5239C21.2772 18.123 21.4897 15.0014 21.1922 13.684C20.8664 12.2378 19.8604 10.8201 18.557 9.98963C17.2535 9.14479 14.5616 8.90136 12.904 9.47414C11.7422 9.87507 10.7079 10.5481 10.0421 11.3356C9.447 12.0373 8.82361 13.1828 8.82361 13.5838C8.82361 13.727 8.75278 13.9131 8.66777 13.999C8.58276 14.0849 8.48358 14.6291 8.44108 15.2162C8.37024 16.0896 8.42691 16.4906 8.68194 17.3497C8.85195 17.9368 9.16364 18.6241 9.34783 18.8819C9.73036 19.3974 9.73036 19.5979 9.37616 20.9725C9.27699 21.3448 9.10697 21.6885 9.0078 21.7314C8.11522 22.0751 6.30172 19.9129 5.6925 17.765C5.46581 16.9488 5.45165 14.042 5.67833 13.1828C5.77751 12.8248 5.94752 12.338 6.06087 12.0802C6.17421 11.8368 6.27339 11.5934 6.27339 11.5361C6.27339 11.4788 6.55675 10.992 6.91094 10.4622C8.75278 7.65559 11.7422 6.16639 15.525 6.16639C16.3893 6.16639 17.2819 6.22366 17.5227 6.29526C19.4779 6.91099 20.0021 7.11146 20.7672 7.56967C22.2548 8.47179 23.3316 9.70324 24.4083 11.7652C24.4792 11.8941 24.5784 12.2378 24.6209 12.5241C24.6775 12.8105 24.7767 13.0826 24.8475 13.1255C24.9184 13.1685 24.9751 14.0993 24.9751 15.2018C24.9751 17.1922 24.8334 17.9941 24.2383 19.6265C23.5724 21.4164 21.8581 23.3925 20.2996 24.1657C19.4071 24.5953 17.7352 25.0678 17.0694 25.0678C16.1768 25.0678 14.4199 24.3232 13.9382 23.7218C13.7116 23.4497 13.499 23.55 13.499 23.9366C13.499 24.0798 13.4424 24.3232 13.3574 24.4664C13.2865 24.5953 13.159 24.9962 13.0882 25.3542C12.6773 27.2443 12.0964 28.7765 11.2038 30.2084C10.9346 30.6523 11.1613 30.9101 11.8981 31.0103C12.2664 31.0676 12.7623 31.1678 12.989 31.2394C13.5557 31.4256 16.6301 31.3969 17.6644 31.2108C18.5995 31.0389 20.1155 30.6094 20.7955 30.323C25.0742 28.5474 28.3187 24.9389 29.7213 20.3425C30.4722 17.8939 30.5147 15.0443 29.8347 12.1805C29.608 11.2497 29.5371 11.0349 28.9279 9.60301C28.0495 7.5124 26.066 5.0638 24.0541 3.56028C22.3257 2.27155 20.6255 1.52694 17.9761 0.882577C17.2394 0.710745 14.6183 0.567553 13.7824 0.667788ZM51.5683 5.83704C51.0157 5.92296 50.1373 6.83939 49.9106 7.55535C49.6698 8.34291 49.9106 9.18775 50.5907 9.84644C52.0925 11.3213 54.6994 9.93235 54.3735 7.8131C54.1752 6.46709 52.9567 5.60793 51.5683 5.83704ZM36.1252 6.68188C35.9977 6.82507 35.9977 24.0941 36.1394 24.2946C36.2102 24.4091 36.8195 24.4521 38.0096 24.4378L39.7806 24.4234L39.8514 21.5166C39.9081 19.154 39.9647 18.5812 40.1348 18.481C40.2481 18.4094 41.2115 18.3378 42.2741 18.3378C44.5977 18.3378 45.5752 18.1659 46.6378 17.5932C48.0263 16.8342 48.8339 15.746 49.2731 14.0133C49.5423 12.9251 49.5423 12.1375 49.2589 11.0206C49.0039 10.0183 48.8905 9.77484 48.2813 8.95864C47.5304 7.94197 46.7653 7.38352 45.5186 6.93963C44.8243 6.71052 44.2435 6.66756 40.489 6.6246C38.1512 6.59596 36.1819 6.6246 36.1252 6.68188ZM43.9034 10.2474C44.8527 10.5481 45.3202 10.9777 45.5327 11.7509C45.8019 12.7676 45.6036 13.7126 45.0085 14.2854C44.3568 14.9011 43.7759 15.0443 41.8774 15.0443C40.6306 15.0443 40.2481 15.0014 40.0781 14.8152C39.8939 14.6434 39.8514 14.2281 39.8514 12.5957C39.8514 10.0183 39.8372 10.0326 41.8066 10.0326C42.6566 10.0326 43.4784 10.1185 43.9034 10.2474ZM68.754 9.40254C68.754 10.3906 68.6831 11.3213 68.6123 11.4788C68.5131 11.665 68.3148 11.7509 67.9747 11.7509C67.7197 11.7509 67.4789 11.8082 67.4505 11.8941C67.4364 11.9657 67.4364 12.4669 67.4789 12.9967C67.5497 13.9417 67.5639 13.9561 67.9889 14.0563C68.2298 14.0993 68.499 14.1852 68.584 14.2425C68.7115 14.314 68.754 15.4453 68.754 18.3091C68.754 22.161 68.7681 22.3042 69.0798 22.877C69.7316 24.0941 70.7517 24.5237 72.8202 24.4664L74.2086 24.4234L74.2511 23.0345L74.2936 21.6312H73.9394C73.4011 21.6312 72.6077 21.2016 72.5226 20.858C72.4801 20.6861 72.4376 19.1683 72.4376 17.4643C72.4376 15.1159 72.4801 14.3284 72.6218 14.2138C72.721 14.1279 73.1177 14.042 73.5002 14.0133L74.2086 13.9704V11.8225L73.4294 11.7795C73.0044 11.7509 72.6077 11.6507 72.551 11.5647C72.4943 11.4645 72.4376 10.5338 72.4376 9.48845V7.59831H68.754V9.40254ZM121.416 7.68423C121.36 7.7415 121.317 8.64362 121.317 9.68892C121.317 11.7223 121.303 11.7509 120.524 11.7509C120.169 11.7509 120.169 11.7652 120.212 12.8535C120.254 13.9417 120.269 13.9704 120.637 14.0133C120.835 14.042 121.076 14.1422 121.147 14.2281C121.232 14.3284 121.317 16.061 121.36 18.2662C121.402 20.3854 121.473 22.3185 121.53 22.5476C121.7 23.1777 122.578 23.9796 123.414 24.2516C124.349 24.5666 126.729 24.5953 126.97 24.2946C127.083 24.1657 127.126 23.6502 127.098 22.9056L127.055 21.7028L126.559 21.6169C126.021 21.531 125.412 21.2446 125.256 21.0011C125.199 20.9152 125.142 19.3544 125.142 17.5359C125.142 13.7986 125.057 14.042 126.29 14.042C127.098 14.042 127.168 13.8988 127.098 12.5957L127.055 11.8225L126.134 11.7509L125.213 11.6793L125.142 9.67461L125.072 7.66991L123.286 7.62695C122.309 7.61263 121.473 7.64127 121.416 7.68423ZM61.7409 11.4072C61.0466 11.5934 60.239 12.0659 59.7007 12.6244C59.0489 13.3117 58.8789 13.2687 58.8081 12.3953L58.7656 11.8225H55.2236V24.4234L57.0088 24.4521C58.7656 24.495 58.8081 24.4807 58.8931 24.1657C58.9356 23.9939 58.9781 22.1753 58.9781 20.1133C58.9781 16.0324 58.9923 15.9178 59.8282 15.1159C60.1965 14.7579 60.3949 14.6863 61.1883 14.6434L62.1092 14.5861L62.6618 15.1732C63.3135 15.8605 63.2427 15.2018 63.2993 21.13C63.3135 22.7051 63.3277 24.0941 63.3418 24.2373C63.3702 24.4378 63.5968 24.4664 65.1837 24.4378L66.983 24.4234V14.3713L66.5721 13.5551C65.8637 12.1375 64.7728 11.4645 63.101 11.3786C62.5059 11.3643 61.8967 11.3643 61.7409 11.4072ZM79.4508 11.4072C77.9206 11.8225 77.1839 12.2378 76.2347 13.1828C74.9595 14.4859 74.3787 16.0037 74.3787 18.0514C74.3928 21.6455 76.6172 24.3089 79.9042 24.6239C82.7094 24.896 84.8771 24.0655 86.2655 22.1896C86.4639 21.9176 86.8889 21.0441 86.8889 20.8866C86.8889 20.8293 86.0672 20.772 85.0754 20.772H83.2619L82.8369 21.2159C82.341 21.7314 81.6468 22.0608 81.0092 22.0608C80.3717 22.0608 79.3941 21.6026 78.9407 21.1157C78.6007 20.7291 78.1048 19.6122 78.1048 19.2256C78.1048 19.0967 79.1391 19.0537 82.4685 19.0537C84.8629 19.0537 86.8889 18.9964 86.9881 18.9392C87.2006 18.796 87.0023 16.5192 86.6906 15.6887C86.053 13.9561 84.8488 12.4955 83.6303 11.98C83.2761 11.8368 82.8652 11.6507 82.7236 11.5791C82.426 11.4216 79.9041 11.2927 79.4508 11.4072ZM82.2135 14.5432C82.7661 14.9298 83.2478 15.8462 83.1769 16.3617C83.1344 16.691 83.1061 16.691 80.7117 16.734C77.949 16.777 77.9348 16.7626 78.374 15.7317C78.6857 15.0157 79.3091 14.3713 79.89 14.1852C80.5559 13.9704 81.6326 14.1422 82.2135 14.5432ZM100.419 11.4072C98.7758 11.8511 97.6282 12.5814 96.7357 13.7126C96.3815 14.1709 96.0981 14.6004 96.0981 14.6863C96.0981 14.7579 95.9989 15.0157 95.8714 15.2591C95.7439 15.4882 95.5597 16.2042 95.4605 16.8486C94.9647 19.9129 96.3248 22.7767 98.875 24.0655L99.8526 24.5666H101.907C104.032 24.5666 104.216 24.5237 105.52 23.822C106.469 23.3065 108.027 21.3018 107.787 20.9009C107.73 20.8293 106.922 20.772 105.973 20.772H104.23L103.876 21.1873C102.46 22.8054 99.8101 21.9749 99.2434 19.7267C99.1584 19.426 99.1584 19.1683 99.2292 19.111C99.3 19.068 101.326 19.0394 103.749 19.0537C107.206 19.0537 108.141 19.0251 108.155 18.8819C108.283 17.092 107.432 14.4429 106.37 13.2974C105.775 12.653 104.741 11.937 104.23 11.8082C104.004 11.7509 103.749 11.6507 103.65 11.5791C103.451 11.4216 100.859 11.2927 100.419 11.4072ZM102.63 14.1995C103.267 14.4286 104.004 15.2305 104.117 15.8462C104.287 16.777 104.301 16.777 101.666 16.734C99.3 16.691 99.2859 16.691 99.2434 16.3617C99.1867 15.9608 99.6826 14.9727 100.108 14.6004C100.717 14.0849 101.779 13.9131 102.63 14.1995ZM112.745 11.4072C109.841 12.1089 108.793 13.1542 108.778 15.3307C108.778 17.6791 109.94 18.6671 113.383 19.2828C115.749 19.6981 116.429 20.0704 116.401 20.9725C116.387 21.6169 115.947 22.0321 115.069 22.2183C113.964 22.4617 113.1 22.1896 112.405 21.4021L111.853 20.772H110.139C108.75 20.772 108.424 20.815 108.424 20.9725C108.424 21.3878 108.991 22.476 109.458 23.0202C109.898 23.4927 110.238 23.7218 111.569 24.3662C111.697 24.4378 112.391 24.5523 113.085 24.6382C114.375 24.7958 116.613 24.6526 117.18 24.3662C117.307 24.3089 117.676 24.1227 117.988 23.9796C118.795 23.5929 119.56 22.7195 119.844 21.8889C120.155 20.9439 120.07 19.6265 119.631 18.7101C119.107 17.6361 117.718 16.8629 115.65 16.4906C112.986 16.018 112.944 16.0037 112.519 15.5885C112.009 15.0586 112.009 14.8725 112.519 14.2997C112.93 13.8415 112.958 13.8272 114.091 13.8272C115.225 13.8272 115.253 13.8415 115.664 14.2997C115.891 14.5575 116.075 14.8582 116.075 14.9727C116.075 15.1446 116.372 15.1875 117.846 15.1875C119.801 15.1875 119.744 15.2305 119.404 14.2138C118.781 12.4096 117.18 11.4932 114.516 11.3929C113.695 11.3643 112.901 11.3643 112.745 11.4072ZM93.9021 11.7079C93.2787 11.9227 92.4144 12.6387 92.1452 13.1542C91.8761 13.6697 91.6352 13.4549 91.5644 12.5957L91.4935 11.8225H87.9515L87.909 17.8366C87.8949 21.1443 87.909 23.9939 87.9515 24.18C88.0224 24.495 88.0649 24.495 89.765 24.4664C90.7426 24.4521 91.536 24.3662 91.5927 24.2803C91.6494 24.2087 91.706 22.6908 91.706 20.9152C91.706 18.1087 91.7344 17.6075 91.9752 16.9774C92.4711 15.6744 93.5337 14.9011 94.8655 14.9011C95.2339 14.9011 95.3897 14.8295 95.4322 14.6434C95.5314 14.2281 95.5455 12.295 95.4605 11.8655C95.3755 11.5218 95.3047 11.4645 94.9222 11.4788C94.6671 11.4932 94.2138 11.5934 93.9021 11.7079ZM50.2648 11.9227C50.2223 12.023 50.2082 14.8439 50.2223 18.1946L50.2648 24.2803L51.9508 24.3519C52.9709 24.3948 53.7076 24.3662 53.821 24.2803C53.9768 24.1657 54.0193 22.9486 54.0193 18.08C54.0335 14.7579 53.991 11.9657 53.9485 11.8941C53.8068 11.6793 50.3357 11.7079 50.2648 11.9227Z" fill="#9EA8C6"/>
</svg>
