<svg width="98" height="34" viewBox="0 0 98 34" fill="none" xmlns="http://www.w3.org/2000/svg">
<path d="M93.7237 6.73695H89.4474V0.750122H80.0575L75.7392 6.73695H68.0658L65.5001 9.30273V6.73695H59.5132V0.750122H40.6975V6.73695H14.2272L9.90811 0.750122H0.500244V21.2764L12.4739 33.25H24.4475V29.829L27.8686 33.25H50.9606V29.829L54.3817 33.25H65.5001V29.829L68.9211 33.25H90.3026L98 25.5527V11.0133L93.7237 6.73695ZM15.0397 15.2896H9.05285V17.0001H15.0397V23.8422H5.63181L2.21077 20.4211V2.46064H9.05285V8.44747H15.0397V15.2896ZM40.6975 23.8422H20.1712L16.7502 20.4211V8.44747H23.5923V17.0001H25.3028V8.44747H32.1449V17.0001H33.8554V8.44747H40.6975V23.8422ZM49.2501 23.8422H42.408V8.44747H49.2501V23.8422ZM49.2501 6.73695H42.408V2.46064H49.2501V6.73695ZM63.7895 15.2896H57.8027V17.0001H63.7895V23.8422H54.3817L50.9606 20.4211V2.46064H57.8027V8.44747H63.7895V15.2896ZM79.1842 15.2896H72.3421V17.0001H79.1842V23.8422H68.9211L65.5001 20.4211V11.8685L68.9211 8.44747H79.1842V15.2896ZM96.2894 23.8422H89.4474V15.2896H87.7368V23.8422H80.8947V2.46064H87.7368V8.44747H92.8684L96.2894 11.8685V23.8422Z" fill="#9EA8C6"/>
</svg>
