<svg width="2620" height="1213" viewBox="0 0 2620 1213" fill="none" xmlns="http://www.w3.org/2000/svg">
<g filter="url(#filter0_f_19_130143)">
<path d="M1682.58 238.011C1935.17 84.4299 2423.91 420.8 2423.91 420.8C2423.91 420.8 1863.73 298.378 1568.71 424.734C1314.07 533.795 1303.14 923.85 1027.45 965.803C607.266 1029.75 69.1024 378.114 69.1024 378.114C69.1024 378.114 694.886 875.928 1085.23 732.542C1302.02 652.909 1474.45 364.564 1682.58 238.011Z" fill="#14CA74"/>
</g>
<g filter="url(#filter1_f_19_130143)">
<path d="M1582.76 308.349C1835.45 154.946 2323.96 491.662 2323.96 491.662C2323.96 491.662 1763.86 368.843 1468.76 494.991C1214.04 603.872 1202.83 993.918 927.117 1035.68L985.061 802.456C1201.9 722.978 1374.54 434.755 1582.76 308.349Z" fill="#FFCC68"/>
</g>
<g opacity="0.8" filter="url(#filter2_f_19_130143)">
<path d="M1535.81 448.599C1508.32 390.388 1302.11 609.822 1106.61 698.362C911.112 786.901 642.609 753.441 670.097 811.651C697.584 869.861 1009.14 1000.35 1204.64 911.806C1400.14 823.267 1563.3 506.809 1535.81 448.599Z" fill="#6C72FF"/>
</g>
<g opacity="0.3" filter="url(#filter3_f_19_130143)">
<path d="M1378.31 639.212C1386.01 679.855 1782.62 541.575 2005.14 508.09C2227.66 474.605 2446.49 454.633 2438.79 413.99C2431.09 373.346 2008.92 334.946 1786.39 368.431C1563.87 401.915 1370.61 598.568 1378.31 639.212Z" fill="#14CA74"/>
</g>
<g opacity="0.7" filter="url(#filter4_f_19_130143)">
<path d="M1419.55 637.152C1431.45 699.96 1759.83 540.354 1973.67 508.176C2187.51 475.997 2489.98 497.352 2478.08 434.545C2466.19 371.737 2009.17 173.637 1795.33 205.815C1581.49 237.994 1407.65 574.345 1419.55 637.152Z" fill="#14CA74"/>
</g>
<g opacity="0.7" filter="url(#filter5_f_19_130143)">
<path d="M678.501 835.964C656.416 779.904 834.455 818.455 1047.77 739.879C1261.08 661.303 1440.24 448.161 1462.33 504.22C1484.41 560.28 1298.87 829.113 1085.55 907.689C872.239 986.265 700.585 892.024 678.501 835.964Z" fill="#14CA74"/>
</g>
<g filter="url(#filter6_f_19_130143)">
<path d="M1615.95 395.214C1925.61 248.865 2506.38 426.262 2506.38 426.262C2506.38 426.262 1987.29 454.123 1695.65 588.111C1443.94 703.76 1399.07 958.297 1124.57 1007.41C706.187 1082.26 369.721 611.913 369.721 611.913C369.721 611.913 774.418 904.838 1160.9 751.345C1375.55 666.1 1407.37 493.787 1615.95 395.214Z" fill="url(#paint0_linear_19_130143)"/>
</g>
<g opacity="0.8" filter="url(#filter7_f_19_130143)">
<path d="M1692.16 175.142C2001.82 28.7939 2461.27 418.549 2461.27 418.549C2461.27 418.549 1978.1 339.741 1686.47 473.729C1434.75 589.378 1353.96 950.584 1079.46 999.695C661.078 1074.55 106.147 437.136 106.147 437.136C106.147 437.136 756.306 948.287 1142.79 794.794C1357.43 709.549 1483.58 273.716 1692.16 175.142Z" fill="url(#paint1_linear_19_130143)"/>
</g>
<g filter="url(#filter8_f_19_130143)">
<path d="M1708.2 221.376C2017.86 75.028 2461.27 418.549 2461.27 418.549C2461.27 418.549 1898.09 310.74 1606.46 444.729C1354.75 560.378 1353.96 950.584 1079.46 999.695C661.078 1074.55 106.147 437.136 106.147 437.136C106.147 437.136 756.306 948.287 1142.79 794.794C1357.43 709.549 1499.62 319.95 1708.2 221.376Z" fill="#D76EE9"/>
</g>
<g filter="url(#filter9_f_19_130143)">
<path d="M1593.51 373.76C1894.59 210.957 2482.17 357.982 2482.17 357.982C2482.17 357.982 1966.44 413.19 1682.69 562.671C1437.78 691.692 1330.93 976.712 1059.95 1040.32C646.923 1137.27 136.813 500.532 136.813 500.532C136.813 500.532 810.447 978.018 1187.71 804.02C1397.22 707.388 1390.71 483.416 1593.51 373.76Z" fill="url(#paint2_linear_19_130143)"/>
</g>
<g opacity="0.5" filter="url(#filter10_f_19_130143)">
<path d="M1585.17 393.952C1886.26 231.148 2473.84 378.173 2473.84 378.173C2473.84 378.173 1958.11 433.382 1674.36 582.863C1429.45 711.884 1322.6 996.904 1051.61 1060.51C638.591 1157.47 128.48 520.723 128.48 520.723C128.48 520.723 802.114 998.21 1179.37 824.212C1388.89 727.579 1382.37 503.608 1585.17 393.952Z" fill="url(#paint3_linear_19_130143)"/>
</g>
<g filter="url(#filter11_f_19_130143)">
<path d="M1572.78 386.183C1882.45 239.835 2463.21 417.231 2463.21 417.231C2463.21 417.231 1944.12 445.092 1652.49 579.08C1400.77 694.729 1355.91 949.267 1081.41 998.378C663.022 1073.23 326.557 602.882 326.557 602.882C326.557 602.882 731.254 895.807 1117.74 742.314C1332.38 657.07 1364.21 484.756 1572.78 386.183Z" fill="url(#paint4_linear_19_130143)"/>
</g>
<g filter="url(#filter12_f_19_130143)">
<path d="M2497.01 459.951C2497.01 459.951 1984.78 357.946 1686.17 451.64C1413.51 537.19 1364.13 806.015 1082.51 860.086C684.427 936.514 92.4597 465.672 92.4597 465.672" stroke="#327DFF" stroke-width="3.87756"/>
</g>
<g filter="url(#filter13_f_19_130143)">
<path d="M1392.12 782.502C1392.12 782.502 1181.72 1032.81 925.585 981.31C788.635 953.775 589.46 849.14 589.46 849.14" stroke="url(#paint5_linear_19_130143)" stroke-width="6.4626"/>
</g>
<g filter="url(#filter14_f_19_130143)">
<path d="M1687.71 401.77C1590.37 433.31 1476.02 505.879 1476.02 505.879C1476.02 505.879 1606.94 448.259 1722.69 426.765C1838.45 405.272 2406.22 381.876 2406.22 381.876C2406.22 381.876 1926.03 324.55 1687.71 401.77Z" fill="#6C72FF"/>
</g>
<g filter="url(#filter15_f_19_130143)">
<path d="M1061.06 768.399C881.294 870.324 542.46 768.702 542.46 768.702C542.46 768.702 884.708 882.435 1086.65 802.523C1230.53 745.587 1353.97 582.462 1353.97 582.462C1353.97 582.462 1208.15 685.001 1061.06 768.399Z" fill="#327DFF"/>
</g>
<g filter="url(#filter16_f_19_130143)">
<path d="M736.078 779.048C530.216 761.031 308.781 485.149 308.781 485.149C308.781 485.149 526.159 772.942 737.802 821.668C888.594 856.384 1082.77 792.043 1082.77 792.043C1082.77 792.043 904.519 793.789 736.078 779.048Z" fill="#6C72FF"/>
</g>
<g filter="url(#filter17_f_19_130143)">
<path d="M803.319 789.528C579.675 800.722 307.211 537.567 307.211 537.567C307.211 537.567 576.794 814.102 810.474 834.998C976.968 849.886 1133.34 730.727 1133.34 730.727C1133.34 730.727 986.31 780.368 803.319 789.528Z" fill="#6C72FF"/>
</g>
<g filter="url(#filter18_f_19_130143)">
<path d="M824.791 798.568C601.147 809.762 328.682 546.607 328.682 546.607C328.682 546.607 598.265 823.142 831.946 844.038C998.44 858.926 1154.81 739.767 1154.81 739.767C1154.81 739.767 1007.78 789.408 824.791 798.568Z" fill="#6C72FF"/>
</g>
<g filter="url(#filter19_f_19_130143)">
<path d="M691.531 773.694C596.532 760.393 524.766 738.868 524.766 738.868C524.766 738.868 595.523 759.606 691.531 773.694C802.952 789.294 946.331 793.582 1043.37 738.565C1190.46 655.168 1336.27 552.629 1336.27 552.629C1336.27 552.629 1196.83 697.633 1052.94 754.569C945.048 797.264 801.674 789.855 691.531 773.694Z" fill="#FFCC68"/>
</g>
<defs>
<filter id="filter0_f_19_130143" x="30.327" y="159.071" width="2432.36" height="849.924" filterUnits="userSpaceOnUse" color-interpolation-filters="sRGB">
<feFlood flood-opacity="0" result="BackgroundImageFix"/>
<feBlend mode="normal" in="SourceGraphic" in2="BackgroundImageFix" result="shape"/>
<feGaussianBlur stdDeviation="19.3878" result="effect1_foregroundBlur_19_130143"/>
</filter>
<filter id="filter1_f_19_130143" x="888.342" y="229.522" width="1474.39" height="844.931" filterUnits="userSpaceOnUse" color-interpolation-filters="sRGB">
<feFlood flood-opacity="0" result="BackgroundImageFix"/>
<feBlend mode="normal" in="SourceGraphic" in2="BackgroundImageFix" result="shape"/>
<feGaussianBlur stdDeviation="19.3878" result="effect1_foregroundBlur_19_130143"/>
</filter>
<filter id="filter2_f_19_130143" x="594.47" y="365.237" width="1018.05" height="650.171" filterUnits="userSpaceOnUse" color-interpolation-filters="sRGB">
<feFlood flood-opacity="0" result="BackgroundImageFix"/>
<feBlend mode="normal" in="SourceGraphic" in2="BackgroundImageFix" result="shape"/>
<feGaussianBlur stdDeviation="36.8368" result="effect1_foregroundBlur_19_130143"/>
</filter>
<filter id="filter3_f_19_130143" x="1269.09" y="246.658" width="1278.89" height="508.963" filterUnits="userSpaceOnUse" color-interpolation-filters="sRGB">
<feFlood flood-opacity="0" result="BackgroundImageFix"/>
<feBlend mode="normal" in="SourceGraphic" in2="BackgroundImageFix" result="shape"/>
<feGaussianBlur stdDeviation="54.5" result="effect1_foregroundBlur_19_130143"/>
</filter>
<filter id="filter4_f_19_130143" x="1345.3" y="128.633" width="1206.8" height="596.694" filterUnits="userSpaceOnUse" color-interpolation-filters="sRGB">
<feFlood flood-opacity="0" result="BackgroundImageFix"/>
<feBlend mode="normal" in="SourceGraphic" in2="BackgroundImageFix" result="shape"/>
<feGaussianBlur stdDeviation="36.8368" result="effect1_foregroundBlur_19_130143"/>
</filter>
<filter id="filter5_f_19_130143" x="602.97" y="421.272" width="934.821" height="590.098" filterUnits="userSpaceOnUse" color-interpolation-filters="sRGB">
<feFlood flood-opacity="0" result="BackgroundImageFix"/>
<feBlend mode="normal" in="SourceGraphic" in2="BackgroundImageFix" result="shape"/>
<feGaussianBlur stdDeviation="36.8368" result="effect1_foregroundBlur_19_130143"/>
</filter>
<filter id="filter6_f_19_130143" x="330.946" y="298.571" width="2214.21" height="755.685" filterUnits="userSpaceOnUse" color-interpolation-filters="sRGB">
<feFlood flood-opacity="0" result="BackgroundImageFix"/>
<feBlend mode="normal" in="SourceGraphic" in2="BackgroundImageFix" result="shape"/>
<feGaussianBlur stdDeviation="19.3878" result="effect1_foregroundBlur_19_130143"/>
</filter>
<filter id="filter7_f_19_130143" x="31.1808" y="67.305" width="2505.05" height="1013.47" filterUnits="userSpaceOnUse" color-interpolation-filters="sRGB">
<feFlood flood-opacity="0" result="BackgroundImageFix"/>
<feBlend mode="normal" in="SourceGraphic" in2="BackgroundImageFix" result="shape"/>
<feGaussianBlur stdDeviation="37.4831" result="effect1_foregroundBlur_19_130143"/>
</filter>
<filter id="filter8_f_19_130143" x="67.3714" y="146.308" width="2432.67" height="898.275" filterUnits="userSpaceOnUse" color-interpolation-filters="sRGB">
<feFlood flood-opacity="0" result="BackgroundImageFix"/>
<feBlend mode="normal" in="SourceGraphic" in2="BackgroundImageFix" result="shape"/>
<feGaussianBlur stdDeviation="19.3878" result="effect1_foregroundBlur_19_130143"/>
</filter>
<filter id="filter9_f_19_130143" x="105.792" y="266.052" width="2407.4" height="815.336" filterUnits="userSpaceOnUse" color-interpolation-filters="sRGB">
<feFlood flood-opacity="0" result="BackgroundImageFix"/>
<feBlend mode="normal" in="SourceGraphic" in2="BackgroundImageFix" result="shape"/>
<feGaussianBlur stdDeviation="15.5102" result="effect1_foregroundBlur_19_130143"/>
</filter>
<filter id="filter10_f_19_130143" x="59.9765" y="248.761" width="2482.37" height="890.303" filterUnits="userSpaceOnUse" color-interpolation-filters="sRGB">
<feFlood flood-opacity="0" result="BackgroundImageFix"/>
<feBlend mode="normal" in="SourceGraphic" in2="BackgroundImageFix" result="shape"/>
<feGaussianBlur stdDeviation="34.2518" result="effect1_foregroundBlur_19_130143"/>
</filter>
<filter id="filter11_f_19_130143" x="287.781" y="289.541" width="2214.21" height="755.685" filterUnits="userSpaceOnUse" color-interpolation-filters="sRGB">
<feFlood flood-opacity="0" result="BackgroundImageFix"/>
<feBlend mode="normal" in="SourceGraphic" in2="BackgroundImageFix" result="shape"/>
<feGaussianBlur stdDeviation="19.3878" result="effect1_foregroundBlur_19_130143"/>
</filter>
<filter id="filter12_f_19_130143" x="0.945496" y="319.973" width="2586.91" height="640.58" filterUnits="userSpaceOnUse" color-interpolation-filters="sRGB">
<feFlood flood-opacity="0" result="BackgroundImageFix"/>
<feBlend mode="normal" in="SourceGraphic" in2="BackgroundImageFix" result="shape"/>
<feGaussianBlur stdDeviation="45.2382" result="effect1_foregroundBlur_19_130143"/>
</filter>
<filter id="filter13_f_19_130143" x="579.08" y="771.797" width="824.141" height="228.21" filterUnits="userSpaceOnUse" color-interpolation-filters="sRGB">
<feFlood flood-opacity="0" result="BackgroundImageFix"/>
<feBlend mode="normal" in="SourceGraphic" in2="BackgroundImageFix" result="shape"/>
<feGaussianBlur stdDeviation="4.52382" result="effect1_foregroundBlur_19_130143"/>
</filter>
<filter id="filter14_f_19_130143" x="1419.02" y="304.407" width="1044.2" height="258.471" filterUnits="userSpaceOnUse" color-interpolation-filters="sRGB">
<feFlood flood-opacity="0" result="BackgroundImageFix"/>
<feBlend mode="normal" in="SourceGraphic" in2="BackgroundImageFix" result="shape"/>
<feGaussianBlur stdDeviation="28.5" result="effect1_foregroundBlur_19_130143"/>
</filter>
<filter id="filter15_f_19_130143" x="488.779" y="528.781" width="918.87" height="355.886" filterUnits="userSpaceOnUse" color-interpolation-filters="sRGB">
<feFlood flood-opacity="0" result="BackgroundImageFix"/>
<feBlend mode="normal" in="SourceGraphic" in2="BackgroundImageFix" result="shape"/>
<feGaussianBlur stdDeviation="26.8408" result="effect1_foregroundBlur_19_130143"/>
</filter>
<filter id="filter16_f_19_130143" x="255.099" y="431.467" width="881.348" height="454.163" filterUnits="userSpaceOnUse" color-interpolation-filters="sRGB">
<feFlood flood-opacity="0" result="BackgroundImageFix"/>
<feBlend mode="normal" in="SourceGraphic" in2="BackgroundImageFix" result="shape"/>
<feGaussianBlur stdDeviation="26.8408" result="effect1_foregroundBlur_19_130143"/>
</filter>
<filter id="filter17_f_19_130143" x="265.211" y="495.567" width="910.129" height="382.718" filterUnits="userSpaceOnUse" color-interpolation-filters="sRGB">
<feFlood flood-opacity="0" result="BackgroundImageFix"/>
<feBlend mode="normal" in="SourceGraphic" in2="BackgroundImageFix" result="shape"/>
<feGaussianBlur stdDeviation="21" result="effect1_foregroundBlur_19_130143"/>
</filter>
<filter id="filter18_f_19_130143" x="286.683" y="504.607" width="910.129" height="382.718" filterUnits="userSpaceOnUse" color-interpolation-filters="sRGB">
<feFlood flood-opacity="0" result="BackgroundImageFix"/>
<feBlend mode="normal" in="SourceGraphic" in2="BackgroundImageFix" result="shape"/>
<feGaussianBlur stdDeviation="21" result="effect1_foregroundBlur_19_130143"/>
</filter>
<filter id="filter19_f_19_130143" x="471.084" y="498.947" width="918.869" height="341.161" filterUnits="userSpaceOnUse" color-interpolation-filters="sRGB">
<feFlood flood-opacity="0" result="BackgroundImageFix"/>
<feBlend mode="normal" in="SourceGraphic" in2="BackgroundImageFix" result="shape"/>
<feGaussianBlur stdDeviation="26.8408" result="effect1_foregroundBlur_19_130143"/>
</filter>
<linearGradient id="paint0_linear_19_130143" x1="1236.08" y1="398.236" x2="1231.85" y2="553.477" gradientUnits="userSpaceOnUse">
<stop stop-color="#14CA74"/>
<stop offset="1" stop-color="#14CA74" stop-opacity="0"/>
</linearGradient>
<linearGradient id="paint1_linear_19_130143" x1="1774.37" y1="210.447" x2="1127.76" y2="710.314" gradientUnits="userSpaceOnUse">
<stop stop-color="#D76EE9"/>
<stop offset="1" stop-color="#D76EE9" stop-opacity="0"/>
</linearGradient>
<linearGradient id="paint2_linear_19_130143" x1="721.221" y1="1000.12" x2="872.064" y2="750.549" gradientUnits="userSpaceOnUse">
<stop stop-color="#FFCC68"/>
<stop offset="1" stop-color="#FFCC68" stop-opacity="0"/>
</linearGradient>
<linearGradient id="paint3_linear_19_130143" x1="712.888" y1="1020.31" x2="863.731" y2="770.74" gradientUnits="userSpaceOnUse">
<stop stop-color="#FFCC68"/>
<stop offset="1" stop-color="#FFCC68" stop-opacity="0"/>
</linearGradient>
<linearGradient id="paint4_linear_19_130143" x1="1113.47" y1="920.997" x2="1033.78" y2="431.331" gradientUnits="userSpaceOnUse">
<stop stop-color="#327DFF"/>
<stop offset="1" stop-color="#327DFF" stop-opacity="0"/>
</linearGradient>
<linearGradient id="paint5_linear_19_130143" x1="1096.61" y1="1001.6" x2="1068.6" y2="890.946" gradientUnits="userSpaceOnUse">
<stop stop-color="#327DFF"/>
<stop offset="1" stop-color="#327DFF" stop-opacity="0"/>
</linearGradient>
</defs>
</svg>
