<svg width="1176" height="289" viewBox="0 0 1176 289" fill="none" xmlns="http://www.w3.org/2000/svg">
<mask id="mask0_37_78701" style="mask-type:alpha" maskUnits="userSpaceOnUse" x="0" y="0" width="1177" height="289">
<rect x="0.5" y="0.5" width="1175" height="287.638" rx="7.5" fill="#101627" stroke="#5B637C"/>
</mask>
<g mask="url(#mask0_37_78701)">
<g filter="url(#filter0_f_37_78701)">
<path d="M963.19 53.6173C1100.11 -32.9165 1371.06 146.698 1371.06 146.698C1371.06 146.698 1063 84.9632 902.583 156.987C764.12 219.153 761.839 432.928 611.207 458.532C381.618 497.557 80.5934 145.711 80.5934 145.711C80.5934 145.711 428.157 412.461 640.642 330.202C758.649 284.518 850.371 124.923 963.19 53.6173Z" fill="#14CA74"/>
</g>
<g opacity="0.8" filter="url(#filter1_f_37_78701)">
<path d="M884.785 170.373C869.173 138.747 758.288 260.914 652.028 311.275C545.768 361.636 398.353 345.86 413.965 377.486C429.577 409.112 601.501 477.629 707.762 427.267C814.022 376.906 900.397 201.999 884.785 170.373Z" fill="#6C72FF"/>
</g>
<g opacity="0.3" filter="url(#filter2_f_37_78701)">
<path d="M800.315 276.289C804.92 298.48 1020.88 218.958 1142.47 198.499C1264.06 178.039 1383.75 165.017 1379.14 142.826C1374.54 120.635 1142.89 103.614 1021.3 124.074C899.716 144.533 795.711 254.097 800.315 276.289Z" fill="#14CA74"/>
</g>
<g opacity="0.7" filter="url(#filter3_f_37_78701)">
<path d="M822.888 274.768C830.003 309.061 1008.38 218.506 1125.23 198.845C1242.07 179.184 1407.98 188.005 1400.87 153.712C1393.75 119.42 1141.5 15.2469 1024.65 34.9082C907.805 54.5695 815.772 240.475 822.888 274.768Z" fill="#14CA74"/>
</g>
<g opacity="0.7" filter="url(#filter4_f_37_78701)">
<path d="M418.801 390.725C406.169 360.226 504.072 379.65 620.187 334.578C736.301 289.505 832.426 171.042 845.058 201.541C857.69 232.041 758.597 381.072 642.482 426.145C526.368 471.217 431.433 421.225 418.801 390.725Z" fill="#14CA74"/>
</g>
<g filter="url(#filter5_f_37_78701)">
<path d="M928.18 140.367C1096.44 57.2519 1416.29 148.906 1416.29 148.906C1416.29 148.906 1132.17 169.105 973.681 245.278C836.881 311.024 814.722 450.886 664.806 480.4C436.31 525.384 247.508 270.927 247.508 270.927C247.508 270.927 472.003 427.542 682.276 339.783C799.054 291.044 814.851 196.349 928.18 140.367Z" fill="url(#paint0_linear_37_78701)"/>
</g>
<g opacity="0.8" filter="url(#filter6_f_37_78701)">
<path d="M967.837 19.087C1136.09 -64.0277 1391.5 145.11 1391.5 145.11C1391.5 145.11 1126.06 106.534 967.561 182.707C830.762 248.453 789.936 447.09 640.021 476.604C411.525 521.587 101.45 177.691 101.45 177.691C101.45 177.691 462.494 451.516 672.767 363.757C789.546 315.018 854.509 75.0691 967.837 19.087Z" fill="url(#paint1_linear_37_78701)"/>
</g>
<g filter="url(#filter7_f_37_78701)">
<path d="M977.067 44.2614C1145.32 -38.8533 1391.5 145.11 1391.5 145.11C1391.5 145.11 1081.95 91.4089 923.455 167.581C786.655 233.327 789.936 447.09 640.021 476.604C411.525 521.587 101.45 177.691 101.45 177.691C101.45 177.691 462.494 451.516 672.767 363.757C789.546 315.018 863.738 100.243 977.067 44.2614Z" fill="#D76EE9"/>
</g>
<g filter="url(#filter8_f_37_78701)">
<path d="M915.681 128.828C1079.08 36.7809 1402.38 111.733 1402.38 111.733C1402.38 111.733 1120.37 146.881 966.338 231.465C833.393 304.472 777.567 461.622 629.715 499.045C404.367 556.083 118.852 212.128 118.852 212.128C118.852 212.128 492.437 467.288 697.46 368.384C811.323 313.456 805.623 190.826 915.681 128.828Z" fill="url(#paint2_linear_37_78701)"/>
</g>
<g opacity="0.5" filter="url(#filter9_f_37_78701)">
<path d="M911.309 139.968C1074.71 47.9205 1398.01 122.872 1398.01 122.872C1398.01 122.872 1115.99 158.021 961.965 242.605C829.02 315.611 773.194 472.761 625.343 510.184C399.994 567.223 114.479 223.267 114.479 223.267C114.479 223.267 488.064 478.427 693.087 379.523C806.95 324.595 801.25 201.966 911.309 139.968Z" fill="url(#paint3_linear_37_78701)"/>
</g>
<g filter="url(#filter10_f_37_78701)">
<path d="M904.447 135.83C1072.7 52.7153 1392.55 144.369 1392.55 144.369C1392.55 144.369 1108.44 164.569 949.948 240.741C813.148 306.487 790.989 446.349 641.073 475.863C412.578 520.847 223.775 266.39 223.775 266.39C223.775 266.39 448.27 423.005 658.543 335.246C775.322 286.508 791.118 191.812 904.447 135.83Z" fill="url(#paint4_linear_37_78701)"/>
</g>
<g filter="url(#filter11_f_37_78701)">
<path d="M1411.48 167.45C1411.48 167.45 1129.88 116.444 967.185 170.609C818.629 220.066 794.134 367.798 640.361 400.096C423.004 445.75 94.2228 193.453 94.2228 193.453" stroke="#327DFF" stroke-width="2.12444"/>
</g>
<path d="M809.242 354.651C809.242 354.651 696.355 493.77 555.546 467.995C480.257 454.214 370.146 398.79 370.146 398.79" stroke="url(#paint5_linear_37_78701)" stroke-width="3.54074"/>
<g filter="url(#filter13_f_37_78701)">
<path d="M967.559 143.276C914.533 161.479 852.578 202.32 852.578 202.32C852.578 202.32 923.75 169.51 986.96 156.635C1050.17 143.76 1361 125.544 1361 125.544C1361 125.544 1097.39 98.7077 967.559 143.276Z" fill="#6C72FF"/>
</g>
<g filter="url(#filter14_f_37_78701)">
<path d="M627.74 350.075C530.226 407.619 343.633 355.173 343.633 355.173C343.633 355.173 532.211 414.221 642.084 368.525C720.367 335.967 786.437 245.433 786.437 245.433C786.437 245.433 707.529 302.991 627.74 350.075Z" fill="#327DFF"/>
</g>
</g>
<defs>
<filter id="filter0_f_37_78701" x="59.3491" y="8.80587" width="1332.95" height="473.992" filterUnits="userSpaceOnUse" color-interpolation-filters="sRGB">
<feFlood flood-opacity="0" result="BackgroundImageFix"/>
<feBlend mode="normal" in="SourceGraphic" in2="BackgroundImageFix" result="shape"/>
<feGaussianBlur stdDeviation="10.6222" result="effect1_foregroundBlur_37_78701"/>
</filter>
<filter id="filter1_f_37_78701" x="372.456" y="124.853" width="554.524" height="360.699" filterUnits="userSpaceOnUse" color-interpolation-filters="sRGB">
<feFlood flood-opacity="0" result="BackgroundImageFix"/>
<feBlend mode="normal" in="SourceGraphic" in2="BackgroundImageFix" result="shape"/>
<feGaussianBlur stdDeviation="20.1822" result="effect1_foregroundBlur_37_78701"/>
</filter>
<filter id="filter2_f_37_78701" x="740.449" y="55.1671" width="698.542" height="284.713" filterUnits="userSpaceOnUse" color-interpolation-filters="sRGB">
<feFlood flood-opacity="0" result="BackgroundImageFix"/>
<feBlend mode="normal" in="SourceGraphic" in2="BackgroundImageFix" result="shape"/>
<feGaussianBlur stdDeviation="29.8595" result="effect1_foregroundBlur_37_78701"/>
</filter>
<filter id="filter3_f_37_78701" x="782.137" y="-7.90444" width="659.317" height="330.714" filterUnits="userSpaceOnUse" color-interpolation-filters="sRGB">
<feFlood flood-opacity="0" result="BackgroundImageFix"/>
<feBlend mode="normal" in="SourceGraphic" in2="BackgroundImageFix" result="shape"/>
<feGaussianBlur stdDeviation="20.1822" result="effect1_foregroundBlur_37_78701"/>
</filter>
<filter id="filter4_f_37_78701" x="377.336" y="156.223" width="509.176" height="328.311" filterUnits="userSpaceOnUse" color-interpolation-filters="sRGB">
<feFlood flood-opacity="0" result="BackgroundImageFix"/>
<feBlend mode="normal" in="SourceGraphic" in2="BackgroundImageFix" result="shape"/>
<feGaussianBlur stdDeviation="20.1822" result="effect1_foregroundBlur_37_78701"/>
</filter>
<filter id="filter5_f_37_78701" x="226.264" y="84.2732" width="1211.27" height="422.703" filterUnits="userSpaceOnUse" color-interpolation-filters="sRGB">
<feFlood flood-opacity="0" result="BackgroundImageFix"/>
<feBlend mode="normal" in="SourceGraphic" in2="BackgroundImageFix" result="shape"/>
<feGaussianBlur stdDeviation="10.6222" result="effect1_foregroundBlur_37_78701"/>
</filter>
<filter id="filter6_f_37_78701" x="60.3772" y="-41.5101" width="1372.2" height="563.244" filterUnits="userSpaceOnUse" color-interpolation-filters="sRGB">
<feFlood flood-opacity="0" result="BackgroundImageFix"/>
<feBlend mode="normal" in="SourceGraphic" in2="BackgroundImageFix" result="shape"/>
<feGaussianBlur stdDeviation="20.5363" result="effect1_foregroundBlur_37_78701"/>
</filter>
<filter id="filter7_f_37_78701" x="80.2053" y="1.45431" width="1332.54" height="500.451" filterUnits="userSpaceOnUse" color-interpolation-filters="sRGB">
<feFlood flood-opacity="0" result="BackgroundImageFix"/>
<feBlend mode="normal" in="SourceGraphic" in2="BackgroundImageFix" result="shape"/>
<feGaussianBlur stdDeviation="10.6222" result="effect1_foregroundBlur_37_78701"/>
</filter>
<filter id="filter8_f_37_78701" x="101.857" y="65.9664" width="1317.52" height="456.458" filterUnits="userSpaceOnUse" color-interpolation-filters="sRGB">
<feFlood flood-opacity="0" result="BackgroundImageFix"/>
<feBlend mode="normal" in="SourceGraphic" in2="BackgroundImageFix" result="shape"/>
<feGaussianBlur stdDeviation="8.49777" result="effect1_foregroundBlur_37_78701"/>
</filter>
<filter id="filter9_f_37_78701" x="76.9474" y="56.5697" width="1358.59" height="497.53" filterUnits="userSpaceOnUse" color-interpolation-filters="sRGB">
<feFlood flood-opacity="0" result="BackgroundImageFix"/>
<feBlend mode="normal" in="SourceGraphic" in2="BackgroundImageFix" result="shape"/>
<feGaussianBlur stdDeviation="18.7659" result="effect1_foregroundBlur_37_78701"/>
</filter>
<filter id="filter10_f_37_78701" x="202.531" y="79.7365" width="1211.27" height="422.703" filterUnits="userSpaceOnUse" color-interpolation-filters="sRGB">
<feFlood flood-opacity="0" result="BackgroundImageFix"/>
<feBlend mode="normal" in="SourceGraphic" in2="BackgroundImageFix" result="shape"/>
<feGaussianBlur stdDeviation="10.6222" result="effect1_foregroundBlur_37_78701"/>
</filter>
<filter id="filter11_f_37_78701" x="44.0095" y="95.0556" width="1417.23" height="361.198" filterUnits="userSpaceOnUse" color-interpolation-filters="sRGB">
<feFlood flood-opacity="0" result="BackgroundImageFix"/>
<feBlend mode="normal" in="SourceGraphic" in2="BackgroundImageFix" result="shape"/>
<feGaussianBlur stdDeviation="24.7852" result="effect1_foregroundBlur_37_78701"/>
</filter>
<filter id="filter13_f_37_78701" x="821.348" y="86.3044" width="570.88" height="147.244" filterUnits="userSpaceOnUse" color-interpolation-filters="sRGB">
<feFlood flood-opacity="0" result="BackgroundImageFix"/>
<feBlend mode="normal" in="SourceGraphic" in2="BackgroundImageFix" result="shape"/>
<feGaussianBlur stdDeviation="15.6146" result="effect1_foregroundBlur_37_78701"/>
</filter>
<filter id="filter14_f_37_78701" x="314.222" y="216.022" width="501.627" height="199.259" filterUnits="userSpaceOnUse" color-interpolation-filters="sRGB">
<feFlood flood-opacity="0" result="BackgroundImageFix"/>
<feBlend mode="normal" in="SourceGraphic" in2="BackgroundImageFix" result="shape"/>
<feGaussianBlur stdDeviation="14.7056" result="effect1_foregroundBlur_37_78701"/>
</filter>
<linearGradient id="paint0_linear_37_78701" x1="720.101" y1="145.635" x2="719.261" y2="230.717" gradientUnits="userSpaceOnUse">
<stop stop-color="#14CA74"/>
<stop offset="1" stop-color="#14CA74" stop-opacity="0"/>
</linearGradient>
<linearGradient id="paint1_linear_37_78701" x1="1013.21" y1="37.645" x2="663.75" y2="317.647" gradientUnits="userSpaceOnUse">
<stop stop-color="#D76EE9"/>
<stop offset="1" stop-color="#D76EE9" stop-opacity="0"/>
</linearGradient>
<linearGradient id="paint2_linear_37_78701" x1="443.765" y1="480.244" x2="524.021" y2="342.089" gradientUnits="userSpaceOnUse">
<stop stop-color="#FFCC68"/>
<stop offset="1" stop-color="#FFCC68" stop-opacity="0"/>
</linearGradient>
<linearGradient id="paint3_linear_37_78701" x1="439.393" y1="491.383" x2="519.648" y2="353.228" gradientUnits="userSpaceOnUse">
<stop stop-color="#FFCC68"/>
<stop offset="1" stop-color="#FFCC68" stop-opacity="0"/>
</linearGradient>
<linearGradient id="paint4_linear_37_78701" x1="657.901" y1="433.169" x2="609.598" y2="165.688" gradientUnits="userSpaceOnUse">
<stop stop-color="#327DFF"/>
<stop offset="1" stop-color="#327DFF" stop-opacity="0"/>
</linearGradient>
<linearGradient id="paint5_linear_37_78701" x1="649.434" y1="477.485" x2="633.036" y2="417.133" gradientUnits="userSpaceOnUse">
<stop stop-color="#327DFF"/>
<stop offset="1" stop-color="#327DFF" stop-opacity="0"/>
</linearGradient>
</defs>
</svg>
