<svg width="1176" height="423" viewBox="0 0 1176 423" fill="none" xmlns="http://www.w3.org/2000/svg">
<mask id="mask0_49_79831" style="mask-type:alpha" maskUnits="userSpaceOnUse" x="0" y="0" width="1177" height="423">
<rect x="0.5" y="0.5" width="1175" height="421.371" rx="7.5" fill="#101627" stroke="#5B637C"/>
</mask>
<g mask="url(#mask0_49_79831)">
<g opacity="0.9">
<g opacity="0.8" filter="url(#filter0_f_49_79831)">
<path d="M829.585 243.572C810.51 208.557 690.811 351.603 573.069 413.326C455.326 475.049 288.086 463.935 307.161 498.95C326.236 533.965 523.561 603.541 641.303 541.818C759.046 480.095 848.66 278.587 829.585 243.572Z" fill="#6C72FF"/>
</g>
<g opacity="0.3" filter="url(#filter1_f_49_79831)">
<path d="M738.985 367.059C745.196 391.918 985.533 292.264 1121.95 263.621C1258.37 234.979 1392.98 214.824 1386.77 189.966C1380.56 165.108 1118.11 156.419 981.692 185.062C845.276 213.704 732.774 342.201 738.985 367.059Z" fill="#14CA74"/>
</g>
<g opacity="0.7" filter="url(#filter2_f_49_79831)">
<path d="M764.414 364.314C774.012 402.728 971.394 292.321 1102.49 264.796C1233.59 237.271 1421.4 239.688 1411.8 201.274C1402.2 162.861 1112.51 56.6609 981.417 84.1861C850.321 111.711 754.815 325.901 764.414 364.314Z" fill="#14CA74"/>
</g>
<g opacity="0.7" filter="url(#filter3_f_49_79831)">
<path d="M313.225 513.684C297.569 479.806 409.046 497.295 538.16 441.098C667.275 384.901 770.47 246.71 786.127 280.588C801.783 314.466 696.626 487.322 567.511 543.519C438.397 599.716 328.882 547.562 313.225 513.684Z" fill="#14CA74"/>
</g>
<g filter="url(#filter4_f_49_79831)">
<path d="M877.24 207.702C1063.52 106.16 1429 195.144 1429 195.144C1429 195.144 1108.98 230.886 933.411 324.142C781.871 404.633 763.202 563.632 595.197 603.791C339.131 665 114.281 386.151 114.281 386.151C114.281 386.151 374.999 552.853 608.534 444.153C738.232 383.785 751.768 276.096 877.24 207.702Z" fill="url(#paint0_linear_49_79831)"/>
</g>
<g opacity="0.8" filter="url(#filter5_f_49_79831)">
<path d="M916.52 68.8988C1102.8 -32.6433 1400.83 191.983 1400.83 191.983C1400.83 191.983 1099.22 160.483 923.652 253.739C772.111 334.23 735.031 560.471 567.026 600.63C310.96 661.84 -54.951 287.475 -54.951 287.475C-54.951 287.475 365.348 580.367 598.883 471.667C728.581 411.299 791.049 137.293 916.52 68.8988Z" fill="url(#paint1_linear_49_79831)"/>
</g>
<g filter="url(#filter6_f_49_79831)">
<path d="M928.091 96.9164C1114.37 -4.62571 1400.83 191.983 1400.83 191.983C1400.83 191.983 1048.71 145.404 873.14 238.659C721.6 319.151 735.031 560.471 567.026 600.63C310.96 661.84 -54.951 287.475 -54.951 287.475C-54.951 287.475 365.348 580.367 598.883 471.667C728.581 411.299 802.619 165.31 928.091 96.9164Z" fill="#D76EE9"/>
</g>
<g filter="url(#filter7_f_49_79831)">
<path d="M862.596 195.237C1042.99 83.8252 1411.6 153.784 1411.6 153.784C1411.6 153.784 1094.63 206.318 924.488 308.873C777.632 397.39 721.719 577.449 556.406 626.449C304.443 701.132 -33.7263 325.583 -33.7263 325.583C-33.7263 325.583 399.889 596.821 626.988 475.77C753.11 408.543 741.093 270.278 862.596 195.237Z" fill="url(#paint2_linear_49_79831)"/>
</g>
<g opacity="0.5" filter="url(#filter8_f_49_79831)">
<path d="M858.163 208.02C1038.56 96.6084 1407.17 166.568 1407.17 166.568C1407.17 166.568 1090.2 219.101 920.055 321.656C773.199 410.173 717.286 590.232 551.973 639.232C300.01 713.915 -38.1591 338.366 -38.1591 338.366C-38.1591 338.366 395.456 609.604 622.555 488.553C748.678 421.326 736.66 283.061 858.163 208.02Z" fill="url(#paint3_linear_49_79831)"/>
</g>
<g filter="url(#filter9_f_49_79831)">
<path d="M850.224 203.658C1036.51 102.115 1401.99 191.099 1401.99 191.099C1401.99 191.099 1081.97 226.841 906.396 320.097C754.855 400.588 736.186 559.587 568.181 599.746C312.115 660.955 87.2654 382.106 87.2654 382.106C87.2654 382.106 347.984 548.808 581.519 440.108C711.217 379.74 724.753 272.051 850.224 203.658Z" fill="url(#paint4_linear_49_79831)"/>
</g>
<g filter="url(#filter10_f_49_79831)">
<path d="M1424.42 216.31C1424.42 216.31 1104 171.503 922.677 240.091C757.115 302.717 736.165 470.711 563.93 514.191C320.477 575.65 -62.3976 305.609 -62.3976 305.609" stroke="#327DFF" stroke-width="2.40175"/>
</g>
<path d="M752.633 455.174C752.633 455.174 631.443 617.46 471.21 594.75C385.536 582.608 258.631 525.008 258.631 525.008" stroke="url(#paint5_linear_49_79831)" stroke-width="4.00292"/>
<g filter="url(#filter12_f_49_79831)">
<path d="M921.855 209.198C862.784 232.172 794.656 281.125 794.656 281.125C794.656 281.125 873.561 240.826 944.379 223.406C1015.2 205.987 1365.48 171.269 1365.48 171.269C1365.48 171.269 1066.48 152.947 921.855 209.198Z" fill="#6C72FF"/>
</g>
<g filter="url(#filter13_f_49_79831)">
<path d="M528.733 408.06C443.049 436.775 145.06 444.813 145.06 444.813C145.06 444.813 361.086 498.101 527.692 440.372C694.297 382.643 807.618 243.394 807.618 243.394C807.618 243.394 614.418 379.345 528.733 408.06Z" fill="#14CA74"/>
</g>
<g filter="url(#filter14_f_49_79831)">
<path d="M532.076 421.457C447.06 447.682 145.026 444.766 145.026 444.766C145.026 444.766 365.56 508.502 530.84 455.714C696.12 402.926 802.712 261.53 802.712 261.53C802.712 261.53 617.093 395.232 532.076 421.457Z" fill="#FFCC68"/>
</g>
<g filter="url(#filter15_f_49_79831)">
<path d="M547.398 458.26C439.862 527.7 226.697 476.944 226.697 476.944C226.697 476.944 442.405 535.067 564.441 478.449C651.389 438.11 721.905 332.836 721.905 332.836C721.905 332.836 635.387 401.444 547.398 458.26Z" fill="#327DFF"/>
</g>
</g>
</g>
<defs>
<filter id="filter0_f_49_79831" x="260.03" y="192.498" width="617.757" height="419.573" filterUnits="userSpaceOnUse" color-interpolation-filters="sRGB">
<feFlood flood-opacity="0" result="BackgroundImageFix"/>
<feBlend mode="normal" in="SourceGraphic" in2="BackgroundImageFix" result="shape"/>
<feGaussianBlur stdDeviation="22.8166" result="effect1_foregroundBlur_49_79831"/>
</filter>
<filter id="filter1_f_49_79831" x="671.225" y="99.6184" width="783.264" height="338.899" filterUnits="userSpaceOnUse" color-interpolation-filters="sRGB">
<feFlood flood-opacity="0" result="BackgroundImageFix"/>
<feBlend mode="normal" in="SourceGraphic" in2="BackgroundImageFix" result="shape"/>
<feGaussianBlur stdDeviation="33.7572" result="effect1_foregroundBlur_49_79831"/>
</filter>
<filter id="filter2_f_49_79831" x="718.116" y="34.0532" width="739.674" height="383.924" filterUnits="userSpaceOnUse" color-interpolation-filters="sRGB">
<feFlood flood-opacity="0" result="BackgroundImageFix"/>
<feBlend mode="normal" in="SourceGraphic" in2="BackgroundImageFix" result="shape"/>
<feGaussianBlur stdDeviation="22.8166" result="effect1_foregroundBlur_49_79831"/>
</filter>
<filter id="filter3_f_49_79831" x="266.119" y="229.678" width="567.19" height="384.288" filterUnits="userSpaceOnUse" color-interpolation-filters="sRGB">
<feFlood flood-opacity="0" result="BackgroundImageFix"/>
<feBlend mode="normal" in="SourceGraphic" in2="BackgroundImageFix" result="shape"/>
<feGaussianBlur stdDeviation="22.8166" result="effect1_foregroundBlur_49_79831"/>
</filter>
<filter id="filter4_f_49_79831" x="90.2632" y="135.052" width="1362.76" height="501.538" filterUnits="userSpaceOnUse" color-interpolation-filters="sRGB">
<feFlood flood-opacity="0" result="BackgroundImageFix"/>
<feBlend mode="normal" in="SourceGraphic" in2="BackgroundImageFix" result="shape"/>
<feGaussianBlur stdDeviation="12.0088" result="effect1_foregroundBlur_49_79831"/>
</filter>
<filter id="filter5_f_49_79831" x="-101.385" y="-3.88894" width="1548.65" height="657.717" filterUnits="userSpaceOnUse" color-interpolation-filters="sRGB">
<feFlood flood-opacity="0" result="BackgroundImageFix"/>
<feBlend mode="normal" in="SourceGraphic" in2="BackgroundImageFix" result="shape"/>
<feGaussianBlur stdDeviation="23.2169" result="effect1_foregroundBlur_49_79831"/>
</filter>
<filter id="filter6_f_49_79831" x="-78.9684" y="43.7774" width="1503.82" height="587.635" filterUnits="userSpaceOnUse" color-interpolation-filters="sRGB">
<feFlood flood-opacity="0" result="BackgroundImageFix"/>
<feBlend mode="normal" in="SourceGraphic" in2="BackgroundImageFix" result="shape"/>
<feGaussianBlur stdDeviation="12.0088" result="effect1_foregroundBlur_49_79831"/>
</filter>
<filter id="filter7_f_49_79831" x="-52.9403" y="112.888" width="1483.76" height="542.602" filterUnits="userSpaceOnUse" color-interpolation-filters="sRGB">
<feFlood flood-opacity="0" result="BackgroundImageFix"/>
<feBlend mode="normal" in="SourceGraphic" in2="BackgroundImageFix" result="shape"/>
<feGaussianBlur stdDeviation="9.60701" result="effect1_foregroundBlur_49_79831"/>
</filter>
<filter id="filter8_f_49_79831" x="-80.5901" y="102.454" width="1530.19" height="589.036" filterUnits="userSpaceOnUse" color-interpolation-filters="sRGB">
<feFlood flood-opacity="0" result="BackgroundImageFix"/>
<feBlend mode="normal" in="SourceGraphic" in2="BackgroundImageFix" result="shape"/>
<feGaussianBlur stdDeviation="21.2155" result="effect1_foregroundBlur_49_79831"/>
</filter>
<filter id="filter9_f_49_79831" x="63.2479" y="131.007" width="1362.76" height="501.538" filterUnits="userSpaceOnUse" color-interpolation-filters="sRGB">
<feFlood flood-opacity="0" result="BackgroundImageFix"/>
<feBlend mode="normal" in="SourceGraphic" in2="BackgroundImageFix" result="shape"/>
<feGaussianBlur stdDeviation="12.0088" result="effect1_foregroundBlur_49_79831"/>
</filter>
<filter id="filter10_f_49_79831" x="-119.126" y="144.691" width="1599.75" height="435.841" filterUnits="userSpaceOnUse" color-interpolation-filters="sRGB">
<feFlood flood-opacity="0" result="BackgroundImageFix"/>
<feBlend mode="normal" in="SourceGraphic" in2="BackgroundImageFix" result="shape"/>
<feGaussianBlur stdDeviation="28.0204" result="effect1_foregroundBlur_49_79831"/>
</filter>
<filter id="filter12_f_49_79831" x="759.351" y="133.112" width="641.44" height="183.318" filterUnits="userSpaceOnUse" color-interpolation-filters="sRGB">
<feFlood flood-opacity="0" result="BackgroundImageFix"/>
<feBlend mode="normal" in="SourceGraphic" in2="BackgroundImageFix" result="shape"/>
<feGaussianBlur stdDeviation="17.6528" result="effect1_foregroundBlur_49_79831"/>
</filter>
<filter id="filter13_f_49_79831" x="112.232" y="210.566" width="728.214" height="289.495" filterUnits="userSpaceOnUse" color-interpolation-filters="sRGB">
<feFlood flood-opacity="0" result="BackgroundImageFix"/>
<feBlend mode="normal" in="SourceGraphic" in2="BackgroundImageFix" result="shape"/>
<feGaussianBlur stdDeviation="16.414" result="effect1_foregroundBlur_49_79831"/>
</filter>
<filter id="filter14_f_49_79831" x="112.198" y="228.702" width="723.342" height="280.765" filterUnits="userSpaceOnUse" color-interpolation-filters="sRGB">
<feFlood flood-opacity="0" result="BackgroundImageFix"/>
<feBlend mode="normal" in="SourceGraphic" in2="BackgroundImageFix" result="shape"/>
<feGaussianBlur stdDeviation="16.414" result="effect1_foregroundBlur_49_79831"/>
</filter>
<filter id="filter15_f_49_79831" x="193.447" y="299.586" width="561.708" height="236.893" filterUnits="userSpaceOnUse" color-interpolation-filters="sRGB">
<feFlood flood-opacity="0" result="BackgroundImageFix"/>
<feBlend mode="normal" in="SourceGraphic" in2="BackgroundImageFix" result="shape"/>
<feGaussianBlur stdDeviation="16.6251" result="effect1_foregroundBlur_49_79831"/>
</filter>
<linearGradient id="paint0_linear_49_79831" x1="642.43" y1="223.12" x2="645.351" y2="319.267" gradientUnits="userSpaceOnUse">
<stop stop-color="#14CA74"/>
<stop offset="1" stop-color="#14CA74" stop-opacity="0"/>
</linearGradient>
<linearGradient id="paint1_linear_49_79831" x1="968.622" y1="87.798" x2="586.6" y2="419.99" gradientUnits="userSpaceOnUse">
<stop stop-color="#D76EE9"/>
<stop offset="1" stop-color="#D76EE9" stop-opacity="0"/>
</linearGradient>
<linearGradient id="paint2_linear_49_79831" x1="345.499" y1="613.67" x2="429.871" y2="453.957" gradientUnits="userSpaceOnUse">
<stop stop-color="#FFCC68"/>
<stop offset="1" stop-color="#FFCC68" stop-opacity="0"/>
</linearGradient>
<linearGradient id="paint3_linear_49_79831" x1="341.066" y1="626.454" x2="425.438" y2="466.74" gradientUnits="userSpaceOnUse">
<stop stop-color="#FFCC68"/>
<stop offset="1" stop-color="#FFCC68" stop-opacity="0"/>
</linearGradient>
<linearGradient id="paint4_linear_49_79831" x1="585.248" y1="550.753" x2="518.516" y2="250.798" gradientUnits="userSpaceOnUse">
<stop stop-color="#327DFF"/>
<stop offset="1" stop-color="#327DFF" stop-opacity="0"/>
</linearGradient>
<linearGradient id="paint5_linear_49_79831" x1="577.7" y1="601.199" x2="556.431" y2="533.771" gradientUnits="userSpaceOnUse">
<stop stop-color="#327DFF"/>
<stop offset="1" stop-color="#327DFF" stop-opacity="0"/>
</linearGradient>
</defs>
</svg>
