<svg width="35" height="33" viewBox="0 0 35 33" fill="none" xmlns="http://www.w3.org/2000/svg">
<g filter="url(#filter0_d_302_87046)">
<path d="M28.3 2C29.7912 2 31 3.20883 31 4.7V23.6C31 25.0912 29.7912 26.3 28.3 26.3C26.8088 26.3 25.6 25.0912 25.6 23.6V4.7C25.6 3.20883 26.8088 2 28.3 2Z" fill="#171E30"/>
<path d="M6.7 12.8C8.19117 12.8 9.4 14.0088 9.4 15.5L9.4 23.6C9.4 25.0912 8.19117 26.3 6.7 26.3C5.20883 26.3 4 25.0912 4 23.6L4 15.5C4 14.0088 5.20883 12.8 6.7 12.8Z" fill="#171E30"/>
<path d="M17.5 7.4C18.9912 7.4 20.2 8.60883 20.2 10.1V23.6C20.2 25.0912 18.9912 26.3 17.5 26.3C16.0088 26.3 14.8 25.0912 14.8 23.6L14.8 10.1C14.8 8.60883 16.0088 7.4 17.5 7.4Z" fill="#171E30"/>
<path d="M28.3 2C29.7912 2 31 3.20883 31 4.7V23.6C31 25.0912 29.7912 26.3 28.3 26.3C26.8088 26.3 25.6 25.0912 25.6 23.6V4.7C25.6 3.20883 26.8088 2 28.3 2Z" stroke="#576DA3" stroke-width="1.5" stroke-linecap="round" stroke-linejoin="round"/>
<path d="M6.7 12.8C8.19117 12.8 9.4 14.0088 9.4 15.5L9.4 23.6C9.4 25.0912 8.19117 26.3 6.7 26.3C5.20883 26.3 4 25.0912 4 23.6L4 15.5C4 14.0088 5.20883 12.8 6.7 12.8Z" stroke="#576DA3" stroke-width="1.5" stroke-linecap="round" stroke-linejoin="round"/>
<path d="M17.5 7.4C18.9912 7.4 20.2 8.60883 20.2 10.1V23.6C20.2 25.0912 18.9912 26.3 17.5 26.3C16.0088 26.3 14.8 25.0912 14.8 23.6L14.8 10.1C14.8 8.60883 16.0088 7.4 17.5 7.4Z" stroke="#576DA3" stroke-width="1.5" stroke-linecap="round" stroke-linejoin="round"/>
</g>
<defs>
<filter id="filter0_d_302_87046" x="0.25" y="0.25" width="34.5" height="31.8" filterUnits="userSpaceOnUse" color-interpolation-filters="sRGB">
<feFlood flood-opacity="0" result="BackgroundImageFix"/>
<feColorMatrix in="SourceAlpha" type="matrix" values="0 0 0 0 0 0 0 0 0 0 0 0 0 0 0 0 0 0 127 0" result="hardAlpha"/>
<feOffset dy="2"/>
<feGaussianBlur stdDeviation="1.5"/>
<feComposite in2="hardAlpha" operator="out"/>
<feColorMatrix type="matrix" values="0 0 0 0 0.140833 0 0 0 0 0.18135 0 0 0 0 0.325 0 0 0 0.47 0"/>
<feBlend mode="normal" in2="BackgroundImageFix" result="effect1_dropShadow_302_87046"/>
<feBlend mode="normal" in="SourceGraphic" in2="effect1_dropShadow_302_87046" result="shape"/>
</filter>
</defs>
</svg>
