<svg width="27" height="27" viewBox="0 0 27 27" fill="none" xmlns="http://www.w3.org/2000/svg">
<g filter="url(#filter0_d_302_87091)">
<path d="M21.8487 10.9243C21.8487 5.99556 17.8531 2 12.9243 2C7.99556 2 4 5.99556 4 10.9243C4 15.8531 7.99556 19.8487 12.9243 19.8487C17.8531 19.8487 21.8487 15.8531 21.8487 10.9243Z" fill="#171E30"/>
<path d="M19.5002 17.5002L22.7881 20.7881M21.8487 10.9243C21.8487 5.99556 17.8531 2 12.9243 2C7.99556 2 4 5.99556 4 10.9243C4 15.8531 7.99556 19.8487 12.9243 19.8487C17.8531 19.8487 21.8487 15.8531 21.8487 10.9243Z" stroke="#576DA3" stroke-width="1.5" stroke-linecap="round" stroke-linejoin="round"/>
</g>
<defs>
<filter id="filter0_d_302_87091" x="0.25" y="0.25" width="26.2891" height="26.2881" filterUnits="userSpaceOnUse" color-interpolation-filters="sRGB">
<feFlood flood-opacity="0" result="BackgroundImageFix"/>
<feColorMatrix in="SourceAlpha" type="matrix" values="0 0 0 0 0 0 0 0 0 0 0 0 0 0 0 0 0 0 127 0" result="hardAlpha"/>
<feOffset dy="2"/>
<feGaussianBlur stdDeviation="1.5"/>
<feComposite in2="hardAlpha" operator="out"/>
<feColorMatrix type="matrix" values="0 0 0 0 0.140833 0 0 0 0 0.18135 0 0 0 0 0.325 0 0 0 0.47 0"/>
<feBlend mode="normal" in2="BackgroundImageFix" result="effect1_dropShadow_302_87091"/>
<feBlend mode="normal" in="SourceGraphic" in2="effect1_dropShadow_302_87091" result="shape"/>
</filter>
</defs>
</svg>
