<svg width="32" height="33" viewBox="0 0 32 33" fill="none" xmlns="http://www.w3.org/2000/svg">
<g filter="url(#filter0_d_302_87114)">
<path d="M16.9805 3H14.6828C13.4139 3 12.3852 3.9699 12.3852 5.16633C12.3852 6.53547 10.9203 7.40593 9.71778 6.75133L9.59564 6.68484C8.4967 6.08663 7.09149 6.44163 6.45702 7.47778L5.3082 9.35387C4.67373 10.39 5.05025 11.7149 6.14919 12.3131C7.35228 12.968 7.35228 14.6953 6.14919 15.3502C5.05025 15.9484 4.67372 17.2733 5.3082 18.3095L6.45702 20.1856C7.09149 21.2217 8.4967 21.5767 9.59564 20.9785L9.71778 20.912C10.9203 20.2574 12.3852 21.1279 12.3852 22.497C12.3852 23.6934 13.4139 24.6633 14.6828 24.6633H16.9805C18.2494 24.6633 19.2781 23.6934 19.2781 22.497C19.2781 21.1279 20.743 20.2574 21.9455 20.912L22.0677 20.9785C23.1666 21.5767 24.5718 21.2217 25.2063 20.1855L26.3551 18.3094C26.9896 17.2733 26.6131 15.9484 25.5141 15.3502C24.311 14.6953 24.311 12.9681 25.5141 12.3132C26.6131 11.7149 26.9896 10.39 26.3551 9.35389L25.2063 7.47779C24.5718 6.44165 23.1666 6.08664 22.0677 6.68486L21.9455 6.75134C20.743 7.40594 19.2781 6.53548 19.2781 5.16633C19.2781 3.9699 18.2494 3 16.9805 3Z" fill="#171E30" stroke="#576DA3" stroke-width="1.5" stroke-linejoin="round"/>
<circle cx="15.8353" cy="13.8316" r="4.06187" fill="#171E30" stroke="#576DA3" stroke-width="1.5"/>
</g>
<defs>
<filter id="filter0_d_302_87114" x="0.188126" y="0.896042" width="31.2878" height="31.2871" filterUnits="userSpaceOnUse" color-interpolation-filters="sRGB">
<feFlood flood-opacity="0" result="BackgroundImageFix"/>
<feColorMatrix in="SourceAlpha" type="matrix" values="0 0 0 0 0 0 0 0 0 0 0 0 0 0 0 0 0 0 127 0" result="hardAlpha"/>
<feOffset dy="2.70792"/>
<feGaussianBlur stdDeviation="2.03094"/>
<feComposite in2="hardAlpha" operator="out"/>
<feColorMatrix type="matrix" values="0 0 0 0 0.140833 0 0 0 0 0.18135 0 0 0 0 0.325 0 0 0 0.47 0"/>
<feBlend mode="normal" in2="BackgroundImageFix" result="effect1_dropShadow_302_87114"/>
<feBlend mode="normal" in="SourceGraphic" in2="effect1_dropShadow_302_87114" result="shape"/>
</filter>
</defs>
</svg>
