<svg width="28" height="28" viewBox="0 0 28 28" fill="none" xmlns="http://www.w3.org/2000/svg">
<g filter="url(#filter0_d_302_87088)">
<path d="M20 2H8C5.79086 2 4 3.79086 4 6V18C4 19.8642 5.27532 21.4306 7.00111 21.8743C7.32039 21.9563 7.6551 22 8 22H20C20.3449 22 20.6796 21.9563 20.9989 21.8743C22.7247 21.4306 24 19.8642 24 18V6C24 3.79086 22.2091 2 20 2Z" fill="#171E30"/>
<path d="M20.9989 21.8743C22.7247 21.4306 24 19.8642 24 18V6C24 3.79086 22.2091 2 20 2H8C5.79086 2 4 3.79086 4 6V18C4 19.8642 5.27532 21.4306 7.00111 21.8743M20.9989 21.8743C20.6796 21.9563 20.3449 22 20 22H8C7.6551 22 7.32039 21.9563 7.00111 21.8743M20.9989 21.8743C20.9318 18.0663 17.824 15 14 15C10.176 15 7.06818 18.0663 7.00111 21.8743" stroke="#576DA3" stroke-width="1.5"/>
<circle cx="3" cy="3" r="3" transform="matrix(1 0 0 -1 11 12)" fill="#171E30" stroke="#576DA3" stroke-width="1.5" stroke-linejoin="round"/>
</g>
<defs>
<filter id="filter0_d_302_87088" x="0.25" y="0.25" width="27.5" height="27.5" filterUnits="userSpaceOnUse" color-interpolation-filters="sRGB">
<feFlood flood-opacity="0" result="BackgroundImageFix"/>
<feColorMatrix in="SourceAlpha" type="matrix" values="0 0 0 0 0 0 0 0 0 0 0 0 0 0 0 0 0 0 127 0" result="hardAlpha"/>
<feOffset dy="2"/>
<feGaussianBlur stdDeviation="1.5"/>
<feComposite in2="hardAlpha" operator="out"/>
<feColorMatrix type="matrix" values="0 0 0 0 0.140833 0 0 0 0 0.18135 0 0 0 0 0.325 0 0 0 0.47 0"/>
<feBlend mode="normal" in2="BackgroundImageFix" result="effect1_dropShadow_302_87088"/>
<feBlend mode="normal" in="SourceGraphic" in2="effect1_dropShadow_302_87088" result="shape"/>
</filter>
</defs>
</svg>
