<svg width="26" height="28" viewBox="0 0 26 28" fill="none" xmlns="http://www.w3.org/2000/svg">
<g filter="url(#filter0_d_302_87087)">
<path d="M4 5C4 3.34315 5.34315 2 7 2H15L22 9V19C22 20.6569 20.6569 22 19 22H7C5.34315 22 4 20.6569 4 19V5Z" fill="#171E30"/>
<path d="M22 9V19C22 20.6569 20.6569 22 19 22H7C5.34315 22 4 20.6569 4 19V5C4 3.34315 5.34315 2 7 2H15M22 9L15 2M22 9H18C16.3431 9 15 7.65685 15 6V2" stroke="#576DA3" stroke-width="1.5" stroke-linejoin="round"/>
<path d="M9 11L13 11" stroke="#576DA3" stroke-width="1.5" stroke-linecap="round"/>
<path d="M9 16H17" stroke="#576DA3" stroke-width="1.5" stroke-linecap="round"/>
</g>
<defs>
<filter id="filter0_d_302_87087" x="0.25" y="0.25" width="25.5" height="27.5" filterUnits="userSpaceOnUse" color-interpolation-filters="sRGB">
<feFlood flood-opacity="0" result="BackgroundImageFix"/>
<feColorMatrix in="SourceAlpha" type="matrix" values="0 0 0 0 0 0 0 0 0 0 0 0 0 0 0 0 0 0 127 0" result="hardAlpha"/>
<feOffset dy="2"/>
<feGaussianBlur stdDeviation="1.5"/>
<feComposite in2="hardAlpha" operator="out"/>
<feColorMatrix type="matrix" values="0 0 0 0 0.140833 0 0 0 0 0.18135 0 0 0 0 0.325 0 0 0 0.47 0"/>
<feBlend mode="normal" in2="BackgroundImageFix" result="effect1_dropShadow_302_87087"/>
<feBlend mode="normal" in="SourceGraphic" in2="effect1_dropShadow_302_87087" result="shape"/>
</filter>
</defs>
</svg>
