<svg width="34" height="34" viewBox="0 0 34 34" fill="none" xmlns="http://www.w3.org/2000/svg">
<g filter="url(#filter0_d_302_87052)">
<circle cx="16.5753" cy="14.5753" r="12.5753" fill="#171E30"/>
<circle cx="16.5753" cy="14.5753" r="11.8253" stroke="#576DA3" stroke-width="1.5"/>
</g>
<path d="M16.5781 7.24023V9.07413M16.5781 19.8155V21.9114" stroke="#576DA3" stroke-width="1.5" stroke-linecap="round" stroke-linejoin="round"/>
<path d="M13.1719 17.1955V17.4575C13.1719 18.7045 14.0207 19.8153 15.2678 19.8153H17.3636C18.9209 19.8153 19.9835 18.7527 19.9835 17.1955C19.9835 15.6382 18.9209 14.5756 17.3636 14.5756H15.7917C14.2345 14.5756 13.1719 13.513 13.1719 11.9558C13.1719 10.3985 14.2345 9.33594 15.7917 9.33594H17.1016C18.3487 9.33594 19.4595 10.4468 19.4595 11.6938V11.9558" stroke="#576DA3" stroke-width="1.5" stroke-linecap="round"/>
<defs>
<filter id="filter0_d_302_87052" x="0.0670404" y="0.689014" width="33.0144" height="33.0164" filterUnits="userSpaceOnUse" color-interpolation-filters="sRGB">
<feFlood flood-opacity="0" result="BackgroundImageFix"/>
<feColorMatrix in="SourceAlpha" type="matrix" values="0 0 0 0 0 0 0 0 0 0 0 0 0 0 0 0 0 0 127 0" result="hardAlpha"/>
<feOffset dy="2.62197"/>
<feGaussianBlur stdDeviation="1.96648"/>
<feComposite in2="hardAlpha" operator="out"/>
<feColorMatrix type="matrix" values="0 0 0 0 0.140833 0 0 0 0 0.18135 0 0 0 0 0.325 0 0 0 0.47 0"/>
<feBlend mode="normal" in2="BackgroundImageFix" result="effect1_dropShadow_302_87052"/>
<feBlend mode="normal" in="SourceGraphic" in2="effect1_dropShadow_302_87052" result="shape"/>
</filter>
</defs>
</svg>
