<svg width="28" height="22" viewBox="0 0 28 22" fill="none" xmlns="http://www.w3.org/2000/svg">
<g filter="url(#filter0_d_302_87095)">
<path d="M23.1303 6.8531C24.2899 8.07317 24.2899 9.92683 23.1303 11.1469C21.1745 13.2047 17.8155 16 14 16C10.1845 16 6.82549 13.2047 4.86971 11.1469C3.7101 9.92683 3.7101 8.07317 4.86971 6.8531C6.82549 4.79533 10.1845 2 14 2C17.8155 2 21.1745 4.79533 23.1303 6.8531Z" fill="#171E30"/>
<path d="M17 9C17 10.6569 15.6569 12 14 12C12.3431 12 11 10.6569 11 9C11 7.34315 12.3431 6 14 6C15.6569 6 17 7.34315 17 9Z" fill="#171E30"/>
<path d="M23.1303 6.8531C24.2899 8.07317 24.2899 9.92683 23.1303 11.1469C21.1745 13.2047 17.8155 16 14 16C10.1845 16 6.82549 13.2047 4.86971 11.1469C3.7101 9.92683 3.7101 8.07317 4.86971 6.8531C6.82549 4.79533 10.1845 2 14 2C17.8155 2 21.1745 4.79533 23.1303 6.8531Z" stroke="#576DA3" stroke-width="1.5" stroke-linecap="round" stroke-linejoin="round"/>
<path d="M17 9C17 10.6569 15.6569 12 14 12C12.3431 12 11 10.6569 11 9C11 7.34315 12.3431 6 14 6C15.6569 6 17 7.34315 17 9Z" stroke="#576DA3" stroke-width="1.5" stroke-linecap="round" stroke-linejoin="round"/>
</g>
<defs>
<filter id="filter0_d_302_87095" x="0.25" y="0.25" width="27.5" height="21.5" filterUnits="userSpaceOnUse" color-interpolation-filters="sRGB">
<feFlood flood-opacity="0" result="BackgroundImageFix"/>
<feColorMatrix in="SourceAlpha" type="matrix" values="0 0 0 0 0 0 0 0 0 0 0 0 0 0 0 0 0 0 127 0" result="hardAlpha"/>
<feOffset dy="2"/>
<feGaussianBlur stdDeviation="1.5"/>
<feComposite in2="hardAlpha" operator="out"/>
<feColorMatrix type="matrix" values="0 0 0 0 0.140833 0 0 0 0 0.18135 0 0 0 0 0.325 0 0 0 0.47 0"/>
<feBlend mode="normal" in2="BackgroundImageFix" result="effect1_dropShadow_302_87095"/>
<feBlend mode="normal" in="SourceGraphic" in2="effect1_dropShadow_302_87095" result="shape"/>
</filter>
</defs>
</svg>
