<svg width="34" height="31" viewBox="0 0 34 31" fill="none" xmlns="http://www.w3.org/2000/svg">
<g filter="url(#filter0_d_302_87069)">
<path d="M4.27385 3.76223C4.13675 3.61135 4.04636 3.42393 4.01365 3.2227C3.98094 3.02147 4.00731 2.81507 4.08957 2.62853C4.17183 2.44199 4.30643 2.28332 4.47707 2.17175C4.64771 2.06019 4.84705 2.00053 5.05092 2H28.2313C28.4354 2.00002 28.6351 2.05931 28.8061 2.17068C28.9771 2.28204 29.1121 2.44069 29.1947 2.62733C29.2773 2.81397 29.3039 3.02058 29.2713 3.22205C29.2387 3.42352 29.1482 3.61118 29.011 3.76223L20.0892 13.2859C19.9063 13.4813 19.8046 13.7388 19.8047 14.0064V21.3148C19.8048 21.4883 19.7621 21.6591 19.6803 21.8122C19.5985 21.9652 19.4802 22.0956 19.3358 22.1919L15.1212 25.0012C14.9626 25.1077 14.7781 25.1691 14.5874 25.1788C14.3966 25.1885 14.2068 25.1462 14.0383 25.0564C13.8697 24.9666 13.7287 24.8326 13.6304 24.6689C13.5321 24.5051 13.4802 24.3177 13.4801 24.1267V14.0064C13.4802 13.7388 13.3785 13.4813 13.1957 13.2859L4.27385 3.76223Z" fill="#171E30"/>
<path d="M4.27385 3.76223C4.13675 3.61135 4.04636 3.42393 4.01365 3.2227C3.98094 3.02147 4.00731 2.81507 4.08957 2.62853C4.17183 2.44199 4.30643 2.28332 4.47707 2.17175C4.64771 2.06019 4.84705 2.00053 5.05092 2H28.2313C28.4354 2.00002 28.6351 2.05931 28.8061 2.17068C28.9771 2.28204 29.1121 2.44069 29.1947 2.62733C29.2773 2.81397 29.3039 3.02058 29.2713 3.22205C29.2387 3.42352 29.1482 3.61118 29.011 3.76223L20.0892 13.2859C19.9063 13.4813 19.8046 13.7388 19.8047 14.0064V21.3148C19.8048 21.4883 19.7621 21.6591 19.6803 21.8122C19.5985 21.9652 19.4802 22.0956 19.3358 22.1919L15.1212 25.0012C14.9626 25.1077 14.7781 25.1691 14.5874 25.1788C14.3966 25.1885 14.2068 25.1462 14.0383 25.0564C13.8697 24.9666 13.7287 24.8326 13.6304 24.6689C13.5321 24.5051 13.4802 24.3177 13.4801 24.1267V14.0064C13.4802 13.7388 13.3785 13.4813 13.1957 13.2859L4.27385 3.76223Z" stroke="#576DA3" stroke-width="1.5" stroke-linecap="round" stroke-linejoin="round"/>
</g>
<defs>
<filter id="filter0_d_302_87069" x="0.25" y="0.25" width="32.7812" height="30.6802" filterUnits="userSpaceOnUse" color-interpolation-filters="sRGB">
<feFlood flood-opacity="0" result="BackgroundImageFix"/>
<feColorMatrix in="SourceAlpha" type="matrix" values="0 0 0 0 0 0 0 0 0 0 0 0 0 0 0 0 0 0 127 0" result="hardAlpha"/>
<feOffset dy="2"/>
<feGaussianBlur stdDeviation="1.5"/>
<feComposite in2="hardAlpha" operator="out"/>
<feColorMatrix type="matrix" values="0 0 0 0 0.140833 0 0 0 0 0.18135 0 0 0 0 0.325 0 0 0 0.47 0"/>
<feBlend mode="normal" in2="BackgroundImageFix" result="effect1_dropShadow_302_87069"/>
<feBlend mode="normal" in="SourceGraphic" in2="effect1_dropShadow_302_87069" result="shape"/>
</filter>
</defs>
</svg>
