<svg width="34" height="34" viewBox="0 0 34 34" fill="none" xmlns="http://www.w3.org/2000/svg">
<g filter="url(#filter0_d_302_87056)">
<path d="M14.4045 5.70239C12.5445 5.70239 10.7262 6.25396 9.17964 7.28734C7.63308 8.32071 6.42768 9.7895 5.71588 11.5079C5.00407 13.2264 4.81783 15.1173 5.18071 16.9416C5.54358 18.7659 6.43927 20.4416 7.75452 21.7569C9.06976 23.0721 10.7455 23.9678 12.5698 24.3307C14.3941 24.6935 16.285 24.5073 18.0034 23.7955C19.7219 23.0837 21.1907 21.8783 22.224 20.3317C23.2574 18.7852 23.809 16.9669 23.809 15.1069C23.809 14.4576 23.2827 13.9313 22.6334 13.9313H16.7556C16.1064 13.9313 15.5801 13.405 15.5801 12.7558V6.87795C15.5801 6.22871 15.0537 5.70239 14.4045 5.70239Z" fill="#171E30" stroke="#576DA3" stroke-width="1.5" stroke-linecap="round" stroke-linejoin="round"/>
<path d="M19.1052 1C18.7935 1 18.4945 1.12385 18.274 1.34431C18.0535 1.56477 17.9297 1.86378 17.9297 2.17556V10.4045C17.9297 10.7163 18.0535 11.0153 18.274 11.2357C18.4945 11.4562 18.7935 11.5801 19.1052 11.5801L27.3342 11.58C27.646 11.58 27.945 11.4562 28.1654 11.2357C28.3859 11.0153 28.5097 10.7163 28.5097 10.4045C28.5097 7.91026 27.5189 5.51819 25.7552 3.75451C23.9915 1.99083 21.5995 1 19.1052 1Z" fill="#171E30" stroke="#576DA3" stroke-width="1.5" stroke-linejoin="round"/>
</g>
<defs>
<filter id="filter0_d_302_87056" x="0.25" y="0.25" width="33.0078" height="33.0114" filterUnits="userSpaceOnUse" color-interpolation-filters="sRGB">
<feFlood flood-opacity="0" result="BackgroundImageFix"/>
<feColorMatrix in="SourceAlpha" type="matrix" values="0 0 0 0 0 0 0 0 0 0 0 0 0 0 0 0 0 0 127 0" result="hardAlpha"/>
<feOffset dy="4"/>
<feGaussianBlur stdDeviation="2"/>
<feComposite in2="hardAlpha" operator="out"/>
<feColorMatrix type="matrix" values="0 0 0 0 0.141176 0 0 0 0 0.180392 0 0 0 0 0.32549 0 0 0 0.47 0"/>
<feBlend mode="normal" in2="BackgroundImageFix" result="effect1_dropShadow_302_87056"/>
<feBlend mode="normal" in="SourceGraphic" in2="effect1_dropShadow_302_87056" result="shape"/>
</filter>
</defs>
</svg>
