<svg width="32" height="34" viewBox="0 0 32 34" fill="none" xmlns="http://www.w3.org/2000/svg">
<g filter="url(#filter0_d_302_87070)">
<path d="M5 16.9027H9.96756H19.9027C21.2744 16.9027 22.3864 15.7906 22.3864 14.4189V8.20945V5.72567C22.3864 4.35391 21.2744 3.24189 19.9027 3.24189H5V16.9027Z" fill="#171E30"/>
<path d="M5 26.8378V16.9027M5 16.9027V3.24189M5 16.9027H9.96756M5 3.24189V2M5 3.24189H19.9027C21.2744 3.24189 22.3864 4.35391 22.3864 5.72567V8.20945M22.3864 8.20945H24.8702C26.242 8.20945 27.354 9.32147 27.354 10.6932V20.6283C27.354 22.0001 26.242 23.1121 24.8702 23.1121H12.4513C11.0796 23.1121 9.96756 22.0001 9.96756 20.6283V16.9027M22.3864 8.20945V14.4189C22.3864 15.7906 21.2744 16.9027 19.9027 16.9027H9.96756" stroke="#576DA3" stroke-width="1.5" stroke-linecap="round" stroke-linejoin="round"/>
</g>
<defs>
<filter id="filter0_d_302_87070" x="0.524333" y="0.00811076" width="31.3029" height="33.7891" filterUnits="userSpaceOnUse" color-interpolation-filters="sRGB">
<feFlood flood-opacity="0" result="BackgroundImageFix"/>
<feColorMatrix in="SourceAlpha" type="matrix" values="0 0 0 0 0 0 0 0 0 0 0 0 0 0 0 0 0 0 127 0" result="hardAlpha"/>
<feOffset dy="2.48378"/>
<feGaussianBlur stdDeviation="1.86283"/>
<feComposite in2="hardAlpha" operator="out"/>
<feColorMatrix type="matrix" values="0 0 0 0 0.140833 0 0 0 0 0.18135 0 0 0 0 0.325 0 0 0 0.47 0"/>
<feBlend mode="normal" in2="BackgroundImageFix" result="effect1_dropShadow_302_87070"/>
<feBlend mode="normal" in="SourceGraphic" in2="effect1_dropShadow_302_87070" result="shape"/>
</filter>
</defs>
</svg>
