<svg width="55" height="55" viewBox="0 0 55 55" fill="none" xmlns="http://www.w3.org/2000/svg">
<rect width="55" height="55" fill="#1DA1F2"/>
<path d="M21.6751 40.3444C33.5239 40.3444 40.0035 30.462 40.0035 21.8924C40.0035 21.6118 39.9979 21.3324 39.9853 21.0542C41.2461 20.1357 42.3342 18.9986 43.1986 17.696C42.0443 18.2126 40.8023 18.5603 39.4993 18.717C40.8293 17.9142 41.8503 16.6441 42.332 15.1301C41.0675 15.8853 39.6841 16.4176 38.2415 16.7042C37.066 15.4437 35.3925 14.6553 33.5394 14.6553C29.982 14.6553 27.0972 17.5596 27.0972 21.1395C27.0972 21.6485 27.1538 22.1434 27.2643 22.6183C21.9104 22.347 17.163 19.7664 13.9857 15.8425C13.4135 16.8322 13.1125 17.957 13.1135 19.1021C13.1135 21.352 14.2507 23.3383 15.9801 24.5003C14.9572 24.4689 13.9566 24.1907 13.0627 23.6892C13.0617 23.7164 13.0617 23.7429 13.0617 23.772C13.0617 26.9127 15.2822 29.535 18.2297 30.1292C17.6761 30.281 17.1049 30.3577 16.5311 30.3574C16.1168 30.3574 15.7129 30.3163 15.3205 30.2405C16.1406 32.8172 18.5186 34.6923 21.3381 34.7447C19.1333 36.4845 16.356 37.5207 13.3374 37.5207C12.8239 37.5211 12.3108 37.4911 11.8008 37.4309C14.6517 39.2705 18.0369 40.3439 21.6754 40.3439" fill="white"/>
</svg>
