<svg width="55" height="55" viewBox="0 0 55 55" fill="none" xmlns="http://www.w3.org/2000/svg">
<rect width="55" height="55" fill="#4353FF"/>
<path d="M34.9825 22.9796C34.9825 22.9796 32.4719 30.9991 32.2674 31.6611C32.193 30.9802 30.3519 16.5867 30.3519 16.5867C26.0747 16.5867 23.7873 19.6886 22.5785 22.9607C22.5785 22.9607 19.5287 30.9991 19.2683 31.68C19.2497 31.0558 18.8034 23.0552 18.8034 23.0552C18.543 19.0455 14.9353 16.6056 12.0156 16.6056L15.549 38.4133C20.0308 38.3944 22.4483 35.3114 23.7129 32.0393C23.7129 32.0393 26.4094 24.9466 26.521 24.6251C26.5396 24.9277 28.4551 38.4133 28.4551 38.4133C32.9554 38.4133 35.373 35.5195 36.6748 32.3609L42.979 16.6056C38.5344 16.6056 36.1913 19.6886 34.9825 22.9796Z" fill="white"/>
</svg>
