<svg width="55" height="55" viewBox="0 0 55 55" fill="none" xmlns="http://www.w3.org/2000/svg">
<rect width="55" height="55" fill="#FF0000"/>
<path d="M28.3379 38.6831L21.656 38.5584C19.4926 38.5149 17.3238 38.6017 15.2028 38.1515C11.9763 37.4789 11.7477 34.1809 11.5085 31.4144C11.1789 27.5252 11.3065 23.5654 11.9285 19.7087C12.2796 17.5446 13.6613 16.2533 15.7982 16.1128C23.0115 15.6028 30.2729 15.6633 37.4702 15.9012C38.2304 15.923 38.9957 16.0422 39.7452 16.1779C43.4451 16.8397 43.5353 20.5771 43.7752 23.7233C44.0143 26.9019 43.9133 30.0968 43.4562 33.2538C43.0894 35.8677 42.3877 38.0597 39.4263 38.2714C35.7158 38.5481 32.0906 38.7708 28.3697 38.6999C28.3698 38.6831 28.3485 38.6831 28.3379 38.6831ZM24.4096 32.0654C27.2057 30.4272 29.9485 28.8162 32.7287 27.1889C29.9273 25.5507 27.1897 23.9397 24.4096 22.3124V32.0654Z" fill="white"/>
</svg>
