<svg width="55" height="55" viewBox="0 0 55 55" fill="none" xmlns="http://www.w3.org/2000/svg">
<rect width="55" height="55" fill="#E60023"/>
<path d="M27.493 10C17.8182 10 10 17.8322 10 27.493C10 34.908 14.6073 41.2428 21.1151 43.7906C20.957 42.4092 20.8271 40.2777 21.1731 38.7671C21.4893 37.3987 23.2177 30.0698 23.2177 30.0698C23.2177 30.0698 22.6995 29.0194 22.6995 27.4789C22.6995 25.0462 24.11 23.2317 25.8665 23.2317C27.3639 23.2317 28.084 24.3541 28.084 25.6934C28.084 27.1909 27.1338 29.4365 26.6297 31.525C26.2116 33.2666 27.5079 34.692 29.2205 34.692C32.3313 34.692 34.721 31.4091 34.721 26.6867C34.721 22.4975 31.7121 19.5747 27.4069 19.5747C22.4255 19.5747 19.5027 23.3037 19.5027 27.1619C19.5027 28.6593 20.0788 30.2718 20.7981 31.15C20.9421 31.323 20.9562 31.4811 20.914 31.6541C20.784 32.2013 20.4819 33.3957 20.4239 33.6407C20.3519 33.9569 20.1649 34.0298 19.8338 33.8708C17.6741 32.8345 16.3208 29.6377 16.3208 27.0758C16.3208 21.5604 20.3229 16.4929 27.882 16.4929C33.9437 16.4929 38.6661 20.8121 38.6661 26.6007C38.6661 32.6325 34.865 37.4848 29.5955 37.4848C27.8241 37.4848 26.1545 36.5627 25.5924 35.4692L24.499 39.6304C24.11 41.1559 23.0446 43.0564 22.3245 44.2236C23.9659 44.7269 25.6934 45 27.5079 45C37.1686 45 45.0009 37.1678 45.0009 27.507C44.9859 17.8322 37.1537 10 27.493 10Z" fill="white"/>
</svg>
